<svg width="280" height="200" viewBox="0 0 280 200" xmlns="http://www.w3.org/2000/svg" xmlns:xlink="http://www.w3.org/1999/xlink"><title>AD</title><defs><rect id="a" width="280" height="200" rx="2"/></defs><g fill="none" fill-rule="evenodd"><mask id="b" fill="#fff"><use xlink:href="#a"/></mask><use fill="#FFF" xlink:href="#a"/><path fill="#1537D1" mask="url(#b)" d="M0 0h280v200H0z"/><path fill="#EA3058" mask="url(#b)" d="M133.333 0H280v200H133.333z"/><path fill="#FFCF3C" mask="url(#b)" d="M93.333 0h93.333v200H93.333z"/><path fill="#FFEDB1" mask="url(#b)" d="M126.667 86.667H140v6.666h-13.333z"/><path d="M120.387 80.633l3.168 38.008a1.14 1.14 0 0 0 1.106 1.026h30.678c.56 0 1.06-.462 1.106-1.026l3.168-38.008a.267.267 0 0 0-.274-.3h-38.678a.267.267 0 0 0-.274.3z" stroke="#D32E28" stroke-width=".667" mask="url(#b)"/><path fill="#D32E28" mask="url(#b)" d="M126.667 93.333h26.666V100h-26.666z"/></g></svg>