<svg width="210" height="151" viewBox="0 0 210 151" xmlns="http://www.w3.org/2000/svg"><title>ad</title><defs><linearGradient x1="50%" y1="0%" x2="50%" y2="100%" id="a"><stop stop-color="#FFF" offset="0%"/><stop stop-color="#F0F0F0" offset="100%"/></linearGradient><linearGradient x1="50%" y1="0%" x2="50%" y2="100%" id="b"><stop stop-color="#1537D1" offset="0%"/><stop stop-color="#0522A5" offset="100%"/></linearGradient><linearGradient x1="50%" y1="0%" x2="50%" y2="100%" id="c"><stop stop-color="#EA3058" offset="0%"/><stop stop-color="#CE173E" offset="100%"/></linearGradient><linearGradient x1="50%" y1="0%" x2="50%" y2="100%" id="d"><stop stop-color="#FFCF3C" offset="0%"/><stop stop-color="#FECB2F" offset="100%"/></linearGradient></defs><g fill-rule="nonzero" fill="none"><path fill="url(#a)" d="M0 0h210v150.5H0z"/><path fill="url(#b)" d="M0 0h210v150.5H0z"/><path fill="url(#c)" d="M98.926 0H210v150.5H98.926z"/><path fill="url(#d)" d="M69.421 0h69.422v150.5H69.421z"/><path fill="#FFEDB1" d="M95.455 64.75h12.148V70H95.455z"/><path d="M98.683 81.83c.267 3.098 3.121 5.67 6.274 5.67h5.302c3.24-.085 5.918-2.506 6.275-5.67l1.304-15.329h-20.46l1.305 15.33zm-6.67-15.381a4.63 4.63 0 0 1 1.224-3.681 4.81 4.81 0 0 1 3.629-1.517h21.485c2.918 0 5.1 2.268 4.853 5.198l-1.347 15.812c-.491 5.796-5.665 10.489-11.598 10.489h-5.302c-5.91 0-11.106-4.651-11.598-10.489l-1.357-15.812h.01z" fill="#D32E28"/><path fill="#D32E28" d="M95.455 70h19.09v5.25h-19.09z"/></g></svg>