<svg width="280" height="200" viewBox="0 0 280 200" xmlns="http://www.w3.org/2000/svg" xmlns:xlink="http://www.w3.org/1999/xlink"><title>AG</title><defs><rect id="a" width="280" height="200" rx="2"/><path id="c" d="M0 0h280L140 200z"/><path id="f" d="M140 110l-22.961 25.433 1.748-34.22-34.22 1.748L110 80 80 53.333 118.787 60l-5.454-40L140 53.333 166.667 20l-5.454 40L200 53.333 170 80l25.433 22.961-34.22-1.748 1.748 34.22z"/><filter x="-1.2%" y="-1.3%" width="102.5%" height="102.6%" filterUnits="objectBoundingBox" id="e"><feMorphology radius=".5" operator="dilate" in="SourceAlpha" result="shadowSpreadOuter1"/><feOffset in="shadowSpreadOuter1" result="shadowOffsetOuter1"/><feColorMatrix values="0 0 0 0 0 0 0 0 0 0 0 0 0 0 0 0 0 0 0.06 0" in="shadowOffsetOuter1"/></filter><path id="h" d="M0 80h280v53.333H0z"/><filter x="-.5%" y="-2.8%" width="101.1%" height="105.6%" filterUnits="objectBoundingBox" id="g"><feMorphology radius=".5" operator="dilate" in="SourceAlpha" result="shadowSpreadOuter1"/><feOffset in="shadowSpreadOuter1" result="shadowOffsetOuter1"/><feColorMatrix values="0 0 0 0 0 0 0 0 0 0 0 0 0 0 0 0 0 0 0.06 0" in="shadowOffsetOuter1"/></filter></defs><g fill="none" fill-rule="evenodd"><mask id="b" fill="#fff"><use xlink:href="#a"/></mask><use fill="#FFF" xlink:href="#a"/><path fill="#E2243B" mask="url(#b)" d="M0 0h280v200H0z"/><g mask="url(#b)"><mask id="d" fill="#fff"><use xlink:href="#c"/></mask><use fill="#262626" xlink:href="#c"/><g mask="url(#d)"><use fill="#000" filter="url(#e)" xlink:href="#f"/><use fill="#FFCF3C" xlink:href="#f"/></g><g mask="url(#d)"><use fill="#000" filter="url(#g)" xlink:href="#h"/><use fill="#1984D8" xlink:href="#h"/></g><path fill="#FFF" mask="url(#d)" d="M0 133.333h280V200H0z"/></g></g></svg>