<svg width="280" height="200" viewBox="0 0 280 200" xmlns="http://www.w3.org/2000/svg" xmlns:xlink="http://www.w3.org/1999/xlink"><title>AL</title><defs><rect id="a" width="280" height="200" rx="2"/></defs><g fill="none" fill-rule="evenodd"><mask id="b" fill="#fff"><use xlink:href="#a"/></mask><path fill="#EE343C" mask="url(#b)" d="M0 0h280v200H0z"/><path d="M120.475 40.475a.855.855 0 0 0-1.03-.104l-18.89 12.592c-.306.204-.291.502.04.668l25.477 12.738c.329.165.595.601.595.959v12.01a.666.666 0 0 1-.662.662h-12.01a3.32 3.32 0 0 1-1.256-.297l-25.478-12.74c-.328-.163-.804-.087-1.069.178L73.808 79.525c-.262.263-.21.607.12.772l25.478 12.74c.328.163.341.465.038.667l-18.888 12.592c-.307.205-.268.428.095.5l32.031 6.407c.36.072.413.31.119.53l-25.602 19.2c-.294.221-.229.4.129.4h12.01c.366 0 .943-.07 1.308-.161l25.375-6.344c.356-.089.477.092.275.394l-12.592 18.889c-.205.307-.072.556.295.556h18.669c.367 0 .76.282.876.631l6.245 18.737c.117.349.305.349.422 0l6.245-18.737a.985.985 0 0 1 .876-.631h18.67c.367 0 .496-.253.294-.556l-12.592-18.889c-.205-.306-.09-.485.275-.394l25.375 6.344c.357.089.95.161 1.307.161h12.011c.365 0 .423-.179.129-.4l-25.602-19.2c-.294-.22-.244-.457.119-.53l32.031-6.406c.36-.072.398-.299.095-.5l-18.888-12.593c-.307-.205-.292-.503.038-.668l25.478-12.739c.329-.164.385-.506.12-.772l-12.384-12.384c-.262-.262-.739-.342-1.069-.177l-25.478 12.739a3.364 3.364 0 0 1-1.256.297h-12.01a.666.666 0 0 1-.662-.661V67.328c0-.365.263-.793.599-.96L180 53.332l-19.444-12.962a.849.849 0 0 0-1.03.104l-19.051 19.05a.67.67 0 0 1-.95 0l-19.05-19.05z" fill="#262626" mask="url(#b)"/></g></svg>