<svg width="280" height="200" viewBox="0 0 280 200" xmlns="http://www.w3.org/2000/svg" xmlns:xlink="http://www.w3.org/1999/xlink"><title>AO</title><defs><rect id="a" width="280" height="200" rx="2"/><linearGradient x1="50%" y1="0%" x2="50%" y2="100%" id="b"><stop stop-color="#FF323E" offset="0%"/><stop stop-color="#FD0D1B" offset="100%"/></linearGradient><path id="e" d="M0 106.667h280V200H0z"/><filter x="-.5%" y="-1.6%" width="101.1%" height="103.2%" filterUnits="objectBoundingBox" id="d"><feMorphology radius=".5" operator="dilate" in="SourceAlpha" result="shadowSpreadOuter1"/><feOffset in="shadowSpreadOuter1" result="shadowOffsetOuter1"/><feColorMatrix values="0 0 0 0 0 0 0 0 0 0 0 0 0 0 0 0 0 0 0.06 0" in="shadowOffsetOuter1"/></filter><path id="g" d="M0 0h280v106.667H0z"/><filter x="-.5%" y="-1.4%" width="101.1%" height="102.8%" filterUnits="objectBoundingBox" id="f"><feMorphology radius=".5" operator="dilate" in="SourceAlpha" result="shadowSpreadOuter1"/><feOffset in="shadowSpreadOuter1" result="shadowOffsetOuter1"/><feColorMatrix values="0 0 0 0 0 0 0 0 0 0 0 0 0 0 0 0 0 0 0.06 0" in="shadowOffsetOuter1"/></filter><path d="M141.741 118.062l-18.772-12.515a6.667 6.667 0 0 1 7.396-11.094l20.475 13.65a26.757 26.757 0 0 0 2.153-5.515c3.811-14.226-4.63-28.848-18.857-32.66a6.667 6.667 0 1 1 3.451-12.879c21.339 5.718 34.002 27.651 28.285 48.99a40.064 40.064 0 0 1-3.894 9.49l8.387 5.59a6.667 6.667 0 1 1-7.396 11.095l-9.496-6.33c-9.696 8.41-23.26 12.012-36.591 8.44a6.667 6.667 0 1 1 3.45-12.88c7.592 2.034 15.295.58 21.41-3.382zm-15.074-31.395a6.667 6.667 0 1 1 0-13.334 6.667 6.667 0 0 1 0 13.334z" id="i"/><filter x="-.8%" y="-.6%" width="101.6%" height="102.5%" filterUnits="objectBoundingBox" id="h"><feOffset dy="1" in="SourceAlpha" result="shadowOffsetOuter1"/><feColorMatrix values="0 0 0 0 0 0 0 0 0 0 0 0 0 0 0 0 0 0 0.06 0" in="shadowOffsetOuter1"/></filter></defs><g fill="none" fill-rule="evenodd"><mask id="c" fill="#fff"><use xlink:href="#a"/></mask><use fill="#FFF" xlink:href="#a"/><path fill="url(#b)" mask="url(#c)" d="M0 0h280v200H0z"/><g mask="url(#c)"><use fill="#000" filter="url(#d)" xlink:href="#e"/><use fill="#262626" xlink:href="#e"/></g><g mask="url(#c)"><use fill="#000" filter="url(#f)" xlink:href="#g"/><use fill="#DD2137" xlink:href="#g"/></g><g mask="url(#c)" fill-rule="nonzero"><use fill="#000" filter="url(#h)" xlink:href="#i"/><use fill="#F8D84B" fill-rule="evenodd" xlink:href="#i"/></g></g></svg>