<svg width="92" height="200" viewBox="0 0 92 200" xmlns="http://www.w3.org/2000/svg" xmlns:xlink="http://www.w3.org/1999/xlink"><title>AW</title><defs><rect id="a" width="280" height="200" rx="2"/><path id="d" d="M0 0h280v200H0z"/><filter x="-.7%" y="-.5%" width="101.4%" height="102%" filterUnits="objectBoundingBox" id="c"><feOffset dy="1" in="SourceAlpha" result="shadowOffsetOuter1"/><feGaussianBlur stdDeviation=".5" in="shadowOffsetOuter1" result="shadowBlurOuter1"/><feColorMatrix values="0 0 0 0 0 0 0 0 0 0 0 0 0 0 0 0 0 0 0.16 0" in="shadowBlurOuter1"/></filter><path id="e" d="M53.35 56.365L39.21 60.809l4.444-14.142-4.444-14.142 14.142 4.443 14.142-4.443-4.444 14.142 4.444 14.142z"/></defs><g fill="none" fill-rule="evenodd"><mask id="b" fill="#fff"><use xlink:href="#a"/></mask><use fill="#FFF" xlink:href="#a"/><g mask="url(#b)"><use fill="#000" filter="url(#c)" xlink:href="#d"/><use fill="#4189DD" xlink:href="#d"/></g><g mask="url(#b)" transform="rotate(135 53.35 46.667)"><use fill="#D21034" xlink:href="#e"/><path stroke="#FFF" stroke-width=".667" d="M53.35 56.714L38.7 61.318l4.603-14.651L38.7 32.015l14.652 4.604 14.652-4.604-4.604 14.652 4.604 14.651-14.652-4.604z"/></g><path fill="#F9D616" mask="url(#b)" d="M0 146.667h280V160H0zM0 120h280v13.333H0z"/></g></svg>