<svg width="280" height="200" viewBox="0 0 280 200" xmlns="http://www.w3.org/2000/svg" xmlns:xlink="http://www.w3.org/1999/xlink"><title>BA</title><defs><rect id="a" width="280" height="200" rx="2"/><path id="d" d="M226.667 200V0h-140z"/><filter x="-1.1%" y="-.8%" width="102.1%" height="101.5%" filterUnits="objectBoundingBox" id="c"><feMorphology radius=".5" operator="dilate" in="SourceAlpha" result="shadowSpreadOuter1"/><feOffset in="shadowSpreadOuter1" result="shadowOffsetOuter1"/><feColorMatrix values="0 0 0 0 0 0 0 0 0 0 0 0 0 0 0 0 0 0 0.06 0" in="shadowOffsetOuter1"/></filter></defs><g fill="none" fill-rule="evenodd"><mask id="b" fill="#fff"><use xlink:href="#a"/></mask><use fill="#FFF" xlink:href="#a"/><path fill="#0B36B2" mask="url(#b)" d="M0 0h280v200H0z"/><g mask="url(#b)"><use fill="#000" filter="url(#c)" xlink:href="#d"/><use fill="#FFD045" xlink:href="#d"/></g><path fill="#FFF" mask="url(#b)" d="M173.333 186.667l-9.428 2.761 2.762-9.428-2.762-9.428 9.428 2.761 9.428-2.761L180 180l2.761 9.428zm-26.666-40l-9.428 2.761L140 140l-2.761-9.428 9.428 2.761 9.428-2.761-2.762 9.428 2.762 9.428zm-26.667-40l-9.428 2.761 2.761-9.428-2.761-9.428L120 93.333l9.428-2.761-2.761 9.428 2.761 9.428zm-26.667-40l-9.428 2.761L86.667 60l-2.762-9.428 9.428 2.761 9.428-2.761L100 60l2.761 9.428zm-26.666-40l-9.428 2.761L60 20l-2.761-9.428 9.428 2.761 9.428-2.761L73.333 20l2.762 9.428z"/></g></svg>