<svg width="280" height="200" viewBox="0 0 280 200" xmlns="http://www.w3.org/2000/svg" xmlns:xlink="http://www.w3.org/1999/xlink"><title>BB</title><defs><rect id="a" width="280" height="200" rx="2"/><linearGradient x1="50%" y1="0%" x2="50%" y2="100%" id="b"><stop stop-color="#1132C7" offset="0%"/><stop stop-color="#0522A5" offset="100%"/></linearGradient></defs><g fill="none" fill-rule="evenodd"><mask id="c" fill="#fff"><use xlink:href="#a"/></mask><use fill="#FFF" xlink:href="#a"/><path fill="url(#b)" mask="url(#c)" d="M0 0h280v200H0z"/><path fill="#08379D" mask="url(#c)" d="M133.333 0H280v200H133.333zM0 0h93.333v200H0z"/><path fill="#FFCC50" mask="url(#c)" d="M93.333 0h93.333v200H93.333z"/><path d="M140.076 60.283c.106-.156.276-.155.377 0l12.696 19.434c.102.156.043.283-.148.283h-9.335a.295.295 0 0 0-.3.33l3.268 32.673a.37.37 0 0 0 .372.33h5.988a.936.936 0 0 0 .577-.234l6.192-6.126a.92.92 0 0 0 .237-.566V93.665a.92.92 0 0 0-.237-.569l-6.192-6.192c-.131-.131-.088-.287.076-.342l19.372-6.457c.174-.058.287.044.254.225l-6.01 32.673a1.2 1.2 0 0 1-.3.562l-13.389 12.87a.932.932 0 0 1-.58.232h-5.988c-.187 0-.34.15-.34.33v12.673c0 .182-.15.33-.329.33h-12.674a.331.331 0 0 1-.33-.33v-12.674a.327.327 0 0 0-.34-.33h-5.987a.91.91 0 0 1-.57-.23l-12.871-12.871a1.29 1.29 0 0 1-.298-.562l-6.534-32.673c-.037-.182.083-.28.248-.225l19.372 6.457c.173.058.209.21.076.342l-6.192 6.192a.93.93 0 0 0-.237.569v12.742a.91.91 0 0 0 .237.566l6.192 6.126a.91.91 0 0 0 .577.234h5.988a.38.38 0 0 0 .372-.33l3.268-32.673a.29.29 0 0 0-.3-.33h-9.335c-.183 0-.245-.128-.14-.283l13.217-19.434z" fill="#262626" mask="url(#c)"/></g></svg>