<svg width="280" height="200" viewBox="0 0 280 200" xmlns="http://www.w3.org/2000/svg" xmlns:xlink="http://www.w3.org/1999/xlink"><title>BI</title><defs><rect id="a" width="280" height="200" rx="2"/></defs><g fill="none" fill-rule="evenodd"><mask id="b" fill="#fff"><use xlink:href="#a"/></mask><use fill="#FFF" xlink:href="#a"/><path fill="#E4233B" mask="url(#b)" d="M0 0h280v200H0z"/><path fill="#34CD4E" mask="url(#b)" d="M0 0l120 100L0 200z"/><path fill="#34CD4E" mask="url(#b)" transform="matrix(-1 0 0 1 440 0)" d="M160 0l120 100-120 100z"/><path d="M110.38 63.938L-12.826-19.164-27.737 2.943 95.458 86.04A46.649 46.649 0 0 0 93.333 100c0 4.863.744 9.553 2.125 13.961l-123.195 83.096 14.912 22.107 123.204-83.102A46.475 46.475 0 0 0 140 146.667a46.475 46.475 0 0 0 29.62-10.605l123.205 83.102 14.912-22.107-123.195-83.096A46.649 46.649 0 0 0 186.667 100c0-4.863-.744-9.553-2.125-13.961L307.737 2.943l-14.912-22.107L169.62 63.938A46.475 46.475 0 0 0 140 53.333a46.475 46.475 0 0 0-29.62 10.605z" fill="#FFF" mask="url(#b)"/><path d="M140 86.667l-9.428 2.761L133.333 80l-2.761-9.428L140 73.333l9.428-2.761L146.667 80l2.761 9.428L140 86.667zM120 120l-9.428 2.761 2.761-9.428-2.761-9.428 9.428 2.762 9.428-2.762-2.761 9.428 2.761 9.428L120 120zm40 0l-9.428 2.761 2.761-9.428-2.761-9.428 9.428 2.762 9.428-2.762-2.761 9.428 2.761 9.428L160 120z" fill="#DF2239" mask="url(#b)"/></g></svg>