<svg width="156" height="200" viewBox="0 0 156 200" xmlns="http://www.w3.org/2000/svg" xmlns:xlink="http://www.w3.org/1999/xlink"><title>BR</title><defs><rect id="a" width="280" height="200" rx="2"/><circle id="c" cx="46.667" cy="46.667" r="46.667"/></defs><g fill="none" fill-rule="evenodd"><mask id="b" fill="#fff"><use xlink:href="#a"/></mask><use fill="#FFF" xlink:href="#a"/><path fill="#05AB41" mask="url(#b)" d="M0 0h280v200H0z"/><path d="M27.223 100.36c-.307-.199-.307-.521 0-.72l112.22-72.613c.308-.2.807-.199 1.113 0L252.777 99.64c.307.199.307.521 0 .72l-112.22 72.613c-.308.2-.807.199-1.113 0L27.223 100.36z" fill="#FDD216" mask="url(#b)"/><g transform="translate(93.333 53.333)" mask="url(#b)"><mask id="d" fill="#fff"><use xlink:href="#c"/></mask><use fill="#053087" xlink:href="#c"/><path d="M-6.667 40C0 33.333 24.102 36.452 46.667 40 69.232 43.548 93.415 53.415 100 60" stroke="#FFF" stroke-width="1.333" stroke-linecap="square" mask="url(#d)" transform="rotate(6 46.667 48.042)"/></g></g></svg>