<svg width="280" height="200" viewBox="0 0 280 200" xmlns="http://www.w3.org/2000/svg" xmlns:xlink="http://www.w3.org/1999/xlink"><title>BY</title><defs><rect id="a" width="280" height="200" rx="2"/></defs><g fill="none" fill-rule="evenodd"><mask id="b" fill="#fff"><use xlink:href="#a"/></mask><use fill="#FFF" xlink:href="#a"/><path fill="#E54252" mask="url(#b)" d="M0 0h280v133.333H0z"/><path fill="#5CBE6B" mask="url(#b)" d="M0 133.333h280V200H0z"/><path d="M40 170v30H0V0h40v30l-6.667 10L40 50v20l-6.667 10L40 90v20l-6.667 10L40 130v20l-6.667 10L40 170z" fill="#FFF" mask="url(#b)"/><path d="M-20 40l13.333-20L6.667 40-6.667 60-20 40zm0 40l13.333-20L6.667 80l-13.334 20L-20 80zm0 40l13.333-20 13.334 20-13.334 20L-20 120zm0 40l13.333-20 13.334 20-13.334 20L-20 160zM6.667 20L20 0l13.333 20L20 40 6.667 20zm0 40L20 40l13.333 20L20 80 6.667 60zm0 40L20 80l13.333 20L20 120 6.667 100zm0 40L20 120l13.333 20L20 160 6.667 140zm0 40L20 160l13.333 20L20 200 6.667 180z" fill="#E54252" mask="url(#b)"/></g></svg>