<svg width="280" height="200" viewBox="0 0 280 200" xmlns="http://www.w3.org/2000/svg" xmlns:xlink="http://www.w3.org/1999/xlink"><title>CA</title><defs><rect id="a" width="280" height="200" rx="2"/></defs><g fill="none" fill-rule="evenodd"><mask id="b" fill="#fff"><use xlink:href="#a"/></mask><use fill="#FFF" xlink:href="#a"/><rect stroke="#F5F5F5" stroke-width=".5" x=".25" y=".25" width="279.5" height="199.5" rx="2"/><path fill="#FF3131" mask="url(#b)" d="M200 0h80v200h-80zM0 0h80v200H0zM153.565 99.769c-.128.127-.202.082-.166-.099L160 66.667l-13.333 6.666-6.667-20-6.667 20L120 66.667l6.6 33.003c.037.182-.033.23-.165.099l-12.87-12.87a.33.33 0 0 0-.469.005l-6.43 6.43-13.333-6.667L100 100l-6.43 6.43a.337.337 0 0 0 .002.475l19.761 19.762h20l3.334 20h6.666l3.334-20h20l19.761-19.762a.335.335 0 0 0 .001-.476L180 100l6.667-13.333-13.334 6.666-6.43-6.43a.328.328 0 0 0-.468-.005l-12.87 12.87z"/></g></svg>