<svg width="280" height="200" viewBox="0 0 280 200" xmlns="http://www.w3.org/2000/svg" xmlns:xlink="http://www.w3.org/1999/xlink"><title>CH</title><defs><rect id="a" width="280" height="200" rx="2"/></defs><g fill="none" fill-rule="evenodd"><mask id="b" fill="#fff"><use xlink:href="#a"/></mask><use fill="#FFF" xlink:href="#a"/><path fill="#F00" mask="url(#b)" d="M0 0h280v200H0z"/><path d="M120 120H80.334a.33.33 0 0 1-.334-.334V80.334a.33.33 0 0 1 .334-.334H120V40.334a.33.33 0 0 1 .334-.334h39.332a.33.33 0 0 1 .334.334V80h39.666a.33.33 0 0 1 .334.334v39.332a.33.33 0 0 1-.334.334H160v39.666a.33.33 0 0 1-.334.334h-39.332a.33.33 0 0 1-.334-.334V120z" fill="#FFF" mask="url(#b)"/></g></svg>