<svg width="280" height="200" viewBox="0 0 280 200" xmlns="http://www.w3.org/2000/svg" xmlns:xlink="http://www.w3.org/1999/xlink"><title>CN</title><defs><rect id="a" width="280" height="200" rx="2"/></defs><g fill="none" fill-rule="evenodd"><mask id="b" fill="#fff"><use xlink:href="#a"/></mask><use fill="#FFF" xlink:href="#a"/><path fill="#F1361D" mask="url(#b)" d="M0 0h280v200H0z"/><path d="M135.059 59.773l-8.392 5.107.227-9.821-5.108-8.392 9.822.227L140 41.786l-.227 9.822L144.88 60l-9.821-.227zM110.41 32.659l-9.685-1.651 6.615-7.264 1.651-9.684 7.264 6.615 9.684 1.65-6.615 7.264-1.65 9.685-7.264-6.615zm4.871 87.05l-8.208 5.397-.116-9.824-5.397-8.208 9.823-.116 8.209-5.397.116 9.823 5.397 8.209-9.824.116zm16.894-26.477l-9.765 1.082 4.357-8.805-1.082-9.764 8.805 4.356 9.764-1.082-4.356 8.805 1.082 9.765-8.805-4.357zM66.667 82.267l-23.512 16.76 8.675-27.54-23.206-17.181 28.873-.26 9.17-27.38 9.17 27.38 28.872.26-23.206 17.181 8.675 27.54z" fill="#FFDC42" mask="url(#b)"/></g></svg>