<svg width="280" height="200" viewBox="0 0 280 200" xmlns="http://www.w3.org/2000/svg" xmlns:xlink="http://www.w3.org/1999/xlink"><title>CY</title><defs><rect id="a" width="280" height="200" rx="2"/></defs><g fill="none" fill-rule="evenodd"><mask id="b" fill="#fff"><use xlink:href="#a"/></mask><use fill="#FFF" xlink:href="#a"/><rect stroke="#F5F5F5" stroke-width=".5" x=".25" y=".25" width="279.5" height="199.5" rx="2"/><path d="M212.743 26.962c.326-.163.422-.042.22.26L200.37 46.111a4.006 4.006 0 0 1-.927.926L180.556 59.63a8.04 8.04 0 0 0-1.025.84l-5.729 5.729a.664.664 0 0 0 .006.943l12.384 12.384a.668.668 0 0 1 0 .95l-12.384 12.384c-.262.262-.741.341-1.065.18l-12.153-6.077a.661.661 0 0 0-.885.295l-6.077 12.153c-.163.326-.577.684-.926.8l-18.737 6.246c-.349.116-.935.21-1.293.21h-12.01c-.366 0-.795.267-.957.59l-6.077 12.154a.66.66 0 0 1-.889.293l-25.478-12.74a4.898 4.898 0 0 1-1.069-.77L73.808 93.807c-.262-.262-.475-.778-.475-1.136v-12.01c0-.366.304-.662.664-.662h5.34c.366 0 .872-.21 1.138-.475l12.384-12.384c.262-.262.778-.474 1.136-.474h12.01c.366 0 .756-.283.872-.632l6.246-18.737a.77.77 0 0 1 .861-.501l32.032 6.406c.36.072.932.06 1.297-.031l25.374-6.344c.357-.089.913-.295 1.236-.456l12.154-6.077 1.18-.59 12.153-6.077 1.18-.59 12.153-6.076z" fill="#E7832C" mask="url(#b)"/><circle fill="#445128" mask="url(#b)" cx="140" cy="153.333" r="6.667"/><path d="M160 146.667s20-6.667 26.667-20" stroke="#445128" stroke-width="1.333" opacity=".75" stroke-linecap="round" mask="url(#b)"/><path d="M93.333 146.667s20-6.667 26.667-20" stroke="#445128" stroke-width="1.333" opacity=".75" stroke-linecap="round" mask="url(#b)" transform="matrix(-1 0 0 1 213.333 0)"/></g></svg>