<svg width="280" height="200" viewBox="0 0 280 200" xmlns="http://www.w3.org/2000/svg" xmlns:xlink="http://www.w3.org/1999/xlink"><title>DM</title><defs><rect id="a" width="280" height="200" rx="2"/><linearGradient x1="50%" y1="0%" x2="50%" y2="100%" id="c"><stop stop-color="#E02C42" offset="0%"/><stop stop-color="#D22036" offset="100%"/></linearGradient></defs><g fill="none" fill-rule="evenodd"><mask id="b" fill="#fff"><use xlink:href="#a"/></mask><use fill="#FFF" xlink:href="#a"/><path fill="#108753" mask="url(#b)" d="M0 0h280v80H0zM0 120h280v80H0z"/><path d="M120 80H0v40h120v80h40v-80h120V80H160V0h-40v80z" fill="#FFF" mask="url(#b)"/><path d="M133.333 106.667V200h13.334v-93.333H280V93.333H146.667V0h-13.334v93.333H0v13.334h133.333z" fill="#262626" mask="url(#b)"/><path d="M120 93.333V200h13.333V93.333H280V80H133.333V0H120v80H0v13.333h120z" fill="#FCD449" mask="url(#b)"/><circle fill="url(#c)" mask="url(#b)" cx="140" cy="100" r="46.667"/><circle stroke="#0E673F" stroke-width="1.333" stroke-linecap="round" stroke-dasharray="0.6666666666666666,2.666666666666667" mask="url(#b)" cx="140" cy="100" r="33.333"/><path d="M140 113.333c7.364 0 6.667-5.97 6.667-13.333 0-7.364.697-13.333-6.667-13.333s-6.667 5.97-6.667 13.333c0 7.364-.697 13.333 6.667 13.333z" fill="#0E673F" mask="url(#b)"/></g></svg>