<svg width="280" height="200" viewBox="0 0 280 200" xmlns="http://www.w3.org/2000/svg" xmlns:xlink="http://www.w3.org/1999/xlink"><title>DZ</title><defs><rect id="a" width="280" height="200" rx="2"/></defs><g fill="none" fill-rule="evenodd"><mask id="b" fill="#fff"><use xlink:href="#a"/></mask><use fill="#FFF" xlink:href="#a"/><rect stroke="#F5F5F5" stroke-width=".5" x=".25" y=".25" width="279.5" height="199.5" rx="2"/><path fill="#048345" mask="url(#b)" d="M0 0h146.667v200H0z"/><path fill="#E81B42" mask="url(#b)" d="M173.333 110.4l-15.674 11.174 5.783-18.36-15.47-11.454 19.248-.174 6.113-18.253 6.113 18.253 19.249.174-15.47 11.454 5.783 18.36z"/><path d="M176.8 56.187C166.519 46.147 152.702 40 137.509 40 105.748 40 80 66.863 80 100s25.748 60 57.509 60c15.193 0 29.01-6.147 39.291-16.187-7.091 3.376-15.112 5.278-23.607 5.278-28.874 0-52.28-21.979-52.28-49.091 0-27.112 23.406-49.09 52.28-49.09 8.495 0 16.516 1.901 23.607 5.277z" fill="#E81B42" mask="url(#b)"/></g></svg>