<svg width="280" height="200" viewBox="0 0 280 200" xmlns="http://www.w3.org/2000/svg" xmlns:xlink="http://www.w3.org/1999/xlink"><title>EC</title><defs><rect id="a" width="280" height="200" rx="2"/></defs><g fill="none" fill-rule="evenodd"><mask id="b" fill="#fff"><use xlink:href="#a"/></mask><use fill="#FFF" xlink:href="#a"/><path fill="#0748AE" mask="url(#b)" d="M0 93.333h280v53.333H0z"/><path fill="#DE2035" mask="url(#b)" d="M0 146.667h280V200H0z"/><path fill="#FFD935" mask="url(#b)" d="M0 0h280v93.333H0z"/><path d="M124 80c-6.477 4.865-10.667 12.61-10.667 21.335 0 14.727 11.94 26.667 26.667 26.667 14.728 0 26.667-11.94 26.667-26.667 0-8.724-4.19-16.47-10.666-21.335l-9.334 28.002h-13.334L124 80z" fill="#FFD935" mask="url(#b)"/><path fill="#5FC0DC" mask="url(#b)" d="M140 73.333l6.667 33.334h-13.334z"/><path stroke="#3F2821" stroke-width=".667" opacity=".66" stroke-linecap="round" stroke-linejoin="round" mask="url(#b)" d="M173.333 60l-20-6.667L140 66.667l-13.333-13.334-20 6.667"/></g></svg>