<svg width="280" height="200" viewBox="0 0 280 200" xmlns="http://www.w3.org/2000/svg" xmlns:xlink="http://www.w3.org/1999/xlink"><title>EG</title><defs><rect id="a" width="280" height="200" rx="2"/><path d="M106.667 80.66c0-.364.303-.66.66-.66h12.343c.182 0 .396.132.482.304l6.515 13.03S133.99 80 140 80c6.667 0 13.333 13.333 13.333 13.333l6.515-13.03a.595.595 0 0 1 .482-.303h12.342c.365 0 .661.299.661.66v38.68c0 .364-.253.491-.555.29l-19.445-12.963h-6.666v12.672a.666.666 0 0 1-.662.661h-12.01a.666.666 0 0 1-.662-.661v-12.672h-6.666l-19.445 12.962c-.306.205-.555.072-.555-.29V80.661z" id="c"/></defs><g fill="none" fill-rule="evenodd"><mask id="b" fill="#fff"><use xlink:href="#a"/></mask><use fill="#FFF" xlink:href="#a"/><rect stroke="#F5F5F5" stroke-width=".5" x=".25" y=".25" width="279.5" height="199.5" rx="2"/><path fill="#E41D33" mask="url(#b)" d="M0 0h280v66.667H0z"/><path fill="#262626" mask="url(#b)" d="M0 133.333h280V200H0z"/><g mask="url(#b)"><use fill-opacity=".25" fill="#F4B32E" xlink:href="#c"/><path stroke="#C6A846" stroke-width=".667" d="M107 80.66v38.68c0 .095-.048.07.038.012l19.444-12.963.185-.056h7v13.006c0 .177.15.328.328.328h12.01c.177 0 .328-.15.328-.328v-13.006h7l.185.056 19.444 12.963c.086.057.038.081.038-.013V80.661a.33.33 0 0 0-.328-.328H160.33c-.054 0-.156.065-.184.12l-6.813 13.626-.298-.597c-.05-.101-.15-.294-.295-.564a47.683 47.683 0 0 0-.84-1.5 47.648 47.648 0 0 0-3-4.551c-3.066-4.089-6.123-6.534-8.9-6.534-.818 0-1.702.27-2.644.792-1.89 1.047-3.93 3.057-6.012 5.746a55.44 55.44 0 0 0-3.156 4.556 56.04 56.04 0 0 0-1.23 2.067l-.305.557-6.8-13.598c-.028-.058-.126-.12-.183-.12h-12.342a.333.333 0 0 0-.328.328z"/></g></g></svg>