<svg width="280" height="200" viewBox="0 0 280 200" xmlns="http://www.w3.org/2000/svg" xmlns:xlink="http://www.w3.org/1999/xlink"><title>ES</title><defs><rect id="a" width="280" height="200" rx="2"/></defs><g fill="none" fill-rule="evenodd"><mask id="b" fill="#fff"><use xlink:href="#a"/></mask><use fill="#FFF" xlink:href="#a"/><path fill="#DD172C" mask="url(#b)" d="M0 0h280v53.333H0zM0 146.667h280V200H0z"/><path fill="#FFD133" mask="url(#b)" d="M0 53.333h280v93.333H0z"/><path fill="#FFEDB1" mask="url(#b)" d="M73.333 93.333h13.334V100H73.333z"/><path d="M57.054 87.3l3.167 38.008a1.147 1.147 0 0 0 1.12 1.025h23.985c.571 0 1.072-.46 1.12-1.025L89.612 87.3a.27.27 0 0 0-.279-.3H57.333a.268.268 0 0 0-.28.3z" stroke="#A41517" stroke-width=".667" mask="url(#b)"/><path fill="#A41517" mask="url(#b)" d="M60 100h26.667v6.667H80L73.333 120l-6.666-13.333H60zM40 80h13.333v46.667H40zM93.333 80h13.333v46.667H93.333zM60 67.994a1.33 1.33 0 0 1 1.34-1.327h23.986c.74 0 1.34.59 1.34 1.327V79.67c0 .182-.143.33-.336.33H60.337a.335.335 0 0 1-.337-.33V67.994z"/></g></svg>