<svg width="280" height="200" viewBox="0 0 280 200" xmlns="http://www.w3.org/2000/svg" xmlns:xlink="http://www.w3.org/1999/xlink"><title>EU</title><defs><rect id="a" width="280" height="200" rx="2"/></defs><g fill="none" fill-rule="evenodd"><mask id="b" fill="#fff"><use xlink:href="#a"/></mask><use fill="#FFF" xlink:href="#a"/><path fill="#043CAE" mask="url(#b)" d="M0 0h280v200H0z"/><path d="M140 40l-9.428 2.761 2.761-9.428-2.761-9.428L140 26.667l9.428-2.762-2.761 9.428 2.761 9.428L140 40zm0 133.333l-9.428 2.762 2.761-9.428-2.761-9.428L140 160l9.428-2.761-2.761 9.428 2.761 9.428-9.428-2.762zm66.667-66.666l-9.428 2.761L200 100l-2.761-9.428 9.428 2.761 9.428-2.761-2.762 9.428 2.762 9.428-9.428-2.761zm-133.334 0l-9.428 2.761L66.667 100l-2.762-9.428 9.428 2.761 9.428-2.761L80 100l2.761 9.428-9.428-2.761zm124.402-33.334l-9.428 2.762 2.761-9.428-2.761-9.428L197.735 60l9.428-2.761-2.761 9.428 2.761 9.428-9.428-2.762zM82.265 140l-9.428 2.761 2.761-9.428-2.761-9.428 9.428 2.762 9.428-2.762-2.761 9.428 2.761 9.428L82.265 140zm91.068-91.068l-9.428 2.761 2.762-9.428-2.762-9.428 9.428 2.761 9.428-2.761L180 42.265l2.761 9.428-9.428-2.761zm-66.666 115.47l-9.428 2.761 2.761-9.428-2.761-9.428 9.428 2.761 9.428-2.761-2.762 9.428 2.762 9.428-9.428-2.761zM197.735 140l-9.428 2.761 2.761-9.428-2.761-9.428 9.428 2.762 9.428-2.762-2.761 9.428 2.761 9.428-9.428-2.761zM82.265 73.333l-9.428 2.762 2.761-9.428-2.761-9.428L82.265 60l9.428-2.761-2.761 9.428 2.761 9.428-9.428-2.762zm91.068 91.069l-9.428 2.761 2.762-9.428-2.762-9.428 9.428 2.761 9.428-2.761-2.761 9.428 2.761 9.428-9.428-2.761zm-66.666-115.47l-9.428 2.761L100 42.265l-2.761-9.428 9.428 2.761 9.428-2.761-2.762 9.428 2.762 9.428-9.428-2.761z" fill="#FFD429" mask="url(#b)"/></g></svg>