<svg width="280" height="200" viewBox="0 0 280 200" xmlns="http://www.w3.org/2000/svg" xmlns:xlink="http://www.w3.org/1999/xlink"><title>FJ</title><defs><rect id="a" width="280" height="200" rx="2"/><linearGradient x1="50%" y1="0%" x2="50%" y2="100%" id="c"><stop stop-color="#042C90" offset="0%"/><stop stop-color="#00247E" offset="100%"/></linearGradient><path d="M0 46.667V0h66.667v46.667c0 33.333-33.334 46.666-33.334 46.666S0 80 0 46.667z" id="d"/><path d="M46.667 40L0 0h6.667l46.666 33.333h13.334L120 0v6.327a.727.727 0 0 1-.274.535L73.333 40v13.333l46.416 39.785c.139.119.112.215-.089.215h-5.987c-.188 0-.457-.084-.614-.195L66.667 60H53.333L0 93.333v-6.666l46.667-33.334V40z" id="f"/><linearGradient x1="50%" y1="0%" x2="50%" y2="100%" id="g"><stop stop-color="#FFF" offset="0%"/><stop stop-color="#F0F0F0" offset="100%"/></linearGradient></defs><g fill="none" fill-rule="evenodd"><mask id="b" fill="#fff"><use xlink:href="#a"/></mask><use fill="#FFF" xlink:href="#a"/><path fill="#79CFF6" mask="url(#b)" d="M0 0h280v200H0z"/><path fill="url(#c)" mask="url(#b)" d="M0 0h120v93.333H0z"/><g transform="translate(173.333 53.333)" mask="url(#b)"><mask id="e" fill="#fff"><use xlink:href="#d"/></mask><use fill="#FFF" xlink:href="#d"/><path d="M13.333 33.333a6.667 6.667 0 1 1 0-13.333 6.667 6.667 0 0 1 0 13.333zm40 0a6.667 6.667 0 1 1 0-13.333 6.667 6.667 0 0 1 0 13.333z" fill="#2A915C" mask="url(#e)"/><path fill="#EB1D43" mask="url(#e)" d="M0 0h66.667v13.333H40V40h26.667v13.333H40v40H26.667v-40H0V40h26.667V13.333H0z"/></g><g mask="url(#b)"><use fill="#DB1E36" xlink:href="#f"/><path stroke="#FFF" stroke-width=".667" d="M53.44 33l.087.062-.194-.062h.107zm-7.107 7.153L-.9-.333h7.568l.193.062L53.44 33h13.131L120.333-.601v6.928c0 .297-.17.633-.413.807L73.667 40.172V53.18l46.299 39.685c.377.323.2.802-.306.802h-5.987a1.54 1.54 0 0 1-.807-.258L66.56 60.333H53.429L-.333 93.935v-7.44l46.666-33.333V40.153z"/></g><path d="M0 33.333V60h46.667v39.34c0 .364.3.66.659.66h25.348c.364 0 .66-.299.66-.66V60h52.658a.67.67 0 0 0 .675-.66V33.994c0-.365-.3-.66-.675-.66H73.333V0H46.667v33.333H0z" fill="url(#g)" mask="url(#b)"/><path fill="#DB1E36" mask="url(#b)" d="M0 40h53.333V0h13.334v40H120v13.333H66.667v40H53.333v-40H0z"/></g></svg>