<svg width="280" height="200" viewBox="0 0 280 200" xmlns="http://www.w3.org/2000/svg" xmlns:xlink="http://www.w3.org/1999/xlink"><title>FK</title><defs><rect id="a" width="280" height="200" rx="2"/><path d="M0 46.667V1.333C0 .597.597 0 1.332 0h64.003c.735 0 1.332.595 1.332 1.333v45.334c0 33.333-33.334 46.666-33.334 46.666S0 80 0 46.667z" id="c"/><path d="M0 46.667V1.333C0 .597.597 0 1.332 0h64.003c.735 0 1.332.595 1.332 1.333v45.334c0 33.333-33.334 46.666-33.334 46.666S0 80 0 46.667z" id="e"/><path d="M46.667 40L0 0h6.667l46.666 33.333h13.334L120 0v6.327a.727.727 0 0 1-.274.535L73.333 40v13.333l46.416 39.785c.139.119.112.215-.089.215h-5.987c-.188 0-.457-.084-.614-.195L66.667 60H53.333L0 93.333v-6.666l46.667-33.334V40z" id="f"/></defs><g fill="none" fill-rule="evenodd"><mask id="b" fill="#fff"><use xlink:href="#a"/></mask><use fill="#FFF" xlink:href="#a"/><path fill="#07319C" mask="url(#b)" d="M0 0h280v200H0z"/><g mask="url(#b)"><g transform="translate(173.333 53.333)"><mask id="d" fill="#fff"><use xlink:href="#c"/></mask><use fill="#0072C4" xlink:href="#c"/><path d="M15.358 39.344c-6.832 6.9 6.557 6.025 6.557 6.025l9.537-3.053s4.287.518 7.18 1.39c1.918.579 7.253 2.96 7.253 2.96s11.267-2.249 7.305-7.322c-3.961-5.074-31-6.901-37.832 0z" fill="#005121" mask="url(#d)"/><g mask="url(#d)"><path d="M43.766 32.175c.274-.062.914-.048 1.153.243.374.454 1.142.303 1.517.741.373.44.807.845.807 1.47 0 .624-.073 2.174-.06 2.514.02.524.11.606.65.592.65-.017 1.548-.068 1.576-1.232.02-.812-.788-1.318-1.024-4.205.354-.303.67-.574.551-.977-.118-.405.67-.609.591-1.217-.08-.607.787-.979.433-1.653-.354-.676.433-.709.119-1.25-.316-.54.51-1.013.157-1.484-.355-.474.472-.912.04-1.486-.435-.574.235-.912-.197-1.351.275-.438.038-1.688-.829-2.396-.865-.71-2.086-1.08-2.795-1.351-1.32-.503-3.78-.27-5.514-.068-1.734.202-4.963.405-5.948.27-.984-.134-3.307-.27-5.14.034-.626.104-1.339-.084-1.712-.438-.3-.283-.473-.253-.748-.236-.276.016-.434-.069-.572-.407-.243-.594-.787-.185-1.043-.928-.172-.497-1.065-.067-1.34-.489-.277-.421-.61-.472-1.36-.421-.038-.254-.451-.44-.826-.373.06-.421-.354-.759-1.043-.742.078-.524-.886-.929-1.38-.607-.313-.389-.945-.305-1.102 0-.334-.389-1.398-.27-1.654.15-.452-.252-1.332.369-1.26 1.352.02.27.037.551-.414.641-.846.169-1.338 1.114-2.069 1.248-.727.136-1.456.372-1.594.778-.137.405.119.827-.157 1.03-.275.203.177.388.314.488.138.102.354.27.394.507.057.335.61.435 1.183.067.235-.15.649.305 1.318-.016.67-.32 1.62-.151 1.458.372-.079.252.098.523.315.776.217.252.541 1.016.355 1.451-.276.641.275.997.137 1.57-.137.575.079 1.098-.216 1.874-.296.776-.3 1.747.138 2.025.61.389.241 1.158.767 1.486.433.27.178.928.985 1.13.808.203.335.743 1.181.861.848.118 1.142.726 2.028.59.654-.098.997.06 1.378.21.079.541-.096 2.526-.136 3.032-.036.449-.276 1.164-.276 1.604 0 .27.551.337 1.182.337.629 0 .906-.253.747-.961-.157-.71-.195-2.439-.155-3.52.546.264 1.066.632 1.043 1.038-.04.658-.03 1.839-.14 2.447-.077.44.04 1.132.08 1.588.04.167 1.102.15 1.537 0 .432-.153.432-.558.392-2.398-.02-.91-.985-1.841.237-2.296.591-.22 1.418-.726 1.734-1.197.314-.474 1.004-.289 1.496-.051.492.236 1.28.597 1.773.438.63-.202 1.3.304 1.85 0 .552-.303 1.261.22 1.713-.151.453-.372 1.242-.018 1.576-.372.335-.354 1.713.203 2.206-.27.492-.473 1.162.135 1.615-.219.119-.094.26-.114.413-.103-.017.799-.167 2.07-.197 2.466-.035.45-.275 1.163-.275 1.603 0 .27.551.337 1.18.337.632 0 .907-.252.75-.96-.158-.71.068-2.453.107-3.535" fill="#A3A3A3"/><path d="M11.9 19.867c.263-.192.019-.59.15-.974.132-.383.83-.606 1.528-.733.698-.128 1.169-1.021 1.98-1.181.433-.085.415-.35.396-.606-.068-.928.773-1.515 1.207-1.275.245-.4 1.264-.511 1.584-.144.151-.287.754-.367 1.056 0 .472-.303 1.396.08 1.32.574.661-.016 1.057.303 1 .702.359-.064.755.112.793.35-.06.393.836.493.42.747-.362.222-.707.135-1.12-.169-.414-.305-1.793-.034-1.99.118-.197.153-.414.22-.572.102-.157-.118-.53-.305-.708-.287-.178.016-.551.016-.77-.338-.215-.354-.767-.405-.864-.27-.098.134.216.624.531.81.315.186.158.54.532.743.245.133.02.59-.118.86-.138.271-.67.186-.71-.016-.038-.202-.178-.338-.492-.034-.315.304-.983.22-1.142.136-.157-.085-.591-.237-.886-.153-.296.085.138.22.178.338.038.118-.474.169-.769.169-.295 0-.394.167-.216.202.178.034.865.068 1.142-.068.276-.134 1.121 0 1.201.254.079.253-.491.355-.828.32-.494-.05-1.22.22-1.574.304-.355.085-1.3-.135-1.675-.033-.373.1-.742-.297-.585-.448" fill="#A3A3A3"/><path d="M18.234 21.935c-.354.135-.235.54.08.709.316.169 1.024.236 1.477.152.452-.085.551.051.256.22-.296.167.452.202.393.472-.058.27.276.219.591.202.316-.016.729-.22 1.083-.405.354-.185.61-.05.276.27-.334.32-1.457.727-2.343.676-.887-.05-1.36.151-1.163.438.197.287 1.143.338 1.635.186.493-.152.414.119.04.303-.375.187-.907.203-1.359.187-.453-.017-.847.372-.256.59.59.22 1.379.085 1.674.27.296.186 1.201-.1 1.22.22.02.32-.256.438-.788.405-.531-.034-.374.206.021.337.354.12.985.12 1.319.085.334-.033.237.304-.098.422-.335.118-1.418.287-1.95.27-.532-.016-.277.321.414.321 2.106 0 2.816-.996 3.348-1.688.26-.34.767-.524.886-.32.118.201.137.252-.098.421-.237.169-.18.27.255.287.432.017 1.063-.102 1.438-.202.374-.101 1.476.537.57.556-1.595.035-3.564.609-4.213.845-.65.236-1.735.68-2.403.658-.492-.017-.69.168-.492.388.196.22.827.22 1.181.118.354-.101.433 0 .197.202-.235.203-.826.287-1.241.356-.412.067-.617.331-.295.438.61.203.06.388.493.49.433.102-.04.422.433.523.472.102.748.05 1.102-.185.356-.236.551-.372.926-.338.375.034.631-.136.847-.389.217-.252.946-.708 1.181-.488.237.22.729-.187.828.033.098.22.511.085.61.388.109.338.571.405.887.287a.86.86 0 0 0 .57-.828c0-.421.118-.59.237-.134.117.455.551.59.767.372.217-.22.295-.98.138-1.334-.157-.355-.178-.811-.02-.895.158-.084.533.692.69 1.03.158.338.57.236.59-.102.02-.337.395-.506.67-.252.276.252.119 1.097.198 1.502.078.405.845-.102.925.033.079.136.374.169.492-.118.119-.287.394-.54.551-.371.159.169.395.456.492.776.1.321.454.49.67.152.216-.338.375-.995.296-1.453-.08-.454.06-.741.255-.505.197.236.178.878.197 1.4.02.524.67.474.67-.303 0-.354.197-.421.256-.22.06.204.06.542.119.693.145.374.65.169.708-.084.059-.254-.039-1.166-.157-1.57-.119-.406.118-.692.315-.473.197.22.236.793.276 1.435.038.64.452.675.67.49.216-.187.216-.727.118-1.115-.1-.388.216-.388.354-.151.138.236.375.083.335-.102-.039-.185.157-.354.354-.101.197.253.138.827.04 1.282-.1.457.492.405.767.018.276-.389.138-1.452-.098-1.79-.237-.337-.216-.777-.08-1.164.14-.388.396-.406.415-.236.02.168.138.455.354.674.217.22.335.254.374-.085.04-.336.237-.253.315 0 .08.254.217.456.414.238.197-.22.453-.051.296.287-.159.337-.159.64-.04.979.118.337.532.287.572-.102.081-.808.197-.27.295.084.097.355.394.338.453.136.06-.203.118-.253.118-.035 0 .22.098.406.354.406.257 0 .198-.439.315-.709.118-.27.334.102.63.725.295.625.512.034 1.202 1.453.282.578.689.084.67-.118-.021-.203.038-.338.373-.338s.61-.067.493-.287c-.118-.22-.04-.625-.059-1.08-.02-.457.039-.71.098-.457.06.253.256.609.57.794.316.185.532-.321.276-.641-.255-.321-.609-1.08-.59-1.722.015-.472.236-.321.236.016 0 .338.197.946.493 1.081.295.135.413-.49.276-.81-.138-.321-.217-.76.078-.845.295-.083-.078-.438-.335-.692-.256-.252-.413-.505.04-.489.452.017.079-.27-.139-.455-.216-.186-.59-.558 0-.507.591.05.396-.253.159-.422-.237-.169-.375-.49.038-.472.415.016.67-.187.631-.338-.15-.585-1.142-1.266-1.752-1.789-.61-.523-1.596-1.046-2.128-1.131-.532-.086-.55.254-.413.455.138.202.413.338.453.135.039-.202.452.018.65.287.196.27.866.608 1.28.912.414.303-.552.152-1.025-.253-.27-.232-.237.05.119.37.354.322-.1.457-.473.186a68.244 68.244 0 0 1-1.95-1.518c-.61-.49-.709-.371-.728-.051-.02.321.197.54.591.81.394.27.886.692 1.26.979.374.287.06.472-.177.27-.237-.203-1.043-.759-1.516-1.148-.474-.388-.906-.573-1.201-.523-.296.051-.276.338.078.642.355.303.789.877.789 1.215 0 .338-.316.574-.474-.033-.158-.608-.906-1.317-1.457-1.858-.55-.54-1.103-.641-1.517-.607-.413.033-.394.438-.394.76 0 .32-.275.134-.295-.102-.019-.236-.335-.438-.512-.422-.177.017-.117.507-.177.727-.059.218-.334.421-.334-.086 0-.506-.65-.759-.926-.777-.276-.016-.532.085-.394.305.137.219.078.81-.02 1.148-.099.337-.394-.254-.453-.879-.06-.623-.984-1.063-1.634-.877-.65.187-.157.59-.276.979-.118.388-.296.034-.355-.37-.058-.406-.374-.66-.806-.558-.434.101-.729.303-.71.574.02.27.02.506-.078.944-.1.44-.276.22-.257-.067.021-.287-.078-.76-.177-1.03-.098-.269-.257-.016-.217.322.04.337-.059 1.113-.216 1.587-.157.472-.394.489-.275-.153.118-.64-.178-1.587-.473-2.025-.212-.314-.689-.422-.689.017s.138.759.492 1.08c.354.32.078 1.114-.276 1.537-.355.421-.334-.187-.216-.643.117-.456-.532-.607-.788-.692-.256-.084.275-.54.394-1.148.058-.3-.02-.489-.256-.507-.237-.016-.867.558-1.143.98.079-.439 0-.827-.237-.827-.235 0-.491.423-.668.726-.178.304-.355.135-.178-.185.178-.321.452-1.182.098-1.368-.354-.185-.67.574-1.043.438-.212-.076.079-.556.197-.776.117-.22-.118-.388-.65.017-.532.406-.767 1.064-.907 1.47-.136.404-1.081 1.062-1.594 1.416-.512.355-.729.22-.472.068.256-.152.767-.624 1.023-.81.257-.186.138-.295-.354.025-.492.321-1.388.904-2.305 1.106-.538.12-.61.018-.078-.135.531-.152 1.752-.878 2.048-1.215.186-.212-.296-.034-.531.017-.236.05-.433-.017.04-.186.47-.169 1.968-1.502 2.284-1.992.314-.49.039-.676-.158-.658-.198.016-.473.135-.414-.067.06-.204-.078-.474-.335-.389-.256.084-.235.574-.334.843-.098.27-.65.626-1.005.626-.354 0-.846.068-1.22.32-.375.253-.552.017-.375-.185.177-.203.571-.254.965-.27.395-.017.827-.068 1.162-.39.335-.32.354-.573.1-.59-.257-.016-.691-.303-.829-.421-.7-.6-1.98.236-2.481.725-.276.27-1.221 1.047-1.516 1.25-.296.201-.178.488.314.101.493-.389.65-.118.199.169-.455.287-.789.708-.631.86.157.152.767-.033 1.102-.219.335-.185.493.27-.335.422-.556.103-.75.298-.314.321.335.016.846-.118 1.32-.354.471-.238.846-.102.452.134-.394.236-1.261.558-1.694.558-.363 0 .06.456-.296.59z" fill="#FFF"/><path d="M20.362 17.774c.178-.132.332-.19.494-.095.147.086.163.123-.022.095-.184-.029-.31 0-.42.085-.11.085-.236.052-.052-.085M12.667 18.7c.115-.095.3-.095.382-.2.083-.103.173-.065.07.034-.101.1-.299.118-.382.19-.083.07-.127.023-.07-.025M14.84 17.428c.13-.008.386-.075.543-.156.157-.08.495-.109.7-.014.205.095.314.128.423.147.108.019.108.08-.061.099-.17.019-.398.033-.519.01a1.715 1.715 0 0 0-.447-.029c-.145.014-.205-.014-.084-.038.12-.023.265-.094.338-.123.072-.028.265-.005.157.024-.11.028-.061.09.048.113.109.024.326.024.422-.019a4.226 4.226 0 0 0-.482-.165.403.403 0 0 0-.303.024c-.12.056-.41.193-.687.189-.278-.005-.206-.053-.048-.062M27.122 21.149a.462.462 0 0 0-.105.215c-.006.066.061.111.07.028.009-.083.017-.132.09-.194.073-.061.003-.123-.055-.05M24.882 20.84a.734.734 0 0 0 .213-.121c.05-.047.082-.017.032.035a.622.622 0 0 1-.216.128c-.052.014-.093-.019-.029-.043M24.274 22.161c-.195.18-.96.605-1.19.685-.23.08-.15.196.108.134-.19.115-.61.302-.879.355-.27.053-.326.213.08.116.406-.098.974-.356 1.123-.471.15-.116-.04-.17.19-.294.23-.124.655-.352.716-.445.095-.141-.013-.204-.148-.08M23.933 23.979c.16-.07.458-.32.544-.463.052-.086.157-.075.075.058s-.388.37-.493.433c-.104.064-.298.046-.126-.028M32.923 20.863a.757.757 0 0 0-.03.323c.012.082.082.143.07.02-.01-.123-.01-.246.03-.281.04-.037-.012-.185-.07-.062M35.344 21.8c.06.068.088.39.082.509-.006.12.094.12.087-.05-.005-.17-.017-.384-.07-.497-.052-.114-.18-.057-.099.037M37.483 22.322a.624.624 0 0 1 .082.264c0 .085.076.047.082-.052a.422.422 0 0 0-.053-.25c-.04-.065-.163-.051-.11.038M38.497 21.908c-.032-.072-.082-.137-.117-.128-.035.01-.012.076.035.147.046.071.117.061.082-.019M29.773 23.997c-.018.31-.136.584-.279.68-.142.096-.118.25.056.096.174-.155.304-.421.342-.658.036-.236-.106-.325-.119-.118M29.334 23.782c-.07.065-.11.206-.11.313 0 .107.046.028.058-.033.012-.06.035-.145.094-.173.058-.028.029-.172-.042-.107M46.469 24.2c.061.115.152.301.18.409.03.108-.04.136-.063.04a2.406 2.406 0 0 0-.176-.387c-.04-.073-.011-.193.059-.062" fill="#A3A3A3"/></g><path d="M-13.333 40s22.679 6.738 26.507 6.738c1.076 0 15.766-3.369 20.17-3.369 1.647 0 16.853 2.308 20.823 3.369C58.137 47.799 80.021 40 80.021 40M-13.333 53.333s22.679 6.738 26.507 6.738c1.076 0 15.766-3.369 20.17-3.369 1.647 0 16.853 2.308 20.823 3.37 3.97 1.06 25.854-6.739 25.854-6.739" stroke="#FFF" stroke-width=".667" stroke-linecap="round" stroke-linejoin="round" mask="url(#d)"/><path d="M-13.333 80s22.679 6.738 26.507 6.738c1.076 0 9.833-5.452 20.17-5.452 10.337 0 16.853 4.39 20.823 5.452C58.137 87.799 80.021 80 80.021 80l71.773 11.48" stroke="#FFF" stroke-width="1.333" stroke-linecap="round" stroke-linejoin="round" mask="url(#d)"/></g><path stroke="#FFF" stroke-width=".667" d="M206.666 146.306l.242-.103c.302-.131.653-.29 1.048-.476a56.761 56.761 0 0 0 3.754-1.955 64.922 64.922 0 0 0 11.4-8.187c10.351-9.316 16.556-21.105 16.556-35.585V54.666c0-.553-.446-1-.998-1h-64.003a1 1 0 0 0-.999 1V100c0 14.48 6.205 26.27 16.557 35.585a64.922 64.922 0 0 0 11.4 8.187c1.36.77 2.621 1.421 3.753 1.955a36.72 36.72 0 0 0 1.29.579z"/></g><g mask="url(#b)"><use fill="#DB1E36" xlink:href="#f"/><path stroke="#FFF" stroke-width=".667" d="M46.333 40.153L-.9-.333h7.568l.193.062L53.44 33h13.131L120.333-.601v6.928c0 .297-.17.633-.413.807L73.667 40.172V53.18l46.299 39.685c.377.323.2.802-.306.802h-5.987c-.259 0-.596-.107-.807-.258L66.56 60.333H53.429L-.333 93.935v-7.44l46.666-33.333V40.153z"/></g><path d="M0 33.333V60h46.667v39.34c0 .364.3.66.659.66h25.348c.364 0 .66-.299.66-.66V60h52.658a.67.67 0 0 0 .675-.66V33.994c0-.365-.3-.66-.675-.66H73.333V0H46.667v33.333H0z" fill="#FFF" mask="url(#b)"/><path fill="#DB1E36" mask="url(#b)" d="M0 40h53.333V0h13.334v40H120v13.333H66.667v40H53.333v-40H0z"/></g></svg>