<svg width="280" height="200" viewBox="0 0 280 200" xmlns="http://www.w3.org/2000/svg" xmlns:xlink="http://www.w3.org/1999/xlink"><title>FM</title><defs><rect id="a" width="280" height="200" rx="2"/></defs><g fill="none" fill-rule="evenodd"><mask id="b" fill="#fff"><use xlink:href="#a"/></mask><use fill="#FFF" xlink:href="#a"/><path fill="#95CEF5" mask="url(#b)" d="M0 0h280v200H0z"/><path d="M140 57.6l-15.674 10.64 5.276-18.195-14.964-11.619 18.936-.605L140 20l6.426 17.821 18.936.605-14.964 11.62 5.276 18.194L140 57.6zm0 106.667l-15.674 10.64 5.276-18.195-14.964-11.62 18.936-.604L140 126.667l6.426 17.821 18.936.605-14.964 11.619 5.276 18.195L140 164.267zm53.333-53.334l-15.674 10.64 5.276-18.194-14.963-11.62 18.935-.604 6.426-17.822 6.427 17.822 18.935.605-14.963 11.619 5.276 18.195-15.675-10.64zm-106.666 0l-15.675 10.64 5.276-18.194-14.963-11.62 18.935-.604 6.427-17.822 6.426 17.822 18.935.605-14.963 11.619 5.276 18.195-15.674-10.64z" fill="#FFF" mask="url(#b)"/></g></svg>