<svg width="280" height="200" viewBox="0 0 280 200" xmlns="http://www.w3.org/2000/svg" xmlns:xlink="http://www.w3.org/1999/xlink"><title>GB</title><defs><rect id="a" width="280" height="200" rx="2"/></defs><g fill="none" fill-rule="evenodd"><mask id="b" fill="#fff"><use xlink:href="#a"/></mask><use fill="#FFF" xlink:href="#a"/><path fill="#0A17A7" mask="url(#b)" d="M0 0h280v200H0z"/><path d="M66.737 133.333H0V66.667h66.737L-27.737 2.943l14.912-22.107 119.492 80.597v-74.766h66.666v74.766l119.492-80.597 14.912 22.107-94.474 63.724H280v66.666h-66.737l94.474 63.724-14.912 22.107-119.492-80.597v74.766h-66.666v-74.766l-119.492 80.597-14.912-22.107 94.474-63.724z" fill="#FFF" mask="url(#b)"/><path d="M186.68 63.322L313.333-20" stroke="#DB1F35" stroke-width=".667" stroke-linecap="round" mask="url(#b)"/><path d="M200.128 213.503l113.538-76.528" stroke="#DB1F35" stroke-width=".667" stroke-linecap="round" mask="url(#b)" transform="matrix(1 0 0 -1 0 350.479)"/><path d="M80.055 63.105L-38.375-16.71" stroke="#DB1F35" stroke-width=".667" stroke-linecap="round" mask="url(#b)"/><path d="M92.9 223.105l-131.275-87.056" stroke="#DB1F35" stroke-width=".667" stroke-linecap="round" mask="url(#b)" transform="matrix(1 0 0 -1 0 359.154)"/><path fill="#E6273E" mask="url(#b)" d="M0 120h120v80h40v-80h120V80H160V0h-40v80H0z"/></g></svg>