<svg width="280" height="200" viewBox="0 0 280 200" xmlns="http://www.w3.org/2000/svg" xmlns:xlink="http://www.w3.org/1999/xlink"><title>GD</title><defs><rect id="a" width="280" height="200" rx="2"/><path id="c" d="M0 0h226.667v146.667H0z"/><linearGradient x1="50%" y1="0%" x2="50%" y2="100%" id="e"><stop stop-color="#E21C30" offset="0%"/><stop stop-color="#CE1225" offset="100%"/></linearGradient></defs><g fill="none" fill-rule="evenodd"><mask id="b" fill="#fff"><use xlink:href="#a"/></mask><use fill="#FFF" xlink:href="#a"/><path fill="#E42235" mask="url(#b)" d="M0 0h280v200H0z"/><g transform="translate(26.667 26.667)" mask="url(#b)"><mask id="d" fill="#fff"><use xlink:href="#c"/></mask><use fill="#079B77" xlink:href="#c"/><path d="M17.265 74.651c3.775 6.042 9.195 10.03 14.243 11.053 2.779.563-2.31-12.182-.092-13.567 1.892-1.183 10.995 9.416 11.792 7.205 1.834-5.088.752-12.292-3.328-18.822-5.854-9.367-6.082-3.185-21.906-9.895 1.654 9.597-6.562 14.66-.709 24.026z" fill="#FFD938" mask="url(#d)"/><path d="M0 0h226.667L113.333 73.333 0 0zm0 146.667l113.333-73.334 113.334 73.334H0z" fill="#FFD93B" mask="url(#d)"/><circle fill="url(#e)" mask="url(#d)" cx="113.333" cy="73.333" r="33.333"/><path fill="#FFD938" mask="url(#d)" d="M113.333 83.617L97.66 94.907l5.894-18.396-15.581-11.418 19.317-.08 6.044-18.346 6.045 18.346 19.317.08-15.581 11.418 5.894 18.396z"/></g></g></svg>