<svg width="280" height="200" viewBox="0 0 280 200" xmlns="http://www.w3.org/2000/svg" xmlns:xlink="http://www.w3.org/1999/xlink"><title>GE</title><defs><rect id="a" width="280" height="200" rx="2"/></defs><g fill="none" fill-rule="evenodd"><mask id="b" fill="#fff"><use xlink:href="#a"/></mask><use fill="#FFF" xlink:href="#a"/><rect stroke="#F5F5F5" stroke-width=".5" x=".25" y=".25" width="279.5" height="199.5" rx="2"/><path d="M120 80H-13.333v40H120v93.333h40V120h133.333V80H160v-93.333h-40V80z" fill="#FF2B37" mask="url(#b)"/><path d="M216 36l-2.667-16h13.334L224 36l16-2.667v13.334L224 44l2.667 16h-13.334L216 44l-16 2.667V33.333L216 36zM56 36l-2.667-16h13.334L64 36l16-2.667v13.334L64 44l2.667 16H53.333L56 44l-16 2.667V33.333L56 36zm0 120l-2.667-16h13.334L64 156l16-2.667v13.334L64 164l2.667 16H53.333L56 164l-16 2.667v-13.334L56 156zm160 0l-2.667-16h13.334L224 156l16-2.667v13.334L224 164l2.667 16h-13.334L216 164l-16 2.667v-13.334L216 156z" fill="#FD0D1B" mask="url(#b)"/></g></svg>