<svg width="280" height="200" viewBox="0 0 280 200" xmlns="http://www.w3.org/2000/svg" xmlns:xlink="http://www.w3.org/1999/xlink"><title>GQ</title><defs><rect id="a" width="280" height="200" rx="2"/></defs><g fill="none" fill-rule="evenodd"><mask id="b" fill="#fff"><use xlink:href="#a"/></mask><use fill="#FFF" xlink:href="#a"/><rect stroke="#F5F5F5" stroke-width=".5" x=".25" y=".25" width="279.5" height="199.5" rx="2"/><path fill="#EC3938" mask="url(#b)" d="M0 133.333h280V200H0z"/><path fill="#51B422" mask="url(#b)" d="M0 0h280v66.667H0z"/><path d="M136.303 116.906a.96.96 0 0 0 .232-.57l.13-22.673a.324.324 0 0 0-.331-.33h-9.335c-.183 0-.233-.1-.1-.231l12.87-12.87a.324.324 0 0 1 .462 0l12.87 12.87c.129.128.091.231-.1.231h-9.335a.332.332 0 0 0-.333.33v22.674c0 .182.111.44.24.57l2.854 2.853c.132.133.09.24-.09.24h-12.674c-.182 0-.223-.11-.1-.24l2.74-2.854z" fill="#159940" mask="url(#b)"/><path fill="#258DE7" mask="url(#b)" d="M0 0l93.333 100L0 200z"/></g></svg>