<svg width="280" height="200" viewBox="0 0 280 200" xmlns="http://www.w3.org/2000/svg" xmlns:xlink="http://www.w3.org/1999/xlink"><title>HK</title><defs><rect id="a" width="280" height="200" rx="2"/></defs><g fill="none" fill-rule="evenodd"><mask id="b" fill="#fff"><use xlink:href="#a"/></mask><use fill="#FFF" xlink:href="#a"/><path fill="#F0371D" mask="url(#b)" d="M0 0h280v200H0z"/><path d="M160 95.872c-10.64-6.667-13.333 5.446-13.333 0 0-11.046 11.939-20 26.666-20 14.728 0 26.667 8.954 26.667 20-12.651 0-13.915 6.666-20 6.666-7.465 0-9.36 0-20-6.666zm16.667-2.539a3.333 3.333 0 1 0 0-6.666 3.333 3.333 0 0 0 0 6.666zM152.52 119.5c3.052-12.179-9.3-10.997-4.12-12.68 10.505-3.414 22.71 5.174 27.261 19.18 4.551 14.008-.276 28.13-10.78 31.543-3.91-12.032-10.641-11.174-12.521-16.961-2.307-7.1-2.893-8.903.16-21.082zm7.564 15.067a3.333 3.333 0 1 0 6.34-2.06 3.333 3.333 0 0 0-6.34 2.06zm-32.347-14.878c12.526-.86 7.586-12.244 10.787-7.838 6.493 8.937 2.097 23.198-9.818 31.855s-26.837 8.43-33.33-.506c10.236-7.436 7.34-13.573 12.262-17.15 6.04-4.387 7.573-5.501 20.1-6.361zm-11.991 11.85a3.333 3.333 0 1 0 3.918 5.393 3.333 3.333 0 0 0-3.918-5.393zm4.154-35.362c4.69 11.647 13.988 3.43 10.787 7.837-6.493 8.936-21.415 9.163-33.33.506-11.914-8.656-16.31-22.918-9.818-31.854 10.236 7.436 15.177 2.785 20.1 6.362 6.039 4.388 7.572 5.502 12.261 17.15zm-14.976-7.743a3.333 3.333 0 1 0-3.918 5.394 3.333 3.333 0 0 0 3.918-5.394zm34.915-6.976c-9.628 8.059 1.06 14.364-4.12 12.68-10.505-3.412-15.332-17.534-10.78-31.54 4.55-14.008 16.756-22.595 27.26-19.182-3.909 12.032 2.041 15.294.16 21.081-2.306 7.1-2.892 8.902-12.52 16.961zm2.736-16.635a3.333 3.333 0 1 0-6.34-2.06 3.333 3.333 0 0 0 6.34 2.06z" fill="#FFF" mask="url(#b)"/></g></svg>