<svg width="280" height="200" viewBox="0 0 280 200" xmlns="http://www.w3.org/2000/svg" xmlns:xlink="http://www.w3.org/1999/xlink"><title>HN</title><defs><rect id="a" width="280" height="200" rx="2"/></defs><g fill="none" fill-rule="evenodd"><mask id="b" fill="#fff"><use xlink:href="#a"/></mask><use fill="#FFF" xlink:href="#a"/><rect stroke="#F5F5F5" stroke-width=".5" x=".25" y=".25" width="279.5" height="199.5" rx="2"/><path fill="#0884E6" mask="url(#b)" d="M0 0h280v66.667H0zm0 133.333h280V200H0z"/><path fill="#0E88E9" mask="url(#b)" d="M140 106.667l-9.428 2.761 2.761-9.428-2.761-9.428L140 93.333l9.428-2.761-2.761 9.428 2.761 9.428zm53.333-13.334l-9.428 2.762 2.762-9.428-2.762-9.428L193.333 80l9.428-2.761L200 86.667l2.761 9.428zm0 26.667l-9.428 2.761 2.762-9.428-2.762-9.428 9.428 2.762 9.428-2.762-2.761 9.428 2.761 9.428zm-106.666 0l-9.428 2.761L80 113.333l-2.761-9.428 9.428 2.762 9.428-2.762-2.762 9.428 2.762 9.428zm0-26.667l-9.428 2.762L80 86.667l-2.761-9.428L86.667 80l9.428-2.761-2.762 9.428 2.762 9.428z"/></g></svg>