<svg width="280" height="200" viewBox="0 0 280 200" xmlns="http://www.w3.org/2000/svg" xmlns:xlink="http://www.w3.org/1999/xlink"><title>HR</title><defs><rect id="a" width="280" height="200" rx="2"/><linearGradient x1="50%" y1="0%" x2="50%" y2="100%" id="c"><stop stop-color="#FF212E" offset="0%"/><stop stop-color="#FD0D1B" offset="100%"/></linearGradient></defs><g fill="none" fill-rule="evenodd"><mask id="b" fill="#fff"><use xlink:href="#a"/></mask><use fill="#FFF" xlink:href="#a"/><rect stroke="#F5F5F5" stroke-width=".5" x=".25" y=".25" width="279.5" height="199.5" rx="2"/><path fill="#FF202D" mask="url(#b)" d="M0 0h280v66.667H0z"/><path d="M106.667 53.333l6.666-6.666L120 53.333v13.334h-13.333V53.333zm26.666 0L140 46.667l6.667 6.666v13.334h-13.334V53.333zm26.667 0l6.667-6.666 6.666 6.666v13.334H160V53.333z" fill="#1895DB" opacity=".5" mask="url(#b)"/><path d="M120 53.333l6.667-6.666 6.666 6.666v13.334H120V53.333zm26.667 0l6.666-6.666L160 53.333v13.334h-13.333V53.333z" fill="#191F94" opacity=".5" mask="url(#b)"/><path fill="#2027AC" mask="url(#b)" d="M0 133.333h280V200H0z"/><path d="M133.333 66.667h13.334V80h-13.334V66.667zm26.667 0h6.667L173.333 80H160V66.667zm-46.667 0H120V80h-13.333l6.666-13.333zM120 80h13.333v13.333H120V80zm26.667 0H160v13.333h-13.333V80zm-13.334 13.333h13.334v13.334h-13.334V93.333zm26.667 0h13.333v13.334H160V93.333zm-13.333 13.334H160V120h-13.333v-13.333zm-40-13.334H120v13.334h-13.333V93.333zM120 106.667h13.333V120H120v-13.333zM106.667 120H120v13.333h-13.333V120zm26.666 0h13.334v13.333h-13.334V120zM160 120h13.333v13.333H160V120zm-13.333 13.333H160v13.334h-13.333v-13.334zm-26.667 0h13.333v13.334H120v-13.334z" fill="url(#c)" mask="url(#b)"/></g></svg>