<svg width="280" height="200" viewBox="0 0 280 200" xmlns="http://www.w3.org/2000/svg" xmlns:xlink="http://www.w3.org/1999/xlink"><title>HT</title><defs><rect id="a" width="280" height="200" rx="2"/><linearGradient x1="50%" y1="0%" x2="50%" y2="100%" id="d"><stop stop-color="#FFF" offset="0%"/><stop stop-color="#F0F0F0" offset="100%"/></linearGradient><rect id="c" width="93.333" height="80" rx=".667"/><path d="M0 66.667l24.277-12.139c1.32-.66 3.587-1.195 5.06-1.195h34.659c1.475 0 3.732.531 5.06 1.195l24.277 12.139V80H0V66.667z" id="f"/><path d="M13.333 34c0-.369.231-.482.524-.248l32.286 25.83a.872.872 0 0 0 1.047 0l32.286-25.83c.29-.231.524-.12.524.247v32.002a.664.664 0 0 1-.66.666H13.993a.663.663 0 0 1-.66-.666V33.999z" id="g"/></defs><g fill="none" fill-rule="evenodd"><mask id="b" fill="#fff"><use xlink:href="#a"/></mask><use fill="#FFF" xlink:href="#a"/><path fill="#112EBC" mask="url(#b)" d="M0 0h280v93.333H0z"/><path fill="#E3264A" mask="url(#b)" d="M0 93.333h280V200H0z"/><g transform="translate(93.333 66.667)" mask="url(#b)"><mask id="e" fill="#fff"><use xlink:href="#c"/></mask><use fill="url(#d)" xlink:href="#c"/><g mask="url(#e)"><use fill="#AABCAE" xlink:href="#f"/><path stroke="#366C14" stroke-width=".667" d="M.333 66.873v12.794H93V66.873L68.908 54.826c-1.28-.639-3.486-1.16-4.912-1.16H29.338c-1.423 0-3.639.524-4.912 1.16L.333 66.873z"/></g><circle fill="#D4B872" mask="url(#e)" cx="46.667" cy="33.333" r="20"/><g mask="url(#e)"><use fill="#C28321" xlink:href="#g"/><path stroke="#0D3488" stroke-width=".667" d="M13.667 34.027V66a.33.33 0 0 0 .326.332H79.34a.33.33 0 0 0 .327-.332V34.027L47.398 59.84a1.203 1.203 0 0 1-1.463 0L13.667 34.027z"/></g><path d="M26.905 13.572c-.132-.132-.093-.239.095-.239h39.333c.184 0 .226.108.095.239L46.905 33.095a.338.338 0 0 1-.477 0L26.905 13.572z" fill="#216C30" mask="url(#e)"/></g></g></svg>