<svg width="269" height="200" viewBox="0 0 269 200" xmlns="http://www.w3.org/2000/svg" xmlns:xlink="http://www.w3.org/1999/xlink"><title>IM</title><defs><rect id="a" width="280" height="200" rx="2"/></defs><g fill="none" fill-rule="evenodd"><mask id="b" fill="#fff"><use xlink:href="#a"/></mask><use fill="#D01129" xlink:href="#a"/><g mask="url(#b)"><path d="M138.882 100.409c6.609 0 11.967-5.626 11.967-12.564 0-6.94-5.358-12.565-11.967-12.565-6.61 0-11.967 5.625-11.967 12.565 0 6.938 5.357 12.564 11.967 12.564" fill="#FFF101"/><path d="M138.882 100.409c6.609 0 11.967-5.626 11.967-12.564 0-6.94-5.358-12.565-11.967-12.565-6.61 0-11.967 5.625-11.967 12.565 0 6.938 5.357 12.564 11.967 12.564z"/><path d="M127.973 82.793c3.39-1.136 7.786.186 10.679 3.1 3.071-.587 6.15-4.636 7.105-8.24-1.049-11.98-8.512-21.055-10.782-27.282-.718-1.969-4.045-5.063-7.505-3.622-2.845 1.185-4.284.263-13.84 5.267-5.167 2.706-9.516 5.485-11.807 5.97-2.293.484-4.712.916-6.546-.593-2.522-2.074-5.35-2.648-7.017-4.211-2.041-1.916-3.35-3.362-4.731-3.948-1.38-.587-3.718.717-2.73 3.82 2.225 7.01 7.474 8.145 9.727 14.696 1.064 3.098 2.576 5.426 5.956 3.078 3.38-2.347 8.156-5.465 16.3-5.793 5.469-.222 11.12-2.333 13.717-5.797-.025 2.997.981 5.453.716 9.352a57.89 57.89 0 0 0 .758 14.203" fill="#FFF"/><path d="M127.973 82.793c3.39-1.136 7.786.186 10.679 3.1 3.071-.587 6.15-4.636 7.105-8.24-1.049-11.98-8.512-21.055-10.782-27.282-.718-1.969-4.045-5.063-7.505-3.622-2.845 1.185-4.284.263-13.84 5.267-5.167 2.706-9.516 5.485-11.807 5.97-2.293.484-4.712.916-6.546-.593-2.522-2.074-5.35-2.648-7.017-4.211-2.041-1.916-3.35-3.362-4.731-3.948-1.38-.587-3.718.717-2.73 3.82 2.225 7.01 7.474 8.145 9.727 14.696 1.064 3.098 2.576 5.426 5.956 3.078 3.38-2.347 8.156-5.465 16.3-5.793 5.469-.222 11.12-2.333 13.717-5.797-.025 2.997.981 5.453.716 9.352a57.89 57.89 0 0 0 .758 14.203zM93.17 55.963c-1.411-.72-2.958.885-3.853 4.756l3.853-4.757zm-1.819-.944c-1.35-.641-2.474-.31-4.156 3.431l4.156-3.431zm-2.705-1.514c-1.032-.815-2.365.363-3.032 2.12l3.032-2.12z"/><path d="M133.848 83.122c-.883-5.898.717-6.748-1.193-13.66-1.15-4.157-1.883-9.367-1.902-11.791l-.768.267c.019 2.424.754 7.635 1.902 11.792 1.848 6.683.411 7.699 1.114 13.092.217.053.673.226.847.3" fill="#FFF101"/><path d="M133.848 83.122c-.883-5.898.717-6.748-1.193-13.66-1.15-4.157-1.883-9.367-1.902-11.791l-.768.267c.019 2.424.754 7.635 1.902 11.792 1.848 6.683.411 7.699 1.114 13.092.217.053.673.226.847.3z"/><path d="M129.235 82.475c.007-.75-.038-1.533-.15-2.206 1.538-.388 4.17 1.103 4.096-.005-.022-.35.012-1.486.033-2.088-.034.94-3.694-.647-4.324-.237-.677-3.431.162-6.962-.375-9.116 1.222-.35 3.468.415 3.193-.59-.156-.516-.454-1.796-.65-2.598.191.84-1.592.145-2.196.624-.313-1.86-.771-5.39-.762-7.004l-1.6-.017c-.026 2.997.98 5.453.715 9.352a57.89 57.89 0 0 0 .758 14.203c.35-.108.929-.246 1.262-.318" fill="#FFF101"/><path d="M129.235 82.475c.007-.75-.038-1.533-.15-2.206 1.538-.388 4.17 1.103 4.096-.005-.022-.35.012-1.486.033-2.088-.034.94-3.694-.647-4.324-.237-.677-3.431.162-6.962-.375-9.116 1.222-.35 3.468.415 3.193-.59-.156-.516-.454-1.796-.65-2.598.191.84-1.592.145-2.196.624-.313-1.86-.771-5.39-.762-7.004l-1.6-.017c-.026 2.997.98 5.453.715 9.352a57.89 57.89 0 0 0 .758 14.203c.35-.108.929-.246 1.262-.318zm-12.02-32.299c-1.654.745.538 5.753 2.47 9.332l-2.47-9.332zm2.478 10.438c-.664.347-1.352.666-2.06.944l2.06-.944zm-12.319 2.751c-.53.146-1.04.304-1.536.475l1.536-.475z"/><path d="M125.192 55.08c-2.386 3.617-8.085 6.114-13.355 6.666-6.167.645-10.308 2.8-13.357 4.91-.262-.495-.735-.761-1.153-1.088-4.461-3.469-2.628-8.17-.938-7.498-.638-.26-1.008-.61-1.356-.872-.59-.46-2.29 1.299-2.078 4.09.091 1.19 1.06 2.943 1.85 3.873-1.44-.275-2.13-.662-2.976-1.735.475-.31 1.09-.487 1.587-.527-.17-.426-.405-.898-.46-1.61-.706-.007-1.565.251-2.303.777-1.77-1.85-3.592-3.327-4.648-5.512-1.69-3.5.029-5.709 2.255-3.372-2.041-1.916-3.35-3.362-4.731-3.948-1.38-.587-3.718.717-2.73 3.82 2.225 7.01 7.474 8.145 9.727 14.696 1.064 3.098 2.632 5.511 5.956 3.078.438-.32.555-.396.935-.68 1.055-.64 2.726.434 2.547 2.77.854-2.145.309-2.802-.416-4.087-.536.3-.492-1.456-.823-1.687 1.896-1.238 4.203-2.48 7.113-3.364.108 1.048.383 2.161 1.302 2 .493-.115.992-.22 1.518-.31-.92.16-1.178-1.058-1.284-2.105a30.42 30.42 0 0 1 4.539-.726 24.43 24.43 0 0 0 5.72-1.2c.274 1.005.843 2.7 1.79 2.367.84-.283 1.657-.602 2.423-.973-1.317.66-1.836-1.223-2.153-2.219 2.408-1.1 4.46-2.6 5.687-4.389l-.188-1.145" fill="#FFF101"/><path d="M125.192 55.08c-2.386 3.617-8.085 6.114-13.355 6.666-6.167.645-10.308 2.8-13.357 4.91-.262-.495-.735-.761-1.153-1.088-4.461-3.469-2.628-8.17-.938-7.498-.638-.26-1.008-.61-1.356-.872-.59-.46-2.29 1.299-2.078 4.09.091 1.19 1.06 2.943 1.85 3.873-1.44-.275-2.13-.662-2.976-1.735.475-.31 1.09-.487 1.587-.527-.17-.426-.405-.898-.46-1.61-.706-.007-1.565.251-2.303.777-1.77-1.85-3.592-3.327-4.648-5.512-1.69-3.5.029-5.709 2.255-3.372-2.041-1.916-3.35-3.362-4.731-3.948-1.38-.587-3.718.717-2.73 3.82 2.225 7.01 7.474 8.145 9.727 14.696 1.064 3.098 2.632 5.511 5.956 3.078.438-.32.555-.396.935-.68 1.055-.64 2.726.434 2.547 2.77.854-2.145.309-2.802-.416-4.087-.536.3-.492-1.456-.823-1.687 1.896-1.238 4.203-2.48 7.113-3.364.108 1.048.383 2.161 1.302 2 .493-.115.992-.22 1.518-.31-.92.16-1.178-1.058-1.284-2.105a30.42 30.42 0 0 1 4.539-.726 24.43 24.43 0 0 0 5.72-1.2c.274 1.005.843 2.7 1.79 2.367.84-.283 1.657-.602 2.423-.973-1.317.66-1.836-1.223-2.153-2.219 2.408-1.1 4.46-2.6 5.687-4.389l-.188-1.145z"/><path d="M135.732 56.876c1.162-.947 2.16-1.395 1.158-3.4-1.64-3.278-.622-3.289-4.213-5.375-3.659-2.12-3.196-2.287-8.037-.495-1.19.44-.925.89-.716 2.703.448 3.907 1.3 7.054 2.08 10.268 3.043-.417 7.725-2.068 9.728-3.701z" fill="#FFF101"/><path d="M124.376 55.988c-.639-1.918-.468-1.658 1.846-1.073.757-2.528 1.803-4.663 2.39-6.709.654-2.291.86-2.703 1.823-2.142a89.435 89.435 0 0 0 3.468 1.93c1.54.792 1.313 1.07.578 2.33s-3.14 3.813-4.623 6.477c1.956 1.446 2.584 1.577 1.194 2.2-1.555.696-4.139 1.558-5.227 1.762-.2-1.258-.842-2.956-1.45-4.775zM101.409 74.024l-.154 1.974-1.385-1.322-1.55 1.105.103-1.97-1.784-.566 1.524-1.147-.672-1.83 1.788.548.945-1.694.718 1.809 1.845-.292-.904 1.726 1.36 1.333-1.834.326" fill="#FFF101"/><path d="M101.409 74.024l-.154 1.974-1.385-1.322-1.55 1.105.103-1.97-1.784-.566 1.524-1.147-.672-1.83 1.788.548.945-1.694.718 1.809 1.845-.292-.904 1.726 1.36 1.333z"/><path d="M140.17 100.29c-2.632-2.515-3.74-7.173-2.782-11.261-2.02-2.498-6.9-3.275-10.35-2.34-9.357 6.944-13.11 18.268-17.113 23.446-1.265 1.636-2.154 6.208.766 8.634 2.4 1.994 2.36 3.763 11.264 9.95 4.815 3.346 9.282 5.911 10.828 7.753 1.547 1.842 3.111 3.826 2.784 6.247-.45 3.331.49 6.191.035 8.486-.56 2.813-1.098 4.728-.891 6.276.207 1.549 2.45 3.022 4.517.573 4.667-5.53 2.98-10.869 7.258-16.193 2.021-2.517 3.186-5.056-.44-6.956-3.626-1.898-8.586-4.684-12.93-11.923-2.915-4.862-7.482-8.947-11.64-9.575 2.486-1.474 4.01-3.619 7.358-5.327a52.31 52.31 0 0 0 11.336-7.79" fill="#FFF"/><path d="M140.17 100.29c-2.632-2.515-3.74-7.173-2.782-11.261-2.02-2.498-6.9-3.275-10.35-2.34-9.357 6.944-13.11 18.268-17.113 23.446-1.265 1.636-2.154 6.208.766 8.634 2.4 1.994 2.36 3.763 11.264 9.95 4.815 3.346 9.282 5.911 10.828 7.753 1.547 1.842 3.111 3.826 2.784 6.247-.45 3.331.49 6.191.035 8.486-.56 2.813-1.098 4.728-.891 6.276.207 1.549 2.45 3.022 4.517.573 4.667-5.53 2.98-10.869 7.258-16.193 2.021-2.517 3.186-5.056-.44-6.956-3.626-1.898-8.586-4.684-12.93-11.923-2.915-4.862-7.482-8.947-11.64-9.575 2.486-1.474 4.01-3.619 7.358-5.327a52.31 52.31 0 0 0 11.336-7.79zm-4.73 45.062c.113 1.641 2.21 2.246 5.85 1.124l-5.85-1.124zm.132 2.124c.144 1.547.98 2.405 4.908 2.063l-4.908-2.063zm.103 3.218c-.156 1.345 1.482 1.969 3.264 1.695l-3.264-1.695z"/><path d="M137.237 94.3c-4.361 3.861-5.974 2.63-10.588 8.063-2.774 3.268-6.654 6.633-8.644 7.863l.657.66c1.99-1.23 5.87-4.595 8.645-7.862 4.462-5.254 6.116-4.275 10.166-7.7-.08-.249-.198-.808-.236-1.024" fill="#FFF101"/><path d="M137.237 94.3c-4.361 3.861-5.974 2.63-10.588 8.063-2.774 3.268-6.654 6.633-8.644 7.863l.657.66c1.99-1.23 5.87-4.595 8.645-7.862 4.462-5.254 6.116-4.275 10.166-7.7-.08-.249-.198-.808-.236-1.024z"/><path d="M139.275 99.302a12.12 12.12 0 0 0-1.744 1.237c-1.088-1.203-1.174-4.342-2.05-3.72-.28.194-1.233.732-1.74 1.013.794-.439 1.312 3.682 1.966 4.05-2.492 2.332-5.823 3.334-7.33 4.9-.901-.937-1.393-3.36-2.085-2.608-.346.398-1.254 1.31-1.816 1.89.596-.595.914 1.375 1.611 1.683-1.377 1.216-4.06 3.397-5.397 4.196l.787 1.464c2.485-1.474 4.009-3.619 7.357-5.327a52.31 52.31 0 0 0 11.336-7.79 20.207 20.207 0 0 1-.895-.988" fill="#FFF101"/><path d="M139.275 99.302a12.12 12.12 0 0 0-1.744 1.237c-1.088-1.203-1.174-4.342-2.05-3.72-.28.194-1.233.732-1.74 1.013.794-.439 1.312 3.682 1.966 4.05-2.492 2.332-5.823 3.334-7.33 4.9-.901-.937-1.393-3.36-2.085-2.608-.346.398-1.254 1.31-1.816 1.89.596-.595.914 1.375 1.611 1.683-1.377 1.216-4.06 3.397-5.397 4.196l.787 1.464c2.485-1.474 4.009-3.619 7.357-5.327a52.31 52.31 0 0 0 11.336-7.79 20.207 20.207 0 0 1-.895-.988zm-20.63 27.077c1.442 1.132 4.477-3.365 6.462-6.91l-6.462 6.91zm7.37-7.471a22.88 22.88 0 0 1 1.711 1.461l-1.71-1.461zm8.429 9.826c.425.479.847.93 1.27 1.36l-1.27-1.36z"/><path d="M118.702 116.674c4.176.36 9.085 4.295 12.175 8.811 3.616 5.286 7.465 7.972 10.73 9.69-.278.486-.261 1.049-.32 1.593-.632 5.791-5.426 6.474-5.718 4.602.105.71.001 1.22-.04 1.67-.084.766 2.217 1.432 4.412-.157.935-.677 1.896-2.435 2.27-3.617.492 1.446.518 2.267.057 3.572-.495-.277-.947-.749-1.229-1.178-.267.366-.538.816-1.098 1.223.347.645.99 1.297 1.793 1.704-.642 2.535-.949 4.93-2.223 6.982-2.04 3.287-4.723 2.829-3.91-.364-.56 2.813-1.097 4.728-.89 6.276.207 1.549 2.45 3.022 4.517.573 4.667-5.53 2.98-10.869 7.258-16.193 2.021-2.517 3.23-5.15-.44-6.956-.484-.237-.604-.304-1.028-.51-1.056-.638-1.004-2.695 1.01-3.7-2.195.296-2.464 1.12-3.162 2.422.514.336-.955 1.175-.981 1.592-1.969-1.105-4.145-2.582-6.33-4.787.811-.62 1.592-1.428.998-2.183-.342-.39-.677-.793-1.016-1.225.594.756-.281 1.599-1.093 2.22a33.296 33.296 0 0 1-2.868-3.764 26.37 26.37 0 0 0-3.85-4.6c.692-.754 1.805-2.117 1.057-2.813a21.404 21.404 0 0 0-2.013-1.716c1.202.868-.092 2.281-.754 3.067-2.112-1.64-4.375-2.756-6.464-2.975l-.85.741" fill="#FFF101"/><path d="M118.702 116.674c4.176.36 9.085 4.295 12.175 8.811 3.616 5.286 7.465 7.972 10.73 9.69-.278.486-.261 1.049-.32 1.593-.632 5.791-5.426 6.474-5.718 4.602.105.71.001 1.22-.04 1.67-.084.766 2.217 1.432 4.412-.157.935-.677 1.896-2.435 2.27-3.617.492 1.446.518 2.267.057 3.572-.495-.277-.947-.749-1.229-1.178-.267.366-.538.816-1.098 1.223.347.645.99 1.297 1.793 1.704-.642 2.535-.949 4.93-2.223 6.982-2.04 3.287-4.723 2.829-3.91-.364-.56 2.813-1.097 4.728-.89 6.276.207 1.549 2.45 3.022 4.517.573 4.667-5.53 2.98-10.869 7.258-16.193 2.021-2.517 3.23-5.15-.44-6.956-.484-.237-.604-.304-1.028-.51-1.056-.638-1.004-2.695 1.01-3.7-2.195.296-2.464 1.12-3.162 2.422.514.336-.955 1.175-.981 1.592-1.969-1.105-4.145-2.582-6.33-4.787.811-.62 1.592-1.428.998-2.183-.342-.39-.677-.793-1.016-1.225.594.756-.281 1.599-1.093 2.22a33.296 33.296 0 0 1-2.868-3.764 26.37 26.37 0 0 0-3.85-4.6c.692-.754 1.805-2.117 1.057-2.813a21.404 21.404 0 0 0-2.013-1.716c1.202.868-.092 2.281-.754 3.067-2.112-1.64-4.375-2.756-6.464-2.975l-.85.741z"/><path d="M113.218 106.977c-1.363-.583-.69-1.372-1.843.543-1.884 3.13-2.248 2.409-2.17 6.718.077 4.386.888 3.686 4.788 7.192 2.997-2.36 6.575-5.927 8.837-8.243-1.866-2.558-7.265-5.203-9.612-6.21z" fill="#FFF101"/><path d="M119.859 116.963c-1.263 1.54-1.134 1.255-1.809-1.143-2.464.575-4.364 1.24-6.344 1.73-2.218.55-2.66.569-2.68-.587a97.908 97.908 0 0 0-.141-4.119c-.116-1.796.226-1.73 1.633-1.69 1.407.037 4.33.4 7.27.417.215-2.502.009-3.138 1.218-2.185 1.35 1.065 3.354 2.985 4.067 3.871-.939.81-2.017 2.245-3.214 3.706zM146.219 128.83l1.704-.848-.397 1.919 1.687.857-1.676.89.424 1.907-1.71-.812-1.173 1.526-.441-1.9-1.87-.013 1.135-1.556-1.165-1.531 1.877-.042.419-1.903 1.186 1.505" fill="#FFF101"/><path d="M146.219 128.83l1.704-.848-.397 1.919 1.687.857-1.676.89.424 1.907-1.71-.812-1.173 1.526-.441-1.9-1.87-.013 1.135-1.556-1.165-1.531 1.877-.042.419-1.903z"/><path d="M148.503 80.451c-.758 3.65-4.047 6.988-7.897 8.16-1.051 3.086.748 7.909 3.244 10.582 10.406 5.035 21.624 2.786 27.895 3.836 1.983.331 6.198-1.146 6.74-5.013.445-3.18 1.924-4.026 2.575-15.217.352-6.052.234-11.396.98-13.723.748-2.326 1.602-4.742 3.762-5.655 2.972-1.256 4.86-3.542 6.983-4.275 2.6-.898 4.447-1.366 5.62-2.328 1.174-.961 1.268-3.738-1.785-4.392-6.895-1.48-10.455 2.724-16.986 1.496-3.086-.58-5.764-.37-5.517 3.877.247 4.247.43 10.15-3.37 17.718-2.553 5.084-3.637 11.278-2.079 15.372-2.458-1.523-4.988-1.836-8.071-4.025-3.084-2.191-7.105-4.578-12.094-6.413" fill="#FFF"/><path d="M148.503 80.451c-.758 3.65-4.047 6.988-7.897 8.16-1.051 3.086.748 7.909 3.244 10.582 10.406 5.035 21.624 2.786 27.895 3.836 1.983.331 6.198-1.146 6.74-5.013.445-3.18 1.924-4.026 2.575-15.217.352-6.052.234-11.396.98-13.723.748-2.326 1.602-4.742 3.762-5.655 2.972-1.256 4.86-3.542 6.983-4.275 2.6-.898 4.447-1.366 5.62-2.328 1.174-.961 1.268-3.738-1.785-4.392-6.895-1.48-10.455 2.724-16.986 1.496-3.086-.58-5.764-.37-5.517 3.877.247 4.247.43 10.15-3.37 17.718-2.553 5.084-3.637 11.278-2.079 15.372-2.458-1.523-4.988-1.836-8.071-4.025-3.084-2.191-7.105-4.578-12.094-6.413zm39.533-18.23c1.298-.924.748-3.134-1.998-5.882l1.998 5.881zm1.687-1.182c1.202-.906 1.493-2.096-.753-5.495l.753 5.495zm2.635-1.703c1.359-.532 1.011-2.333-.266-3.817l.266 3.817z"/><path d="M145.028 86.113c5.367 2.034 5.157 4.116 11.946 5.596 4.082.89 8.797 2.734 10.808 3.928l.215-.929c-2.01-1.194-6.726-3.037-10.807-3.928-6.565-1.43-6.585-3.425-11.433-5.395a9.9 9.9 0 0 1-.729.728" fill="#FFF101"/><path d="M145.028 86.113c5.367 2.034 5.157 4.116 11.946 5.596 4.082.89 8.797 2.734 10.808 3.928l.215-.929c-2.01-1.194-6.726-3.037-10.807-3.928-6.565-1.43-6.585-3.425-11.433-5.395a9.9 9.9 0 0 1-.729.728z"/><path d="M148.134 81.758c.616.38 1.284.73 1.894.967-.448 1.59-2.995 3.24-2.043 3.725.3.158 1.219.755 1.705 1.075-.759-.502 2.38-3.034 2.358-3.814 3.17 1.101 5.66 3.63 7.707 4.218-.322 1.287-2.077 2.946-1.11 3.199.503.115 1.708.484 2.468.706-.789-.245.677-1.52.583-2.306 1.691.643 4.831 1.992 6.158 2.808l.814-1.447c-2.458-1.523-4.988-1.836-8.071-4.025-3.084-2.191-7.105-4.578-12.094-6.413-.087.372-.261.968-.369 1.307" fill="#FFF101"/><path d="M148.134 81.758c.616.38 1.284.73 1.894.967-.448 1.59-2.995 3.24-2.043 3.725.3.158 1.219.755 1.705 1.075-.759-.502 2.38-3.034 2.358-3.814 3.17 1.101 5.66 3.63 7.707 4.218-.322 1.287-2.077 2.946-1.11 3.199.503.115 1.708.484 2.468.706-.789-.245.677-1.52.583-2.306 1.691.643 4.831 1.992 6.158 2.808l.814-1.447c-2.458-1.523-4.988-1.836-8.071-4.025-3.084-2.191-7.105-4.578-12.094-6.413-.087.372-.261.968-.369 1.307zm32.65 5.22c.214-1.877-5.014-2.387-8.93-2.42l8.93 2.42zm-9.847-2.967c.093-.755.224-1.52.401-2.285l-.401 2.285zm3.89-12.576c.182-.547.345-1.079.486-1.604l-.486 1.604z"/><path d="M172.75 91.779c-1.79-3.978-.999-10.409 1.182-15.477 2.551-5.931 2.843-10.774 2.626-14.6.54.01.996-.288 1.476-.506 5.091-2.32 8.052 1.697 6.653 2.897.533-.45 1.007-.61 1.398-.796.673-.309.073-2.733-2.335-3.934-1.027-.513-2.957-.508-4.12-.257.949-1.17 1.612-1.604 2.919-1.837.02.588-.144 1.235-.358 1.706.436.059.943.08 1.559.388.358-.639.574-1.549.509-2.483 2.412-.683 4.54-1.602 6.87-1.47 3.732.212 4.695 2.881 1.656 3.736 2.6-.898 4.447-1.366 5.62-2.328 1.174-.961 1.268-3.738-1.785-4.392-6.895-1.48-10.455 2.724-16.986 1.496-3.086-.58-5.862-.362-5.517 3.877.046.56.05.703.093 1.19 0 1.28-1.72 2.261-3.556.931 1.34 1.85 2.155 1.682 3.577 1.667.021-.638 1.447.278 1.804.094.073 2.343-.057 5.062-.783 8.15-.918-.427-1.972-.734-2.3.184a31.605 31.605 0 0 1-.502 1.535c.326-.918 1.46-.542 2.377-.115a34.468 34.468 0 0 1-1.67 4.49 27.6 27.6 0 0 0-1.87 5.801c-.967-.253-2.648-.583-2.848.445a23.506 23.506 0 0 0-.41 2.689c.116-1.528 1.928-1.058 2.908-.849-.296 2.74-.087 5.355.777 7.366l1.037.402" fill="#FFF101"/><path d="M172.75 91.779c-1.79-3.978-.999-10.409 1.182-15.477 2.551-5.931 2.843-10.774 2.626-14.6.54.01.996-.288 1.476-.506 5.091-2.32 8.052 1.697 6.653 2.897.533-.45 1.007-.61 1.398-.796.673-.309.073-2.733-2.335-3.934-1.027-.513-2.957-.508-4.12-.257.949-1.17 1.612-1.604 2.919-1.837.02.588-.144 1.235-.358 1.706.436.059.943.08 1.559.388.358-.639.574-1.549.509-2.483 2.412-.683 4.54-1.602 6.87-1.47 3.732.212 4.695 2.881 1.656 3.736 2.6-.898 4.447-1.366 5.62-2.328 1.174-.961 1.268-3.738-1.785-4.392-6.895-1.48-10.455 2.724-16.986 1.496-3.086-.58-5.862-.362-5.517 3.877.046.56.05.703.093 1.19 0 1.28-1.72 2.261-3.556.931 1.34 1.85 2.155 1.682 3.577 1.667.021-.638 1.447.278 1.804.094.073 2.343-.057 5.062-.783 8.15-.918-.427-1.972-.734-2.3.184a31.605 31.605 0 0 1-.502 1.535c.326-.918 1.46-.542 2.377-.115a34.468 34.468 0 0 1-1.67 4.49 27.6 27.6 0 0 0-1.87 5.801c-.967-.253-2.648-.583-2.848.445a23.506 23.506 0 0 0-.41 2.689c.116-1.528 1.928-1.058 2.908-.849-.296 2.74-.087 5.355.777 7.366l1.037.402z"/><path d="M165.586 100.094c.2 1.532.07 2.663 2.225 2.753 3.524.148 3.238.604 6.754-1.62 3.578-2.264 3.673-1.817 4.616-7.115.231-1.303-.273-1.287-1.873-2.004-3.445-1.546-6.456-1.44-9.497-2.34-1.178 2.977-2.57 7.69-2.225 10.326z" fill="#FFF101"/><path d="M172.41 90.583c1.903.377 1.602.403-.037 2.216 1.707 1.952 3.014 3.326 4.41 4.882 1.562 1.742 1.798 2.133.854 2.729a87.484 87.484 0 0 0-3.325 2.19c-1.425 1.002-1.54.657-2.212-.642-.672-1.298-1.646-4.117-3.1-6.796-2.172 1.055-2.594 1.56-2.412-.015.203-1.761.785-4.543 1.16-5.634 1.137.448 2.859.71 4.662 1.07z" fill="#FFF101"/><path d="M167.748 89.513c1.137.448 2.859.71 4.662 1.07 1.903.377 1.602.403-.037 2.216 1.707 1.952 4.186 5.06 5.582 6.616 1.562 1.742 1.799 2.134.855 2.73a87.484 87.484 0 0 0-3.325 2.189c-1.425 1.003-1.54.658-2.212-.641-.673-1.298-2.819-5.852-4.274-8.53-2.171 1.054-2.593 1.56-2.411-.016.203-1.761.785-4.543 1.16-5.634z"/><path fill="#FFF101" d="M169.018 60.681l-1.55-1.126 1.782-.6-.138-1.962 1.573 1.08 1.36-1.34.185 1.96 1.845.304-1.346 1.353.925 1.705-1.852-.253-.681 1.825-.972-1.686-1.78.572.649-1.832"/><path d="M169.018 60.681l-1.55-1.126 1.782-.6-.138-1.962 1.573 1.08 1.36-1.34.185 1.96 1.845.304-1.346 1.353.925 1.705-1.852-.253-.681 1.825-.972-1.686-1.78.572z"/><g fill="#000" fill-rule="nonzero"><path d="M127.995 82.865c3.338-1.117 7.71.165 10.607 3.084 3.001-.542 6.199-4.4 7.225-8.276-.499-5.75-2.345-10.92-5.662-17.265-.664-1.27-2.817-5.212-2.953-5.467-1.052-1.967-1.715-3.351-2.169-4.598-.974-2.67-4.596-4.917-7.6-3.665-.392.163-.773.293-1.19.41-.27.075-.544.143-.92.229-3.9.892-6.063 1.66-11.735 4.63l-.479.252c-1.551.822-6.214 3.41-6.69 3.667-2.23 1.202-3.626 1.834-4.62 2.044-3.31.7-4.971.67-6.487-.577a13.371 13.371 0 0 0-1.613-1.13 21.966 21.966 0 0 0-1.523-.829c-.294-.147-1.283-.627-1.45-.71-1.16-.576-1.854-1.001-2.427-1.54-.32-.3-1.993-1.907-2.412-2.29-.79-.72-1.387-1.181-1.97-1.492a4.585 4.585 0 0 0-.37-.179c-1.808-.768-3.707 1.152-2.828 3.916.941 2.963 2.14 4.662 4.896 7.575l.203.214c2.632 2.78 3.73 4.292 4.63 6.908 1.359 3.958 3.07 5.196 6.064 3.116 5.391-3.744 9.57-5.511 16.263-5.78 5.755-.234 11.266-2.484 13.772-5.827l-.13-.048c-.007.746.048 1.488.163 2.382.051.403.071.539.217 1.51.352 2.345.457 3.66.335 5.455-.315 4.643-.117 9.35.76 14.223l.093.058zm.05-.087c-.874-4.86-1.072-9.553-.758-14.183.124-1.81.017-3.134-.336-5.489a59.11 59.11 0 0 1-.217-1.507 16.979 16.979 0 0 1-.162-2.36l-.13-.048c-2.476 3.302-7.947 5.536-13.663 5.767-6.723.271-10.926 2.048-16.337 5.806-2.895 2.011-4.515.839-5.847-3.04-.91-2.643-2.018-4.168-4.664-6.964l-.202-.213c-2.743-2.898-3.93-4.582-4.862-7.517-.84-2.641.943-4.444 2.635-3.725.119.05.238.108.36.173.569.304 1.157.758 1.94 1.472.417.38 2.088 1.987 2.41 2.289.587.55 1.29.982 2.462 1.563.168.083 1.156.564 1.45.71.578.29 1.055.547 1.512.823.58.348 1.105.714 1.596 1.118 1.562 1.285 3.255 1.315 6.605.607 1.013-.214 2.416-.85 4.658-2.057.478-.258 5.14-2.846 6.69-3.667l.478-.252c5.66-2.964 7.813-3.728 11.702-4.618.377-.086.653-.155.925-.23.423-.119.81-.25 1.207-.416 2.92-1.217 6.463.98 7.41 3.578.457 1.255 1.123 2.645 2.178 4.618.137.256 2.29 4.197 2.952 5.465 3.308 6.33 5.148 11.481 5.647 17.179-1.01 3.796-4.169 7.608-7.045 8.158-2.87-2.935-7.297-4.234-10.688-3.098l.094.058zM93.202 55.893c-1.535-.782-3.086 1.046-3.956 4.808l.126.068 3.853-4.757-.023-.119zm-.088.02l-3.853 4.757.127.067c.85-3.68 2.334-5.428 3.75-4.706l-.024-.118zm-1.733-.964c-1.593-.756-2.711.04-4.252 3.469l.111.092 4.156-3.43-.015-.13zm-.06.14l-.015-.13-4.156 3.431.111.093c1.51-3.363 2.558-4.108 4.06-3.394zm-2.631-1.646c-1.029-.811-2.416.237-3.143 2.153l.108.092 3.031-2.12.004-.125zm-.088.123l.003-.125-3.031 2.12.108.092c.697-1.837 1.995-2.818 2.92-2.087z"/><path d="M133.991 83.108c-.31-2.026-.342-3.242-.249-5.503l.018-.434c.104-2.699-.08-4.513-.99-7.733-1.085-3.847-1.917-9.102-1.937-11.768l-.868.194c-.026 2.754.808 8.027 1.898 11.89.903 3.2 1.086 4.996.982 7.677l-.017.433c-.086 2.086-.067 3.193.17 4.97.235.107.661.258.907.36l.086-.086zm-.128.027l.086-.085a7.995 7.995 0 0 0-.874-.303c-.183-1.701-.202-2.799-.117-4.876l.018-.434c.104-2.698-.08-4.512-.99-7.731-1.084-3.849-1.917-9.106-1.938-11.77l.738-.192c-.063 2.61.771 7.88 1.86 11.742.904 3.201 1.087 4.997.983 7.678l-.017.434c-.094 2.27-.061 3.497.25 5.537z"/><path d="M129.308 82.475c.007-.791-.044-1.57-.15-2.219.33-.01.809.006 1.426.114.21.037.421.08.718.147.932.21 1.067.236 1.35.241.41.008.625-.144.602-.5-.018-.284-.001-1.116.032-2.08l-.145-.005c-.007.177-.207.252-.623.224-.345-.023-.74-.1-1.496-.278l-.083-.02c-1.386-.325-1.83-.393-2.087-.225l.11.05a12.86 12.86 0 0 1-.117-.689c-.184-1.301-.195-2.402-.114-4.558.084-2.219.07-3.007-.146-3.873.252.006.629-.017 1.157.001.126.005.239.01.441.021.694.038.935.04 1.183-.01.35-.071.504-.268.412-.605-.08-.262-.194-.711-.37-1.434l-.022-.093-.258-1.068-.142.037c.041.18-.016.266-.188.314-.15.042-.314.046-.74.034l-.187-.005c-.534-.01-.841.034-1.053.202l.116.048c-.391-2.322-.77-5.585-.761-6.99l-1.673-.095c-.08.822-.025 1.564.09 2.458.051.403.071.539.217 1.51.352 2.345.457 3.66.335 5.455-.315 4.643-.117 9.35.76 14.223.397-.035.935-.168 1.348-.258l.058-.074zm-.088-.075c-.416.09-.958.224-1.267.32-.782-4.801-.98-9.495-.666-14.125.124-1.81.017-3.134-.336-5.489a59.11 59.11 0 0 1-.217-1.507 16.979 16.979 0 0 1-.162-2.36l1.527.092c-.08 1.341.299 4.61.691 6.942l.116.047c.176-.14.461-.18.962-.171l.186.005c.443.012.612.008.781-.04.245-.067.354-.232.293-.496l-.141.037a516.828 516.828 0 0 1 .28 1.16c.177.726.292 1.176.372 1.44.065.239-.026.355-.3.411-.232.047-.47.045-1.148.008a21.638 21.638 0 0 0-.444-.021c-.542-.02-.93.004-1.251.096.16.94.173 1.72.09 3.922-.082 2.165-.07 3.273.115 4.587.034.237.073.469.118.696l.11.05c.204-.133.672-.062 1.978.245l.083.02c.764.179 1.164.257 1.519.28.49.033.767-.07.777-.37l-.145-.006c-.034.971-.051 1.803-.033 2.096.017.247-.118.343-.452.336-.27-.005-.406-.032-1.323-.237a15.065 15.065 0 0 0-.725-.149c-.635-.11-1.13-.127-1.54-.024.051.727.101 1.496.094 2.279l.058-.074zm-12.034-32.294c-.816.367-.81 1.67-.15 3.698.528 1.622 1.462 3.66 2.586 5.742l.133-.058-2.47-9.332-.099-.05zm-.041.09l2.47 9.333.133-.058c-1.119-2.075-2.05-4.105-2.574-5.716-.635-1.955-.641-3.188.07-3.509l-.099-.05zm2.52 10.348c-.686.358-1.371.673-2.055.94l.048.166 2.061-.944-.055-.162zm.057.16l-.055-.161-2.06.943.048.165a20.93 20.93 0 0 0 2.067-.946zm-12.364 2.587a25.1 25.1 0 0 0-1.54.475l.039.17 1.535-.475-.034-.17zm.032.17l-.034-.17-1.536.475.039.169c.498-.173 1.008-.33 1.531-.474z"/><path d="M125.132 55.037c-2.254 3.417-7.728 6.049-13.302 6.632-5.373.563-9.494 2.227-13.39 4.924-.077-.314-.288-.51-.807-.89h-.001a9.587 9.587 0 0 1-.262-.196c-1.977-1.538-2.876-3.462-2.746-5.235.107-1.465.942-2.448 1.739-2.13l.052-.144a3.76 3.76 0 0 1-.785-.436c-.137-.097-.544-.418-.555-.427-.85-.661-2.38 1.707-2.192 4.16.084 1.1.958 2.845 1.867 3.917l.067-.126c-1.44-.276-2.107-.662-2.932-1.708.417-.17 1.008-.36 1.536-.403l.062-.105-.147-.36c-.18-.446-.274-.791-.308-1.228-.827-.077-1.697.208-2.416.72-.017-.104-.13-.221-.249-.342-.306-.312-1.336-1.335-1.48-1.48-1.416-1.427-2.217-2.427-2.813-3.66-.779-1.611-.87-3.062-.348-3.795.502-.705 1.465-.561 2.487.51l.1-.11c-.32-.301-1.993-1.908-2.412-2.29-.79-.722-1.387-1.182-1.97-1.493a4.585 4.585 0 0 0-.37-.179c-1.808-.768-3.707 1.152-2.828 3.916.941 2.963 2.14 4.662 4.896 7.575l.203.214c2.632 2.78 3.73 4.292 4.63 6.908.625 1.822 1.295 3.02 2.157 3.65 1.043.761 2.324.624 3.909-.535.181-.133.307-.224.52-.377l.007-.004c.143-.103.256-.186.409-.3 1.139-.69 2.59.631 2.432 2.701l.14.036c.554-1.392.567-2.214.148-3.115-.07-.15-.15-.304-.262-.502l-.307-.538c-.198.027-.266-.01-.339-.161-.064-.134-.11-.307-.183-.656l-.019-.088c-.109-.518-.171-.713-.305-.807l-.002.129c2.239-1.462 4.5-2.567 7.096-3.356.055 1.38.445 2.151 1.293 2.002.518-.12 1.014-.223 1.518-.31l-.024-.151c-.714.125-1.055-.61-1.2-2.037a43.83 43.83 0 0 1 4.473-.642 24.5 24.5 0 0 0 5.736-1.204c.38 1.678.952 2.662 1.791 2.367a20.85 20.85 0 0 0 2.43-.976l-.061-.138c-.783.392-1.311-.101-1.757-1.287a10.55 10.55 0 0 1-.162-.464l-.134-.423c2.48-1.057 4.486-2.583 5.677-4.32l-.175-1.203-.132-.03zm.12.087l-.132-.03.188 1.144c-1.161 1.655-3.146 3.165-5.644 4.306-.046.075.061.415.095.518.057.176.109.327.163.471.473 1.258 1.068 1.813 1.956 1.369l-.062-.138c-.727.35-1.527.67-2.415.969-.711.25-1.252-.682-1.699-2.316-1.916.57-3.876.98-5.795 1.145a30.498 30.498 0 0 0-4.55.729c.098 1.594.472 2.401 1.313 2.254l-.024-.151c-.506.088-1.005.19-1.522.311-.722.127-1.074-.568-1.213-1.933-2.702.727-4.975 1.839-7.225 3.307l-.002.128c.085.06.147.254.244.713l.018.088c.077.362.124.542.196.692.106.218.255.302.44.198-.042.068.163.426.21.51.11.194.19.345.257.491.4.859.387 1.636-.152 2.989l.14.036c.166-2.182-1.397-3.606-2.656-2.842-.157.117-.27.199-.413.302l-.006.004c-.213.153-.34.244-.522.377-1.538 1.126-2.754 1.256-3.742.535-.83-.606-1.487-1.781-2.103-3.575-.91-2.644-2.018-4.17-4.664-6.965l-.202-.213c-2.743-2.898-3.93-4.582-4.862-7.517-.84-2.641.943-4.444 2.635-3.725.119.05.238.108.36.173.569.304 1.157.758 1.94 1.472.417.38 2.088 1.987 2.41 2.289l.1-.111c-1.077-1.13-2.14-1.289-2.707-.494-.56.788-.466 2.297.335 3.955.606 1.252 1.415 2.264 2.842 3.702.144.145 1.175 1.168 1.48 1.478.118.121.231.237.34.351.787-.486 1.628-.762 2.353-.755-.037.385.062.745.247 1.205l.146.358.062-.105c-.55.045-1.164.24-1.62.538.83 1.19 1.529 1.594 3.001 1.875l.068-.126c-.89-1.049-1.75-2.765-1.831-3.828-.18-2.348 1.257-4.571 1.961-4.023.01.007.419.33.56.43.259.185.515.33.813.452l.053-.143c-.912-.362-1.822.71-1.936 2.262-.134 1.828.788 3.802 2.804 5.37a9.697 9.697 0 0 0 .267.2c.501.366.7.55.866.864 3.982-2.657 8.08-4.312 13.429-4.872 5.612-.588 11.125-3.239 13.407-6.698zM140.22 100.233c-2.593-2.476-3.721-7.093-2.761-11.186-1.949-2.458-6.73-3.437-10.44-2.432-3.537 2.619-6.46 5.957-9.232 10.215-1.556 2.39-6.34 11.043-7.412 12.568-.171.244-.34.473-.506.688-1.717 2.221-1.758 6.636.777 8.743.113.095.223.19.33.287.33.298.628.606.98 1.003.146.163.932 1.075 1.193 1.368a28.17 28.17 0 0 0 1.714 1.762c1.652 1.56 3.886 3.335 7.051 5.534 1.61 1.118 6.668 4.459 6.641 4.44 2.224 1.5 3.483 2.478 4.173 3.3 2.23 2.654 3.038 4.184 2.767 6.186-.189 1.395-.163 2.534.018 4.64.185 2.153.205 2.895.018 3.84-.044.218-.618 2.953-.734 3.615-.199 1.142-.255 1.963-.158 2.688.271 2.028 2.802 2.794 4.643.613 2.012-2.384 2.77-4.25 3.857-8.46.998-3.863 1.682-5.594 3.402-7.735 2.584-3.217 2.75-5.39-.462-7.073-5.779-3.025-9.33-5.945-12.9-11.895-3.07-5.118-7.68-9.004-11.692-9.61l.026.141c.755-.448 1.426-.95 2.353-1.726l.85-.72c.346-.293.615-.516.885-.733 1.093-.876 2.092-1.547 3.265-2.146a52.097 52.097 0 0 0 11.352-7.8l.001-.115zm-.097-.001a51.953 51.953 0 0 1-11.32 7.779c-1.183.603-2.19 1.28-3.29 2.162-.272.218-.541.441-.889.735l-.849.72c-.922.772-1.586 1.269-2.334 1.712l.026.142c3.962.6 8.54 4.458 11.588 9.541 3.587 5.978 7.158 8.914 12.96 11.95 3.104 1.628 2.947 3.687.415 6.838-1.738 2.163-2.428 3.91-3.432 7.795-1.082 4.188-1.832 6.036-3.825 8.397-1.759 2.084-4.136 1.365-4.39-.532-.094-.706-.04-1.512.157-2.64.115-.658.69-3.39.733-3.61.192-.966.172-1.716-.015-3.886-.18-2.095-.205-3.224-.019-4.605.279-2.062-.545-3.621-2.802-6.308-.702-.837-1.968-1.819-4.203-3.327.025.017-5.031-3.322-6.64-4.44-3.16-2.195-5.387-3.965-7.033-5.52a28.021 28.021 0 0 1-1.706-1.753c-.26-.291-1.045-1.203-1.192-1.368a12.7 12.7 0 0 0-.991-1.014c-.11-.098-.22-.195-.336-.29-2.464-2.05-2.424-6.367-.754-8.527.168-.217.338-.448.51-.694 1.078-1.534 5.864-10.19 7.415-12.573 2.763-4.244 5.675-7.569 9.173-10.165 3.635-.98 8.36-.012 10.252 2.327-.987 4.077.156 8.752 2.79 11.268v-.114zm-4.756 45.125c.123 1.786 2.406 2.282 5.943 1.192l-.007-.148-5.85-1.125-.086.081zm.06.07l5.85 1.124-.008-.149c-3.46 1.067-5.643.592-5.756-1.056l-.086.08zm.072 2.057c.17 1.825 1.389 2.445 4.987 2.131l.021-.147-4.908-2.063-.1.079zm.145-.015l-.1.078 4.909 2.063.021-.147c-3.53.307-4.669-.272-4.83-1.994zm-.04 3.215c-.157 1.341 1.403 2.08 3.345 1.78l.022-.144-3.263-1.695-.105.06zm.144.019l-.105.06 3.263 1.695.022-.145c-1.862.287-3.32-.404-3.18-1.61z"/><path d="M137.19 94.241c-1.548 1.371-2.437 1.94-4.574 3.098-.165.089-.289.156-.41.223-2.107 1.161-3.535 2.305-5.612 4.75-2.568 3.025-6.44 6.496-8.626 7.848l.644.782c2.287-1.35 6.17-4.831 8.75-7.867 2.063-2.43 3.477-3.563 5.567-4.715.121-.067.245-.135.41-.224 1.993-1.079 2.798-1.583 4.18-2.752-.044-.292-.159-.806-.21-1.098l-.12-.045zm.093.117l-.118-.044c.053.299.17.819.239 1.035-1.35 1.077-2.147 1.577-4.131 2.651l-.412.224c-2.105 1.16-3.532 2.304-5.609 4.749-2.569 3.025-6.44 6.496-8.627 7.848l-.57-.65c2.188-1.24 6.07-4.721 8.648-7.757 2.065-2.432 3.478-3.564 5.57-4.716.121-.067.245-.134.41-.223 2.146-1.162 3.042-1.737 4.6-3.117z"/><path d="M139.24 99.235c-.656.388-1.272.824-1.755 1.246-.216-.342-.46-.862-.717-1.64-.069-.208-.31-.994-.367-1.165-.137-.411-.25-.67-.381-.83-.167-.206-.364-.243-.58-.09-.23.16-.988.596-1.734 1.009l.068.135c.15-.083.314.064.5.463.155.328.287.723.523 1.514.163.545.166.556.226.746.25.796.434 1.206.65 1.327l-.015-.125c-.708.664-1.519 1.254-2.51 1.859-.639.39-2.74 1.551-3.046 1.732-.804.477-1.362.88-1.777 1.311-.14-.252-.357-.61-.64-1.18-.035-.068-.285-.581-.355-.72a3.983 3.983 0 0 0-.341-.578c-.25-.333-.502-.398-.75-.128-.181.21-.504.548-1.046 1.102l-.026.027c.135-.138-.592.604-.742.759l.1.11c.18-.178.326-.09.547.289a5.8 5.8 0 0 1 .13.238l.135.26c.28.536.468.799.722.911l-.019-.129c-1.712 1.512-4.22 3.491-5.386 4.188l.76 1.568c.854-.419 1.525-.92 2.452-1.697l.85-.72c.346-.293.615-.516.885-.733 1.093-.876 2.092-1.547 3.265-2.146a52.097 52.097 0 0 0 11.352-7.8c-.23-.346-.614-.774-.888-1.097l-.09-.016zm-.02.117c.277.327.664.757.9.993a55.539 55.539 0 0 1-11.318 7.666c-1.182.603-2.19 1.28-3.29 2.162-.271.218-.54.441-.888.735l-.849.72c-.922.772-1.586 1.269-2.334 1.712l-.687-1.435c1.148-.599 3.661-2.582 5.38-4.1l-.019-.129c-.211-.093-.388-.34-.65-.843l-.135-.26a5.942 5.942 0 0 0-.134-.245c-.263-.45-.498-.59-.77-.32l.1.11.743-.759.025-.026a30.79 30.79 0 0 0 1.052-1.108c.174-.19.327-.15.528.118.097.13.2.305.327.556.07.137.32.65.354.72.29.582.514.95.77 1.217a13.773 13.773 0 0 1 1.849-1.287c.302-.179 2.405-1.341 3.047-1.733 1-.61 1.817-1.206 2.534-1.876l-.014-.125c-.165-.093-.345-.493-.58-1.24a40.7 40.7 0 0 1-.225-.744c-.239-.8-.372-1.198-.53-1.536-.22-.468-.445-.67-.7-.53l.068.135c.751-.416 1.51-.853 1.747-1.017.153-.108.268-.087.388.062.115.142.224.388.355.781.056.169.297.955.366 1.165.263.797.516 1.333.848 1.701a26.33 26.33 0 0 1 1.833-1.224l-.09-.016zm-20.619 27.088c.711.559 1.783-.098 3.126-1.712 1.075-1.29 2.289-3.16 3.443-5.22l-.115-.092-6.462 6.91.008.114zm.096-.007l6.462-6.91-.115-.093c-1.15 2.054-2.359 3.915-3.426 5.198-1.295 1.554-2.31 2.176-2.93 1.69l.009.115zm7.276-7.464c.6.465 1.17.95 1.704 1.457l.095-.116-1.71-1.462-.09.121zm.086-.123l-.089.12 1.71 1.463.095-.116a22.938 22.938 0 0 0-1.716-1.467zm8.332 9.949c.418.463.822.889 1.22 1.285l.113-.117-1.218-1.283-.115.115zm.117-.113l-.116.114 1.22 1.286.113-.118c-.397-.395-.8-.82-1.217-1.282z"/><path d="M118.696 116.75c3.946.341 8.853 4.002 12.121 8.78 3.15 4.603 6.582 7.516 10.757 9.713-.221.228-.277.518-.33 1.182 0 .009 0 .009-.002.017-.012.15-.018.229-.028.317-.28 2.567-1.418 4.347-2.945 5.115-1.262.634-2.49.367-2.628-.516l-.144.024c.067.449.058.784-.006 1.33-.019.163-.027.239-.035.32-.12 1.104 2.597 1.31 4.526-.086.866-.627 1.867-2.292 2.298-3.656l-.137.002c.491 1.445.506 2.245.057 3.52-.348-.293-.799-.736-1.1-1.195l-.119-.004c-.031.044-.218.308-.277.387-.115.156-.22.285-.337.408-.141.15-.294.286-.468.412.35.79 1.02 1.439 1.803 1.836-.171.434-.201.564-.49 1.84-.577 2.541-.968 3.752-1.762 5.032-.94 1.513-2.09 2.321-2.955 2.213-.833-.104-1.196-1.051-.823-2.516l-.141-.036c-.044.218-.618 2.953-.734 3.615-.199 1.142-.255 1.963-.158 2.688.271 2.028 2.802 2.794 4.643.613 2.012-2.384 2.77-4.25 3.857-8.46.998-3.863 1.682-5.594 3.402-7.735 1.19-1.481 1.844-2.689 1.932-3.787.106-1.33-.647-2.426-2.395-3.287-.21-.103-.245-.12-.576-.286l-.005-.003a32.207 32.207 0 0 0-.449-.221c-1.14-.69-.775-2.67 1.011-3.562l-.04-.145c-1.613.218-2.239.661-2.863 1.796-.072.13-.326.614-.353.664.116.163.123.237.049.366-.068.118-.188.251-.405.461l-.066.064c-.44.423-.558.558-.569.735l.107-.063c-2.324-1.305-4.365-2.808-6.314-4.775 1.11-.738 1.552-1.48 1.004-2.176-.35-.4-.684-.803-1.016-1.226l-.112.097c.461.588.027 1.263-1.08 2.11a48.24 48.24 0 0 1-2.766-3.745 26.444 26.444 0 0 0-3.86-4.614c1.194-1.187 1.719-2.196 1.056-2.813a21.397 21.397 0 0 0-2.02-1.721l-.083.125c.48.346.568.792.347 1.353-.126.321-.345.66-.662 1.058-.12.15-.238.29-.452.542-2.115-1.728-4.375-2.788-6.402-3l-.904.758.04.135zm.012-.152l.04.135.85-.741c1.945.226 4.181 1.275 6.375 2.977.31-.261.43-.404.552-.556.325-.408.551-.759.685-1.098.246-.623.14-1.147-.399-1.537l-.083.125a21.258 21.258 0 0 1 2.006 1.71c.561.523.065 1.478-1.06 2.703 1.43 1.459 2.747 3.036 3.842 4.698a33.384 33.384 0 0 0 2.875 3.772c1.268-.888 1.745-1.63 1.202-2.32l-.112.096c.333.425.669.83 1.018 1.23.467.592.068 1.261-.988 2.068 1.952 2.094 4.004 3.605 6.34 4.917l.107-.063c.007-.114.13-.255.521-.63l.067-.065c.227-.22.353-.36.43-.496.111-.192.097-.36-.071-.471.052.05.306-.431.377-.56.602-1.094 1.188-1.51 2.755-1.721l-.04-.145c-1.882.94-2.276 3.073-1.015 3.835a36.555 36.555 0 0 1 .457.227c.332.166.366.183.577.286 1.697.836 2.412 1.877 2.311 3.136-.084 1.058-.725 2.243-1.897 3.701-1.738 2.163-2.428 3.91-3.432 7.795-1.082 4.188-1.832 6.036-3.825 8.397-1.759 2.084-4.136 1.365-4.39-.532-.094-.706-.04-1.512.157-2.64.115-.658.69-3.39.733-3.61l-.141-.036c-.394 1.544.007 2.59.945 2.708.931.116 2.129-.725 3.095-2.282.806-1.299 1.2-2.522 1.781-5.08.289-1.273.32-1.404.451-1.924-.796-.473-1.443-1.1-1.8-1.761.16-.032.32-.174.467-.33.12-.128.23-.262.348-.422.06-.08.247-.345.278-.388l-.118-.003c.315.48.783.939 1.255 1.202.564-1.35.548-2.187.046-3.665l-.138.002c-.422 1.335-1.407 2.973-2.243 3.578-1.846 1.337-4.398 1.143-4.298.228.007-.08.016-.154.035-.318.065-.559.074-.906.005-1.372l-.144.024c.158 1.01 1.498 1.302 2.835.63 1.574-.792 2.741-2.618 3.027-5.235.01-.09.016-.17.029-.322l.001-.017c.051-.641.104-.915.28-1.224-4.185-2.294-7.599-5.192-10.733-9.774-3.291-4.81-8.233-8.497-12.228-8.842z"/><path d="M146.25 128.898l1.705-.847-.103-.086-.397 1.92 1.726.942v-.137l-1.677.89.386 1.992.1-.087-1.708-.812-1.26 1.548.127.03-.441-1.9-1.94-.071.057.122 1.135-1.556-1.166-1.625-.056.124 1.877-.042.489-1.962-.127.031 1.186 1.506.087.02zm.025-.117l-1.186-1.506-.127.031-.42 1.904-1.807-.018-.055.124 1.165 1.532-1.136 1.461.058.123 1.87.013.37 1.842.128.03 1.173-1.526 1.623.833.1-.087-.423-1.905 1.638-.805-.001-.137-1.687-.858.437-1.834-.103-.085-1.704.847.087.02zM148.431 80.435c-.745 3.593-3.99 6.929-7.845 8.103-1.054 3 .529 7.835 3.212 10.708a29.992 29.992 0 0 0 4.472 1.747c4.748 1.44 8.632 1.753 16.344 1.772 3.943.01 5.482.065 7.12.34 2.69.45 6.353-1.72 6.823-5.078a11.94 11.94 0 0 1 .337-1.587c.097-.349.524-1.747.484-1.611.218-.73.39-1.369.557-2.106.543-2.396.94-5.486 1.197-9.92.1-1.707.127-2.384.256-6.027.16-4.543.31-6.393.722-7.675 1.077-3.358 1.933-4.854 3.719-5.609 1.042-.44 1.976-1.004 3.135-1.837.286-.206 1.238-.91 1.41-1.035.528-.383.935-.656 1.329-.884.387-.224.75-.395 1.105-.517.373-.13 2.606-.87 3.15-1.068 1.159-.423 1.91-.795 2.492-1.272 1.537-1.26.903-3.945-1.815-4.528-2.954-.634-4.902-.39-8.838.703l-.269.075c-3.47.962-5.307 1.201-7.881.717-3.946-.74-5.821.194-5.602 3.958.393 6.77-.24 11.457-3.363 17.677-2.686 5.35-3.586 11.486-2.081 15.437l.104-.095c-.827-.512-1.591-.868-2.964-1.424-2.671-1.083-3.58-1.517-5.103-2.599-3.67-2.607-7.652-4.78-12.111-6.42l-.096.055zm.047.089c4.448 1.635 8.417 3.802 12.078 6.403 1.535 1.09 2.451 1.528 5.133 2.614 1.365.554 2.123.907 2.942 1.414l.105-.094c-1.486-3.903-.593-9.995 2.075-15.309 3.138-6.248 3.774-10.961 3.379-17.757-.212-3.639 1.564-4.524 5.431-3.798 2.6.489 4.455.247 7.944-.72l.27-.075c3.915-1.088 5.845-1.33 8.77-.701 2.599.557 3.194 3.08 1.755 4.257-.567.465-1.305.831-2.45 1.248-.541.197-2.772.938-3.148 1.068-.364.125-.734.3-1.13.529-.398.23-.809.506-1.34.89-.174.127-1.126.83-1.41 1.035-1.151.828-2.077 1.387-3.108 1.822-1.839.777-2.711 2.303-3.802 5.702-.418 1.303-.568 3.156-.73 7.718-.129 3.642-.156 4.318-.255 6.024-.257 4.426-.653 7.507-1.194 9.894a30.364 30.364 0 0 1-.554 2.095 115.05 115.05 0 0 0-.485 1.615 12.097 12.097 0 0 0-.341 1.607c-.457 3.264-4.039 5.386-6.656 4.948-1.649-.276-3.19-.332-7.143-.341-7.698-.02-11.573-.332-16.304-1.766a30.362 30.362 0 0 1-4.429-1.723c-2.627-2.819-4.19-7.596-3.207-10.486 3.857-1.142 7.142-4.519 7.9-8.17l-.096.057zm39.599-18.24c1.412-1.005.68-3.33-1.989-6l-.119.08 1.999 5.882.109.037zm.028-.09l-1.998-5.88-.12.08c2.611 2.613 3.311 4.836 2.008 5.763l.11.037zm1.66-1.093c1.42-1.07 1.322-2.487-.735-5.6l-.132.054.753 5.494.115.052zm-.084-.125l.114.052-.752-5.495-.132.054c2.017 3.055 2.109 4.381.77 5.39zm2.72-1.57c1.355-.53 1.16-2.316-.233-3.934l-.149.052.267 3.817.116.065zm-.067-.14l.116.065-.267-3.817-.148.053c1.334 1.55 1.517 3.221.299 3.698z"/><path d="M145.004 86.184c.383.146.746.295 1.093.448 1.385.611 1.99.978 3.838 2.223 2.251 1.516 3.814 2.229 7.024 2.929 3.779.823 8.577 2.607 10.787 3.92l.322-.978c-2.254-1.403-7.068-3.192-10.863-4.02-3.191-.696-4.737-1.402-6.974-2.908-1.865-1.256-2.482-1.63-3.891-2.25a21.39 21.39 0 0 0-.557-.235c-.218.187-.58.542-.802.741l.023.13zm.05-.143l.022.13a9.65 9.65 0 0 0 .735-.736c.108.098.293.176.472.255 1.4.615 2.01.985 3.87 2.237 2.25 1.516 3.813 2.229 7.022 2.928 3.782.825 8.581 2.61 10.786 3.92l-.25.844c-2.117-1.37-6.93-3.159-10.723-3.985-3.191-.696-4.737-1.401-6.974-2.908-1.855-1.249-2.466-1.62-3.86-2.235-.35-.154-.715-.304-1.1-.45z"/><path d="M148.097 81.824c.648.4 1.315.743 1.905.973-.065-.02-.09.053-.12.128-.176.441-.486.887-1.003 1.5-.09.106-.466.542-.557.65-.2.238-.336.416-.436.574-.257.41-.259.703.067.87.246.13.967.589 1.698 1.071l.078-.13c-.141-.092-.106-.307.116-.662.186-.298.45-.624.953-1.199l.065-.074c.998-1.139 1.267-1.494 1.258-1.816l-.096.075c1.162.404 2.251.989 3.668 1.905.017.011 1.695 1.122 2.14 1.395.761.467 1.356.762 1.902.919-.11.147-.225.414-.396.729-.088.162-.186.329-.32.547-.57.932-.562.919-.662 1.182-.147.391-.074.65.27.741.267.06.71.186 1.448.404l.056.017.505.15.458.134.04-.147c-.175-.054-.216-.156-.158-.351.047-.165.101-.265.376-.735.058-.101.1-.175.14-.249.21-.384.305-.662.276-.907l-.097.082c2.097.798 4.987 2.09 6.146 2.802l.914-1.474c-.853-.617-1.617-.973-2.99-1.53-2.671-1.082-3.58-1.516-5.103-2.598-3.67-2.607-7.652-4.78-12.111-6.42-.17.379-.33.94-.462 1.354l.032.09zm.106-.042c.132-.417.294-.982.37-1.313a54.85 54.85 0 0 1 11.983 6.458c1.535 1.09 2.451 1.528 5.133 2.614 1.365.554 2.123.907 2.942 1.414l-.84 1.342c-1.069-.745-3.965-2.04-6.07-2.841l-.098.081c.024.202-.062.456-.257.812a9.53 9.53 0 0 1-.139.245c-.283.486-.337.587-.39.77-.08.271-.004.463.255.543l.04-.147-.456-.135-.505-.15-.057-.016a28.966 28.966 0 0 0-1.453-.406c-.243-.063-.287-.22-.168-.536.094-.249.088-.24.65-1.155.134-.22.233-.39.323-.555.176-.325.295-.604.359-.859a13.624 13.624 0 0 1-1.918-.996c-.443-.272-2.12-1.38-2.138-1.393-1.425-.922-2.523-1.512-3.698-1.92l-.096.075c.007.256-.279.634-1.219 1.707l-.065.075c-.509.581-.776.91-.967 1.218-.263.42-.312.718-.073.876l.077-.13c-.736-.485-1.458-.945-1.71-1.078-.227-.116-.226-.306-.01-.648.095-.152.228-.324.423-.557.09-.107.466-.544.557-.651.527-.624.844-1.08 1.028-1.542.032-.08.06-.159.081-.237-.625-.32-1.285-.66-1.926-1.055l.032.09zm32.654 5.204c.105-.925-.972-1.57-2.975-1.985-1.602-.331-3.75-.5-6.028-.52l-.019.15 8.932 2.42.09-.065zm-.054-.083l-8.931-2.42-.019.151c2.27.02 4.41.188 6 .517 1.93.4 2.951 1.01 2.86 1.817l.09-.065zm-9.773-2.883c.096-.781.229-1.54.4-2.278l-.164-.028-.401 2.285.165.02zm-.166-.018l.165.021.402-2.285-.164-.028a22.204 22.204 0 0 0-.403 2.292zm4.053-12.545c.188-.563.35-1.094.487-1.607l-.16-.04-.487 1.604.16.043zm-.16-.045l.16.043.487-1.603-.161-.04c-.138.511-.299 1.04-.486 1.6z"/><path d="M172.817 91.746c-1.692-3.758-1.126-10.051 1.181-15.412 2.223-5.167 2.91-9.746 2.633-14.637.292.088.566-.008 1.115-.278l.025-.012c.144-.071.21-.103.292-.14 2.257-1.029 4.293-.884 5.69.12 1.154.83 1.548 2.08.888 2.647l.091.119c.382-.323.485-.377 1.285-.741l.098-.046c.97-.444-.218-3.017-2.334-4.072-.95-.475-2.823-.553-4.165-.263l.07.124c.948-1.17 1.6-1.583 2.875-1.811-.067.464-.207 1.095-.436 1.598l.057.109.153.019c.658.08.946.144 1.384.362.477-.714.676-1.647.613-2.558.332-.03.71-.144 1.25-.313 1.709-.534 2.001-.62 2.726-.788 1.027-.238 1.928-.337 2.817-.286 1.718.097 2.96.74 3.304 1.58.331.81-.268 1.613-1.663 2.005l.042.147c.373-.13 2.606-.87 3.15-1.068 1.159-.423 1.91-.795 2.492-1.272 1.537-1.26.903-3.945-1.815-4.528-2.954-.634-4.902-.39-8.838.703l-.269.075c-3.47.962-5.307 1.201-7.881.717-1.817-.34-3.14-.331-4.09.138-1.15.568-1.677 1.801-1.512 3.822l.048.636.003.031c.013.185.025.328.042.524 0 1.382-1.815 2.04-3.443.86l-.1.11c.6.828 1.12 1.29 1.672 1.513.443.18.774.206 1.676.188l.29-.005c.075-.193.14-.236.296-.228.14.007.309.052.622.155l.043.015c.548.182.724.222.873.144l-.105-.066c.087 2.762-.133 5.373-.78 8.13-1.167-.64-1.996-.671-2.298.175-.158.527-.322 1.03-.502 1.535l.136.054c.254-.713 1.027-.655 2.28-.072a49.684 49.684 0 0 1-1.707 4.388 27.68 27.68 0 0 0-1.875 5.817c-1.573-.493-2.671-.465-2.849.446-.199.966-.336 1.858-.41 2.697l.145.013c.064-.837.646-1.102 1.68-.99.231.026.47.067.772.13l.368.08c-.368 2.787-.112 5.372.725 7.323l1.078.441.092-.104zm-.132.065l.09-.104-1.036-.401c-.784-1.883-1.037-4.44-.73-7.286-.08-.089-.343-.146-.427-.163a7.918 7.918 0 0 0-.785-.133c-1.104-.12-1.768.183-1.84 1.13l.145.013c.073-.832.21-1.718.408-2.68.15-.772 1.19-.798 2.76-.387.488-2.03 1.13-4.018 1.953-5.842a34.557 34.557 0 0 0 1.673-4.5c-1.366-.71-2.216-.774-2.514.065l.136.054c.181-.508.346-1.014.504-1.54.257-.72 1.005-.692 2.2-.136.752-2.823.973-5.448.886-8.223l-.105-.066c-.096.05-.279.009-.765-.153l-.043-.014c-.326-.108-.501-.155-.66-.163-.228-.011-.37.084-.376.302-.013-.073-.077-.072-.219-.07-.883.018-1.202-.007-1.62-.176-.525-.213-1.023-.657-1.608-1.464l-.1.11c1.715 1.242 3.671.533 3.671-.994a37.999 37.999 0 0 1-.042-.528l-.003-.032-.048-.637c-.16-1.962.341-3.133 1.43-3.67.915-.452 2.212-.462 4.001-.126 2.6.489 4.455.247 7.944-.72l.27-.075c3.915-1.088 5.845-1.33 8.77-.701 2.599.557 3.194 3.08 1.755 4.257-.567.465-1.305.831-2.45 1.248-.541.197-2.772.938-3.148 1.068l.042.146c1.47-.413 2.132-1.301 1.76-2.213-.37-.904-1.664-1.573-3.43-1.673-.905-.051-1.818.05-2.858.29-.729.168-1.023.256-2.736.79-.538.169-.915.283-1.3.392.008.96-.185 1.861-.553 2.518-.362-.258-.663-.325-1.336-.406l-.15-.019.056.109c.238-.524.383-1.18.365-1.742-1.396.161-2.077.593-3.047 1.79l.07.125c1.314-.284 3.157-.207 4.074.25 2.025 1.011 3.14 3.427 2.337 3.796l-.097.045c-.813.37-.922.427-1.318.761l.092.12c.755-.648.325-2.012-.898-2.892-1.44-1.035-3.529-1.184-5.83-.135-.083.038-.15.07-.296.142l-.025.013c-.529.26-.788.35-1.125.344.202 4.949-.481 9.503-2.693 14.646-2.323 5.398-2.894 11.735-1.181 15.54z"/></g></g></g></svg>