<svg width="280" height="200" viewBox="0 0 280 200" xmlns="http://www.w3.org/2000/svg" xmlns:xlink="http://www.w3.org/1999/xlink"><title>IQ</title><defs><rect id="a" width="280" height="200" rx="2"/></defs><g fill="none" fill-rule="evenodd"><mask id="b" fill="#fff"><use xlink:href="#a"/></mask><use fill="#FFF" xlink:href="#a"/><rect stroke="#F5F5F5" stroke-width=".5" x=".25" y=".25" width="279.5" height="199.5" rx="2"/><path fill="#DF1E35" mask="url(#b)" d="M0 0h280v66.667H0z"/><path fill="#262626" mask="url(#b)" d="M0 133.333h280V200H0z"/><path d="M186.667 80.334c0-.185.132-.268.303-.182l12.726 6.363c.168.084.304.3.304.482v32.673c0 .182-.15.33-.33.33h-12.674a.329.329 0 0 1-.33-.334V80.334zM106.667 80.334c0-.185.132-.268.303-.182l12.726 6.363c.168.084.304.3.304.482v32.673c0 .182-.15.33-.33.33h-12.674a.329.329 0 0 1-.33-.334V80.334zM160 86.997c0-.183.132-.396.304-.482l12.726-6.363c.167-.084.303-.007.303.182v39.332c0 .185-.15.334-.33.334H160.33a.33.33 0 0 1-.33-.33V86.997z" fill="#0F7A40" mask="url(#b)"/><path d="M133.333 100.33c0-.182.132-.396.304-.482l12.726-6.363c.168-.084.304.005.304.179v13.6h20V120H133.663a.331.331 0 0 1-.33-.33v-19.34zM80 100.33c0-.182.132-.396.304-.482l12.726-6.363c.167-.084.303.005.303.179v13.6h20V120H80.33a.331.331 0 0 1-.33-.33v-19.34z" fill="#0F7A40" mask="url(#b)"/></g></svg>