<svg width="280" height="200" viewBox="0 0 280 200" xmlns="http://www.w3.org/2000/svg" xmlns:xlink="http://www.w3.org/1999/xlink"><title>IR</title><defs><rect id="a" width="280" height="200" rx="2"/></defs><g fill="none" fill-rule="evenodd"><mask id="b" fill="#fff"><use xlink:href="#a"/></mask><use fill="#FFF" xlink:href="#a"/><rect stroke="#F5F5F5" stroke-width=".5" x=".25" y=".25" width="279.5" height="199.5" rx="2"/><path fill="#38BB56" mask="url(#b)" d="M0 0h280v66.667H0z"/><path fill="#DE1B27" mask="url(#b)" d="M0 133.333h280V200H0z"/><path d="M13.333 53.663c0-.182.15-.33.33-.33h12.674c.182 0 .33.15.33.33v12.674c0 .182-.15.33-.33.33H13.663a.331.331 0 0 1-.33-.33V53.663zm26.667 0c0-.182.15-.33.33-.33h12.674c.182 0 .33.15.33.33v12.674c0 .182-.15.33-.33.33H40.33a.331.331 0 0 1-.33-.33V53.663zm26.667 0c0-.182.15-.33.33-.33H79.67c.182 0 .33.15.33.33v12.674c0 .182-.15.33-.33.33H66.996a.331.331 0 0 1-.33-.33V53.663zm26.666 0c0-.182.15-.33.33-.33h12.674c.182 0 .33.15.33.33v12.674c0 .182-.15.33-.33.33H93.663a.331.331 0 0 1-.33-.33V53.663zm26.667 0c0-.182.15-.33.33-.33h12.674c.182 0 .33.15.33.33v12.674c0 .182-.15.33-.33.33H120.33a.331.331 0 0 1-.33-.33V53.663zm26.667 0c0-.182.15-.33.33-.33h12.673c.182 0 .33.15.33.33v12.674c0 .182-.15.33-.33.33h-12.674a.331.331 0 0 1-.33-.33V53.663zm26.666 0c0-.182.15-.33.33-.33h12.674c.182 0 .33.15.33.33v12.674c0 .182-.15.33-.33.33h-12.674a.331.331 0 0 1-.33-.33V53.663zm26.667 0c0-.182.15-.33.33-.33h12.674c.182 0 .33.15.33.33v12.674c0 .182-.15.33-.33.33H200.33a.331.331 0 0 1-.33-.33V53.663zm26.667 0c0-.182.15-.33.33-.33h12.673c.182 0 .33.15.33.33v12.674c0 .182-.15.33-.33.33h-12.674a.331.331 0 0 1-.33-.33V53.663zm26.666 0c0-.182.15-.33.33-.33h12.674c.182 0 .33.15.33.33v12.674c0 .182-.15.33-.33.33h-12.674a.331.331 0 0 1-.33-.33V53.663zm-240 80c0-.182.15-.33.33-.33h12.674c.182 0 .33.15.33.33v12.674c0 .182-.15.33-.33.33H13.663a.331.331 0 0 1-.33-.33v-12.674zm26.667 0c0-.182.15-.33.33-.33h12.674c.182 0 .33.15.33.33v12.674c0 .182-.15.33-.33.33H40.33a.331.331 0 0 1-.33-.33v-12.674zm26.667 0c0-.182.15-.33.33-.33H79.67c.182 0 .33.15.33.33v12.674c0 .182-.15.33-.33.33H66.996a.331.331 0 0 1-.33-.33v-12.674zm26.666 0c0-.182.15-.33.33-.33h12.674c.182 0 .33.15.33.33v12.674c0 .182-.15.33-.33.33H93.663a.331.331 0 0 1-.33-.33v-12.674zm26.667 0c0-.182.15-.33.33-.33h12.674c.182 0 .33.15.33.33v12.674c0 .182-.15.33-.33.33H120.33a.331.331 0 0 1-.33-.33v-12.674zm26.667 0c0-.182.15-.33.33-.33h12.673c.182 0 .33.15.33.33v12.674c0 .182-.15.33-.33.33h-12.674a.331.331 0 0 1-.33-.33v-12.674zm26.666 0c0-.182.15-.33.33-.33h12.674c.182 0 .33.15.33.33v12.674c0 .182-.15.33-.33.33h-12.674a.331.331 0 0 1-.33-.33v-12.674zm26.667 0c0-.182.15-.33.33-.33h12.674c.182 0 .33.15.33.33v12.674c0 .182-.15.33-.33.33H200.33a.331.331 0 0 1-.33-.33v-12.674zm26.667 0c0-.182.15-.33.33-.33h12.673c.182 0 .33.15.33.33v12.674c0 .182-.15.33-.33.33h-12.674a.331.331 0 0 1-.33-.33v-12.674zm26.666 0c0-.182.15-.33.33-.33h12.674c.182 0 .33.15.33.33v12.674c0 .182-.15.33-.33.33h-12.674a.331.331 0 0 1-.33-.33v-12.674z" fill-opacity=".5" fill="#FFF" mask="url(#b)"/><path d="M126.664 85.546a19.61 19.61 0 0 0-6.33 14.454c0 10.862 8.804 19.667 19.666 19.667s19.667-8.805 19.667-19.667c0-5.46-2.236-10.56-6.11-14.247l-26.893-.207z" stroke="#D80915" stroke-width=".667" mask="url(#b)"/><rect fill="#D80915" mask="url(#b)" x="133.333" y="93.333" width="13.333" height="26.667" rx=".667"/></g></svg>