<svg width="280" height="200" viewBox="0 0 280 200" xmlns="http://www.w3.org/2000/svg" xmlns:xlink="http://www.w3.org/1999/xlink"><title>JE</title><defs><rect id="a" width="280" height="200" rx="2"/><path d="M.667 38.333V14.667c0-.736.596-1.334 1.33-1.334h37.339c.735 0 1.33.597 1.33 1.334v23.666c0 17.857-20 25-20 25s-20-7.143-20-25z" id="c"/></defs><g fill="none" fill-rule="evenodd"><mask id="b" fill="#fff"><use xlink:href="#a"/></mask><use fill="#FFF" xlink:href="#a"/><rect stroke="#F5F5F5" stroke-width=".5" x=".25" y=".25" width="279.5" height="199.5" rx="2"/><path fill="#E3243B" mask="url(#b)" transform="rotate(-55 146.59 104.732)" d="M133.257-141.935h26.667v493.333h-26.667z"/><path fill="#E3243B" mask="url(#b)" transform="scale(-1 1) rotate(-55 0 386.33)" d="M133.257-141.935h26.667v493.333h-26.667z"/><g mask="url(#b)"><g transform="translate(126 13.333)"><path d="M9.926 13.333l.873-.512L.93 7.123 13.69 8.548 11.895 0l8.772 7.123L29.438 0l-1.794 8.548 12.759-1.425-9.868 5.698.873.512H9.926z" fill="#FAEF32"/><mask id="d" fill="#fff"><use xlink:href="#c"/></mask><use fill="#E3243B" xlink:href="#c"/><rect fill="#FAEF32" mask="url(#d)" x="17.333" y="53.333" width="6.667" height="6.667" rx="3.333"/><rect fill="#FAEF32" mask="url(#d)" x="7.333" y="40" width="26.667" height="6.667" rx="3.333"/><rect fill="#FAEF32" mask="url(#d)" x="7.333" y="26.667" width="26.667" height="6.667" rx="3.333"/></g></g></g></svg>