<svg width="280" height="200" viewBox="0 0 280 200" xmlns="http://www.w3.org/2000/svg" xmlns:xlink="http://www.w3.org/1999/xlink"><title>KE</title><defs><rect id="a" width="280" height="200" rx="2"/><path d="M33.333 134c13.334 0 33.334-26.166 33.334-66.667 0-40.5-20-66.666-33.334-66.666C20 .667 0 26.832 0 67.333S20 134 33.333 134z" id="c"/><linearGradient x1="50%" y1="0%" x2="50%" y2="100%" id="g"><stop stop-color="#FFF" offset="0%"/><stop stop-color="#F0F0F0" offset="100%"/></linearGradient><path d="M33.333 87.333c-3.682 0-6.666-8.954-6.666-20 0-11.045 2.984-20 6.666-20 3.682 0 6.667 8.955 6.667 20 0 11.046-2.985 20-6.667 20zm0-40c-3.682 0-6.666-11.939-6.666-26.666C26.667 5.939 29.65-6 33.333-6 37.015-6 40 5.94 40 20.667c0 14.727-2.985 26.666-6.667 26.666zm0 93.334c-3.682 0-6.666-11.94-6.666-26.667 0-14.728 2.984-26.667 6.666-26.667C37.015 87.333 40 99.273 40 114c0 14.728-2.985 26.667-6.667 26.667z" id="f"/><filter x="-3.8%" y="-.3%" width="107.5%" height="101.4%" filterUnits="objectBoundingBox" id="e"><feOffset dy="1" in="SourceAlpha" result="shadowOffsetOuter1"/><feColorMatrix values="0 0 0 0 0 0 0 0 0 0 0 0 0 0 0 0 0 0 0.06 0" in="shadowOffsetOuter1"/></filter></defs><g fill="none" fill-rule="evenodd"><mask id="b" fill="#fff"><use xlink:href="#a"/></mask><use fill="#FFF" xlink:href="#a"/><path fill="#262626" mask="url(#b)" d="M0 0h280v53.333H0z"/><path fill="#018301" mask="url(#b)" d="M0 146.667h280V200H0z"/><path fill="#FFF" mask="url(#b)" d="M0 53.333h280v93.333H0z"/><path fill="#DC0808" mask="url(#b)" d="M0 66.667h280v66.667H0z"/><g transform="translate(106.667 32.667)" mask="url(#b)"><mask id="d" fill="#fff"><use xlink:href="#c"/></mask><use fill="#BC0000" xlink:href="#c"/><ellipse fill="#262626" mask="url(#d)" cx="-20" cy="67.333" rx="33.333" ry="73.333"/><ellipse fill="#262626" mask="url(#d)" cx="86.667" cy="67.333" rx="33.333" ry="73.333"/><g mask="url(#d)"><use fill="#000" filter="url(#e)" xlink:href="#f"/><use fill="url(#g)" xlink:href="#f"/></g></g></g></svg>