<svg width="280" height="200" viewBox="0 0 280 200" xmlns="http://www.w3.org/2000/svg" xmlns:xlink="http://www.w3.org/1999/xlink"><title>KG</title><defs><rect id="a" width="280" height="200" rx="2"/></defs><g fill="none" fill-rule="evenodd"><mask id="b" fill="#fff"><use xlink:href="#a"/></mask><use fill="#FFF" xlink:href="#a"/><path fill="#F22A46" mask="url(#b)" d="M0 0h280v200H0z"/><circle fill="#FFF04D" mask="url(#b)" cx="140" cy="100" r="33.333"/><path d="M140 147.136l-16.318 24.359-4.134-29.027-25.27 14.866 8.87-27.945-29.22 2.43 20.118-21.33L66.666 100l27.38-10.489-20.117-21.33 29.218 2.43-8.87-27.945 25.271 14.866 4.134-29.027L140 52.864l16.318-24.359 4.134 29.027 25.27-14.866-8.87 27.945 29.22-2.43-20.118 21.33L213.334 100l-27.38 10.489 20.117 21.33-29.218-2.43 8.87 27.945-25.271-14.866-4.134 29.027L140 147.136zm0-.47c25.773 0 46.667-20.893 46.667-46.666 0-25.773-20.894-46.667-46.667-46.667-25.773 0-46.667 20.894-46.667 46.667 0 25.773 20.894 46.667 46.667 46.667z" fill="#FFF04D" mask="url(#b)"/></g></svg>