<svg width="280" height="200" viewBox="0 0 280 200" xmlns="http://www.w3.org/2000/svg" xmlns:xlink="http://www.w3.org/1999/xlink"><title>KH</title><defs><rect id="a" width="280" height="200" rx="2"/></defs><g fill="none" fill-rule="evenodd"><mask id="b" fill="#fff"><use xlink:href="#a"/></mask><use fill="#FFF" xlink:href="#a"/><path fill="#0F3EB6" mask="url(#b)" d="M0 0h280v53.333H0zM0 146.667h280V200H0z"/><path fill="#ED1A3C" mask="url(#b)" d="M0 53.333h280v93.333H0z"/><path d="M100 106.667h13.333v26.666H86.667L100 106.667zm20 0h40v26.666h-40v-26.666zm46.667 0H180l13.333 26.666h-26.666v-26.666zm0-26.002c0-.367.303-.665.66-.665h12.012c.365 0 .661.298.661.665V100h-13.333V80.665zM120 87.272h13.333V74.006c0-.372.304-.673.662-.673h12.01a.66.66 0 0 1 .662.673v13.266H160V100h-40V87.272zm-20-6.607c0-.367.304-.665.661-.665h12.011c.365 0 .661.298.661.665V100H100V80.665z" fill="#FFF" mask="url(#b)"/></g></svg>