<svg width="217" height="200" viewBox="0 0 217 200" xmlns="http://www.w3.org/2000/svg" xmlns:xlink="http://www.w3.org/1999/xlink"><title>KM</title><defs><rect id="a" width="280" height="200" rx="2"/></defs><g fill="none" fill-rule="evenodd"><mask id="b" fill="#fff"><use xlink:href="#a"/></mask><use fill="#FFF" xlink:href="#a"/><rect stroke="#F5F5F5" stroke-width=".5" x=".25" y=".25" width="279.5" height="199.5" rx="2"/><path fill="#FFCB49" mask="url(#b)" d="M0 0h280v53.333H0z"/><path fill="#DC1D34" mask="url(#b)" d="M0 93.333h280v53.333H0z"/><path fill="#4985D4" mask="url(#b)" d="M0 146.667h280V200H0z"/><path fill="#4BA343" mask="url(#b)" d="M0 200l133.333-100L0 0z"/><path d="M63.333 61.26a40.072 40.072 0 0 0-10-1.26c-22.091 0-40 17.909-40 40s17.909 40 40 40c3.453 0 6.804-.438 10-1.26-17.252-4.44-30-20.102-30-38.74s12.748-34.3 30-38.74zm10 18.74a6.667 6.667 0 1 1 0-13.333 6.667 6.667 0 0 1 0 13.333zm0 26.667a6.667 6.667 0 1 1 0-13.334 6.667 6.667 0 0 1 0 13.334zm0 26.666a6.667 6.667 0 1 1 0-13.333 6.667 6.667 0 0 1 0 13.333z" fill="#FFF" mask="url(#b)"/></g></svg>