<svg width="280" height="200" viewBox="0 0 280 200" xmlns="http://www.w3.org/2000/svg" xmlns:xlink="http://www.w3.org/1999/xlink"><title>KN</title><defs><rect id="a" width="280" height="200" rx="2"/></defs><g fill="none" fill-rule="evenodd"><mask id="b" fill="#fff"><use xlink:href="#a"/></mask><use fill="#FFF" xlink:href="#a"/><path fill="#1EC160" mask="url(#b)" d="M0 133.333L280 0H0z"/><path fill="#DF2A40" mask="url(#b)" d="M0 200h280V66.667z"/><path fill="#FFD956" mask="url(#b)" d="M7.84 253.334L335.75 48.432 272.16-53.334-55.752 151.568z"/><path fill="#262626" mask="url(#b)" d="M-6.292 230.72L321.62 25.816 286.292-30.72-41.62 174.183z"/><path fill="#FFF" mask="url(#b)" d="M203.094 77.974l-9.454 14.974-6.134-16.612-17.163-4.364 13.904-10.968-1.153-17.67 14.727 9.833 16.45-6.557-4.802 17.045 11.32 13.619zM96.427 142.641l-9.454 14.974-6.134-16.612-17.162-4.365 13.903-10.967L76.427 108l14.727 9.833 16.45-6.557-4.801 17.045 11.319 13.618z"/></g></svg>