<svg width="280" height="200" viewBox="0 0 280 200" xmlns="http://www.w3.org/2000/svg" xmlns:xlink="http://www.w3.org/1999/xlink"><title>KP</title><defs><rect id="a" width="280" height="200" rx="2"/></defs><g fill="none" fill-rule="evenodd"><mask id="b" fill="#fff"><use xlink:href="#a"/></mask><use fill="#FFF" xlink:href="#a"/><path fill="#1461B6" mask="url(#b)" d="M0 0h280v40H0zm0 160h280v40H0z"/><path fill="#FFF" mask="url(#b)" d="M0 40h280v120H0z"/><path fill="#F53846" mask="url(#b)" d="M0 53.333h280v93.333H0z"/><path d="M100 133.333c-18.41 0-33.333-14.924-33.333-33.333 0-18.41 14.924-33.333 33.333-33.333 18.41 0 33.333 14.924 33.333 33.333 0 18.41-14.924 33.333-33.333 33.333zm0-19.957l19.593 13.591-6.872-22.834 18.98-14.434-23.839-.52L100 66.667l-7.862 22.512-23.84.52 18.98 14.434-6.87 22.834L100 113.376z" fill="#FFF" mask="url(#b)"/></g></svg>