<svg width="280" height="200" viewBox="0 0 280 200" xmlns="http://www.w3.org/2000/svg" xmlns:xlink="http://www.w3.org/1999/xlink"><title>KR</title><defs><rect id="a" width="280" height="200" rx="2"/><circle id="c" cx="46.667" cy="46.667" r="46.667"/></defs><g fill="none" fill-rule="evenodd"><mask id="b" fill="#fff"><use xlink:href="#a"/></mask><use fill="#FFF" xlink:href="#a"/><rect stroke="#F5F5F5" stroke-width=".5" x=".25" y=".25" width="279.5" height="199.5" rx="2"/><g transform="translate(93.333 53.333)" mask="url(#b)"><mask id="d" fill="#fff"><use xlink:href="#c"/></mask><use fill="#E01B41" xlink:href="#c"/><path d="M0 53.333c13.333 12.5 33.333 20 46.667 0 13.333-20 40-20 46.666 0 6.667 20 0 40 0 40H0s-13.333-52.5 0-40z" fill="#0E4B9C" mask="url(#d)"/></g><path d="M187.902 49.635a.333.333 0 0 1 .118-.454l10.977-6.337a.329.329 0 0 1 .452.125l19.666 34.062a.333.333 0 0 1-.118.454l-10.977 6.337a.329.329 0 0 1-.452-.124l-19.666-34.063zm17.32-10a.333.333 0 0 1 .119-.454l10.976-6.337a.329.329 0 0 1 .452.125l19.667 34.062a.333.333 0 0 1-.119.454l-10.976 6.337a.329.329 0 0 1-.452-.124l-19.667-34.063zM43.564 132.97a.333.333 0 0 1 .119-.454l10.976-6.337a.329.329 0 0 1 .452.124l19.667 34.063a.333.333 0 0 1-.119.454l-10.976 6.337a.329.329 0 0 1-.452-.125L43.564 132.97zm17.32-10a.333.333 0 0 1 .12-.454l10.976-6.337a.329.329 0 0 1 .452.124l19.666 34.063a.333.333 0 0 1-.118.454l-10.977 6.337a.329.329 0 0 1-.452-.125L60.885 122.97zm146.684-6.667a.333.333 0 0 1 .452-.124l10.977 6.337c.157.09.213.29.118.454L199.45 157.03a.333.333 0 0 1-.452.125l-10.977-6.337a.329.329 0 0 1-.118-.454l19.666-34.063zm17.32 10a.333.333 0 0 1 .453-.124l10.976 6.337c.158.09.213.29.119.454l-19.667 34.062a.333.333 0 0 1-.452.125l-10.976-6.337a.329.329 0 0 1-.119-.454l19.667-34.063zM63.232 32.969a.333.333 0 0 1 .452-.125l10.976 6.337c.158.091.213.29.119.454L55.11 73.698a.333.333 0 0 1-.452.124l-10.976-6.337a.329.329 0 0 1-.119-.454L63.231 32.97zm17.32 10a.333.333 0 0 1 .452-.125l10.977 6.337c.157.091.213.29.118.454L72.432 83.698a.333.333 0 0 1-.452.124l-10.977-6.337a.329.329 0 0 1-.118-.454L80.55 42.97z" fill="#262626" opacity=".75" mask="url(#b)"/></g></svg>