<svg width="280" height="200" viewBox="0 0 280 200" xmlns="http://www.w3.org/2000/svg" xmlns:xlink="http://www.w3.org/1999/xlink"><title>KZ</title><defs><rect id="a" width="280" height="200" rx="2"/></defs><g fill="none" fill-rule="evenodd"><mask id="b" fill="#fff"><use xlink:href="#a"/></mask><use fill="#FFF" xlink:href="#a"/><path fill="#30C6E0" mask="url(#b)" d="M0 0h280v200H0z"/><circle fill="#FFCD4B" mask="url(#b)" cx="140" cy="100" r="40"/><path d="M140 147.136l-16.318 24.359-4.134-29.027-25.27 14.866 8.87-27.945-29.22 2.43 20.118-21.33L66.666 100l27.38-10.489-20.117-21.33 29.218 2.43-8.87-27.945 25.271 14.866 4.134-29.027L140 52.864l16.318-24.359 4.134 29.027 25.27-14.866-8.87 27.945 29.22-2.43-20.118 21.33L213.334 100l-27.38 10.489 20.117 21.33-29.218-2.43 8.87 27.945-25.271-14.866-4.134 29.027L140 147.136zm0-.47c25.773 0 46.667-20.893 46.667-46.666 0-25.773-20.894-46.667-46.667-46.667-25.773 0-46.667 20.894-46.667 46.667 0 25.773 20.894 46.667 46.667 46.667zM13.333 13.663c0-.182.15-.33.33-.33h12.674c.182 0 .33.15.33.33v12.674c0 .182-.15.33-.33.33H13.663a.331.331 0 0 1-.33-.33V13.663zm0 26.667c0-.182.15-.33.33-.33h12.674c.182 0 .33.15.33.33v12.674c0 .182-.15.33-.33.33H13.663a.331.331 0 0 1-.33-.33V40.33zm0 26.666c0-.182.15-.33.33-.33h12.674c.182 0 .33.15.33.33V79.67c0 .182-.15.33-.33.33H13.663a.331.331 0 0 1-.33-.33V66.996zm0 26.667c0-.182.15-.33.33-.33h12.674c.182 0 .33.15.33.33v12.674c0 .182-.15.33-.33.33H13.663a.331.331 0 0 1-.33-.33V93.663zm0 26.667c0-.182.15-.33.33-.33h12.674c.182 0 .33.15.33.33v12.674c0 .182-.15.33-.33.33H13.663a.331.331 0 0 1-.33-.33V120.33zm0 26.666c0-.182.15-.33.33-.33h12.674c.182 0 .33.15.33.33v12.674c0 .182-.15.33-.33.33H13.663a.331.331 0 0 1-.33-.33v-12.674zm0 26.667c0-.182.15-.33.33-.33h12.674c.182 0 .33.15.33.33v12.674c0 .182-.15.33-.33.33H13.663a.331.331 0 0 1-.33-.33v-12.674zm13.334-13.333c0-.182.15-.33.33-.33H39.67c.182 0 .33.15.33.33v12.674c0 .182-.15.33-.33.33H26.996a.331.331 0 0 1-.33-.33V160.33zm0-26.667c0-.182.15-.33.33-.33H39.67c.182 0 .33.15.33.33v12.674c0 .182-.15.33-.33.33H26.996a.331.331 0 0 1-.33-.33v-12.674zm0-26.667c0-.182.15-.33.33-.33H39.67c.182 0 .33.15.33.33v12.674c0 .182-.15.33-.33.33H26.996a.331.331 0 0 1-.33-.33v-12.674zm0-26.666c0-.182.15-.33.33-.33H39.67c.182 0 .33.15.33.33v12.674c0 .182-.15.33-.33.33H26.996a.331.331 0 0 1-.33-.33V80.33zm0-26.667c0-.182.15-.33.33-.33H39.67c.182 0 .33.15.33.33v12.674c0 .182-.15.33-.33.33H26.996a.331.331 0 0 1-.33-.33V53.663zm0-26.667c0-.182.15-.33.33-.33H39.67c.182 0 .33.15.33.33V39.67c0 .182-.15.33-.33.33H26.996a.331.331 0 0 1-.33-.33V26.996z" fill="#FFCD4B" mask="url(#b)"/></g></svg>