<svg width="280" height="200" viewBox="0 0 280 200" xmlns="http://www.w3.org/2000/svg" xmlns:xlink="http://www.w3.org/1999/xlink"><title>LB</title><defs><rect id="a" width="280" height="200" rx="2"/></defs><g fill="none" fill-rule="evenodd"><mask id="b" fill="#fff"><use xlink:href="#a"/></mask><use fill="#FFF" xlink:href="#a"/><rect stroke="#F5F5F5" stroke-width=".5" x=".25" y=".25" width="279.5" height="199.5" rx="2"/><path fill="#F03340" mask="url(#b)" d="M0 0h280v53.333H0zM0 146.667h280V200H0z"/><path d="M132.859 120.475a.664.664 0 0 0 .006-.944l-5.73-5.729c-.258-.259-.75-.398-1.114-.307l-25.375 6.344c-.357.089-.407-.018-.113-.239l25.601-19.2c.294-.221.234-.4-.133-.4h-18.669c-.367 0-.401-.132-.071-.297l25.478-12.74c.328-.163.296-.296-.071-.296h-18.67c-.367 0-.426-.18-.132-.4l25.601-19.2a.94.94 0 0 1 1.066 0l25.601 19.2c.294.22.234.4-.133.4h-18.669c-.367 0-.401.132-.071.297l25.478 12.739c.328.164.296.297-.071.297h-18.67c-.367 0-.426.179-.132.4l25.601 19.2c.295.221.252.33-.113.239l-25.375-6.344c-.356-.09-.852.045-1.114.307l-5.73 5.73a.664.664 0 0 0 .006.943l12.384 12.384c.263.262.176.474-.186.474h-38.678c-.365 0-.452-.21-.186-.474l12.384-12.384z" fill="#1FC065" mask="url(#b)"/></g></svg>