<svg width="280" height="200" viewBox="0 0 280 200" xmlns="http://www.w3.org/2000/svg" xmlns:xlink="http://www.w3.org/1999/xlink"><title>LK</title><defs><rect id="a" width="280" height="200" rx="2"/></defs><g fill="none" fill-rule="evenodd"><mask id="b" fill="#fff"><use xlink:href="#a"/></mask><use fill="#FFF" xlink:href="#a"/><path fill="#FFBF19" mask="url(#b)" d="M0 0h280v200H0z"/><path d="M106.667 13.333h158.665c.737 0 1.335.594 1.335 1.333v170.668c0 .736-.596 1.333-1.335 1.333H106.667V13.333z" fill="#A52531" mask="url(#b)"/><path d="M13.333 14.666c0-.736.597-1.333 1.331-1.333h38.67v173.334h-38.67a1.33 1.33 0 0 1-1.33-1.333V14.666z" fill="#03664F" mask="url(#b)"/><rect fill="#FF6816" mask="url(#b)" x="53.333" y="13.333" width="40" height="173.333" rx=".667"/><path d="M126.667 40A6.667 6.667 0 0 1 120 33.333v-6.666h6.667a6.667 6.667 0 0 1 0 13.333zm120 0a6.667 6.667 0 1 1 0-13.333h6.666v6.666A6.667 6.667 0 0 1 246.667 40zm0 120a6.667 6.667 0 0 1 6.666 6.667v6.666h-6.666a6.667 6.667 0 1 1 0-13.333zm-120 0a6.667 6.667 0 0 1 0 13.333H120v-6.666a6.667 6.667 0 0 1 6.667-6.667zM160 120.661a.667.667 0 0 0-.664-.661h-5.34a4.69 4.69 0 0 1-1.294-.219s-19.369-6.448-19.369-13.114c0-6.667 6.209-12.848 6.209-12.848.253-.268.345-.752.203-1.096 0 0-7.744-18.06-6.412-26.056 1.333-7.996 12.735-13.05 12.735-13.05.33-.156.599.015.599.377v38.678c0 .365.266.795.59.956l12.153 6.077a.974.974 0 0 0 1.059-.174l5.729-5.729c.259-.259.202-.602-.121-.764l-12.744-6.371V80h12.672c.366 0 .395-.133.072-.295l-12.744-6.372v-6.666h12.672c.366 0 .868-.207 1.13-.47l5.73-5.728c.258-.26.772-.469 1.13-.469h12.01c.366 0 .795.266.957.59l6.076 12.153c.163.326.201.873.085 1.222l-6.246 18.737c-.116.349.088.631.456.631h32.001c.368 0 .873-.206 1.135-.468l5.729-5.73c.259-.258.202-.602-.121-.763l-12.154-6.077a3.352 3.352 0 0 0-1.25-.295H200.66a.666.666 0 0 1-.661-.661V67.328c0-.365.207-.868.469-1.13L206.667 60v12.672c0 .365.303.661.663.661h18.675c.366 0 .795.267.957.59l6.076 12.154c.163.325.326.89.362 1.248 0 0 1.346 12.278-.067 19.342-1.412 7.063-6.256 12.817-6.256 12.817-.227.285-.41.815-.41 1.175v25.348c0 .365-.304.66-.662.66h-12.01c-.366 0-.528-.267-.367-.59l6.077-12.154c.163-.325.162-.856 0-1.18l-6.077-12.153c-.163-.326-.295-.286-.295.071v12.011c0 .365-.133.928-.295 1.251l-6.076 12.154c-.163.325-.599.59-.957.59h-12.01c-.366 0-.528-.267-.367-.59l6.077-12.154c.163-.325.295-.893.295-1.25V120.66c0-.365-.3-.661-.66-.661h-25.347a.665.665 0 0 0-.66.661v12.011c0 .365-.133.928-.295 1.251l-6.076 12.154c-.163.325-.599.59-.957.59h-12.01c-.366 0-.528-.267-.367-.59l6.077-12.154c.163-.325.295-.893.295-1.25V120.66z" fill="#FFBF18" mask="url(#b)"/></g></svg>