<svg width="280" height="200" viewBox="0 0 280 200" xmlns="http://www.w3.org/2000/svg" xmlns:xlink="http://www.w3.org/1999/xlink"><title>LS</title><defs><rect id="a" width="280" height="200" rx="2"/></defs><g fill="none" fill-rule="evenodd"><mask id="b" fill="#fff"><use xlink:href="#a"/></mask><use fill="#FFF" xlink:href="#a"/><rect stroke="#F5F5F5" stroke-width=".5" x=".25" y=".25" width="279.5" height="199.5" rx="2"/><path fill="#0C33B8" mask="url(#b)" d="M0 0h280v66.667H0z"/><path fill="#1DB158" mask="url(#b)" d="M0 133.333h280V200H0z"/><path d="M133.333 100l6.456-19.368c.117-.35.305-.35.422 0L146.667 100l13.145 19.717c.104.156.078.388-.051.505 0 0-6.428 6.445-19.761 6.445-13.333 0-19.77-6.453-19.77-6.453-.127-.118-.145-.342-.042-.497L133.333 100z" fill="#262626" mask="url(#b)"/><circle stroke="#262626" stroke-width=".667" mask="url(#b)" cx="140" cy="86.667" r="13"/></g></svg>