<svg width="280" height="200" viewBox="0 0 280 200" xmlns="http://www.w3.org/2000/svg" xmlns:xlink="http://www.w3.org/1999/xlink"><title>LY</title><defs><rect id="a" width="280" height="200" rx="2"/><path id="d" d="M0 66.667h280v66.667H0z"/><filter x="-.5%" y="-2.3%" width="101.1%" height="104.5%" filterUnits="objectBoundingBox" id="c"><feMorphology radius=".5" operator="dilate" in="SourceAlpha" result="shadowSpreadOuter1"/><feOffset in="shadowSpreadOuter1" result="shadowOffsetOuter1"/><feColorMatrix values="0 0 0 0 0 0 0 0 0 0 0 0 0 0 0 0 0 0 0.06 0" in="shadowOffsetOuter1"/></filter><path id="f" d="M0 133.333h280V200H0z"/><filter x="-.5%" y="-2.3%" width="101.1%" height="104.5%" filterUnits="objectBoundingBox" id="e"><feMorphology radius=".5" operator="dilate" in="SourceAlpha" result="shadowSpreadOuter1"/><feOffset in="shadowSpreadOuter1" result="shadowOffsetOuter1"/><feColorMatrix values="0 0 0 0 0 0 0 0 0 0 0 0 0 0 0 0 0 0 0.06 0" in="shadowOffsetOuter1"/></filter></defs><g fill="none" fill-rule="evenodd"><mask id="b" fill="#fff"><use xlink:href="#a"/></mask><use fill="#FFF" xlink:href="#a"/><g mask="url(#b)"><use fill="#000" filter="url(#c)" xlink:href="#d"/><use fill="#262626" xlink:href="#d"/></g><g mask="url(#b)"><use fill="#000" filter="url(#e)" xlink:href="#f"/><use fill="#34B857" xlink:href="#f"/></g><path fill="#F41F34" mask="url(#b)" d="M0 0h280v66.667H0z"/><path d="M151.114 83.37c-.368-.024-.74-.037-1.114-.037-9.205 0-16.667 7.462-16.667 16.667 0 9.205 7.462 16.667 16.667 16.667.374 0 .746-.013 1.114-.037A19.907 19.907 0 0 1 140 120c-11.046 0-20-8.954-20-20s8.954-20 20-20c4.113 0 7.936 1.241 11.114 3.37zm2.22 23.297a6.667 6.667 0 1 1 0-13.334 6.667 6.667 0 0 1 0 13.334z" fill="#FFF" mask="url(#b)"/></g></svg>