<svg width="280" height="200" viewBox="0 0 280 200" xmlns="http://www.w3.org/2000/svg" xmlns:xlink="http://www.w3.org/1999/xlink"><title>ME</title><defs><rect id="a" width="280" height="200" rx="2"/></defs><g fill="none" fill-rule="evenodd"><mask id="b" fill="#fff"><use xlink:href="#a"/></mask><use fill="#FFF" xlink:href="#a"/><path fill="#E6BE53" mask="url(#b)" d="M0 0h280v200H0z"/><rect fill="#E01826" mask="url(#b)" x="13.333" y="13.333" width="253.333" height="173.333" rx="1"/><path d="M139.531 72.865a.66.66 0 0 0 .938 0l5.729-5.73.943-.943 12.384-12.384c.263-.262.741-.341 1.065-.18l12.153 6.077c.326.163.384.502.122.764l-5.73 5.729-.943.943-12.384 12.384c-.262.263-.341.741-.18 1.065l6.077 12.153c.163.326.295.894.295 1.254v5.34c0 .366.266.53.59.368l12.153-6.077c.326-.163.384-.501.122-.763l-5.73-5.73a.66.66 0 0 1 0-.937l5.73-5.73c.258-.258.602-.734.763-1.058l6.077-12.153c.163-.326.365-.872.456-1.236l6.344-25.375c.09-.357.34-.407.561-.113l19.201 25.601c.22.294.4.832.4 1.192v25.348c0 .364-.134.926-.295 1.25l-6.077 12.153a4.88 4.88 0 0 1-.77 1.064l-12.384 12.384c-.262.263-.74.608-1.064.77l-12.154 6.077a3.352 3.352 0 0 1-1.25.295H160.66c-.365 0-.395.133-.07.295l12.152 6.076a4.85 4.85 0 0 1 1.06.764l5.728 5.73a.66.66 0 0 0 .938 0l5.729-5.73a.66.66 0 0 1 .937 0l5.73 5.73c.258.258.335.734.173 1.058l-6.076 12.153c-.163.326-.599.59-.957.59h-12.01a3.33 3.33 0 0 1-1.252-.295l-12.153-6.076c-.326-.163-.723-.562-.885-.885l-6.077-12.154c-.163-.325-.501-.383-.763-.12l-5.73 5.728a.85.85 0 0 0-.098 1.025l12.592 18.888a.671.671 0 0 1-.185.927l-18.888 12.592c-.307.204-.809.202-1.112 0l-18.888-12.592a.671.671 0 0 1-.185-.927l12.592-18.888a.841.841 0 0 0-.098-1.025l-5.73-5.729c-.258-.259-.602-.202-.763.121l-6.077 12.154c-.163.325-.561.723-.885.885l-12.153 6.076a3.352 3.352 0 0 1-1.252.295h-12.01c-.366 0-.795-.266-.957-.59l-6.076-12.153a.974.974 0 0 1 .173-1.059l5.73-5.729a.66.66 0 0 1 .937 0l5.73 5.73a.66.66 0 0 0 .937 0l5.729-5.73a4.894 4.894 0 0 1 1.059-.764l12.153-6.076c.326-.163.286-.295-.071-.295h-12.011a3.33 3.33 0 0 1-1.251-.295l-12.154-6.077a4.88 4.88 0 0 1-1.064-.77l-12.384-12.384a4.924 4.924 0 0 1-.77-1.064l-6.077-12.154a3.333 3.333 0 0 1-.295-1.249V67.326c0-.364.18-.898.4-1.192l19.2-25.601c.221-.295.47-.252.562.113l6.344 25.375c.089.356.294.912.456 1.236l6.077 12.153c.163.326.501.797.763 1.059l5.73 5.729a.66.66 0 0 1 0 .937l-5.73 5.73c-.258.258-.202.602.122.763l12.153 6.077c.326.163.59-.009.59-.369v-5.34c0-.366.133-.929.295-1.253l6.077-12.153c.163-.326.085-.8-.18-1.065l-12.384-12.384-.943-.943-5.73-5.73c-.258-.258-.202-.601.122-.763l12.153-6.077c.326-.163.8-.085 1.065.18l12.384 12.384.943.943 5.73 5.73zm-19.056-32.39c-.263-.263-.192-.57.157-.686l18.736-6.245c.35-.116.915-.116 1.264 0l18.736 6.245c.35.117.423.42.157.686l-12.384 12.384c-.262.262-.778.474-1.136.474h-12.01c-.366 0-.871-.21-1.136-.474l-12.384-12.384z" fill="#E6BE53" mask="url(#b)"/><path d="M126.667 126c0 .369.096.384.218.035 0 0 6.448-19.368 13.115-19.368s13.119 19.38 13.119 19.38c.118.342.214.329.214-.046v-12.668c0-11.045-5.97-20-13.333-20-7.364 0-13.333 8.955-13.333 20v12.668z" fill="#215F90" mask="url(#b)"/></g></svg>