<svg width="280" height="200" viewBox="0 0 280 200" xmlns="http://www.w3.org/2000/svg" xmlns:xlink="http://www.w3.org/1999/xlink"><title>MK</title><defs><rect id="a" width="280" height="200" rx="2"/></defs><g fill="none" fill-rule="evenodd"><mask id="b" fill="#fff"><use xlink:href="#a"/></mask><use fill="#FFF" xlink:href="#a"/><path fill="#E81B26" mask="url(#b)" d="M0 0h280v200H0z"/><circle fill="#FFE94F" mask="url(#b)" cx="140" cy="100" r="33.333"/><path d="M186.203 93.4L280 80v40l-93.797-13.4c.306-2.156.464-4.36.464-6.6 0-2.24-.158-4.444-.464-6.6zM171.02 65.135l89.363-100.441L287.15-5.581l-109.23 78.374a46.932 46.932 0 0 0-6.899-7.658zm0 69.73l89.363 100.441 26.766-29.725-109.23-78.374a46.932 46.932 0 0 1-6.899 7.658zm-40.174-80.634L120 0h40l-10.846 54.23a46.892 46.892 0 0 0-9.154-.897c-3.133 0-6.194.31-9.154.898zm18.308 91.538L160 200h-40l10.846-54.23c2.96.588 6.021.897 9.154.897s6.194-.31 9.154-.898z" fill="#FFE94F" mask="url(#b)"/></g></svg>