<svg width="280" height="200" viewBox="0 0 280 200" xmlns="http://www.w3.org/2000/svg" xmlns:xlink="http://www.w3.org/1999/xlink"><title>MN</title><defs><rect id="a" width="280" height="200" rx="2"/><linearGradient x1="50%" y1="0%" x2="50%" y2="100%" id="c"><stop stop-color="#F8D246" offset="0%"/><stop stop-color="#F9CE2F" offset="100%"/></linearGradient></defs><g fill="none" fill-rule="evenodd"><mask id="b" fill="#fff"><use xlink:href="#a"/></mask><use fill="#FFF" xlink:href="#a"/><path fill="#146BBC" mask="url(#b)" d="M93.333 0h93.333v200H93.333z"/><path fill="#E43642" mask="url(#b)" d="M0 0h93.333v200H0zm186.667 0H280v200h-93.333z"/><path d="M53.333 120h13.334v40H53.333v-40zm-26.666 0H40v40H26.667v-40zM40 146.667h13.333L46.667 160 40 146.667zM40 120h13.333l-6.666 13.333L40 120zm0-13.333L46.667 100l6.666 6.667H40zM46.667 120a6.667 6.667 0 1 1 0-13.333 6.667 6.667 0 0 1 0 13.333zm0 26.667a6.667 6.667 0 1 1 0-13.334 6.667 6.667 0 0 1 0 13.334z" fill="url(#c)" mask="url(#b)"/></g></svg>