<svg width="280" height="200" viewBox="0 0 280 200" xmlns="http://www.w3.org/2000/svg" xmlns:xlink="http://www.w3.org/1999/xlink"><title>MO</title><defs><rect id="a" width="280" height="200" rx="2"/></defs><g fill="none" fill-rule="evenodd"><mask id="b" fill="#fff"><use xlink:href="#a"/></mask><use fill="#FFF" xlink:href="#a"/><path fill="#079D7B" mask="url(#b)" d="M0 0h280v200H0z"/><g mask="url(#b)"><path d="M112.691 118.697c1.908.507 3.793.94 5.64 1.303H86.668a61.29 61.29 0 0 0 6.305 13.333h94.056A61.29 61.29 0 0 0 193.333 120h-32.096a87.017 87.017 0 0 0 5.827-1.295c-6.052.201-15.92 1.295-27.064 1.295-11.296 0-21.28-1.124-27.309-1.303zm-5.56-1.672c-14.943-5.045-25.184-13.136-23.574-19.144 1.796-6.704 17.668-8.276 35.45-3.512.933.25 1.854.513 2.76.787a57.89 57.89 0 0 1-.617-8.49c0-18.409 8.44-33.333 18.85-33.333 10.41 0 18.85 14.924 18.85 33.334 0 2.918-.212 5.75-.61 8.447a89.179 89.179 0 0 1 3.123-.898c17.782-4.765 33.654-3.192 35.45 3.512 1.623 6.058-8.805 14.235-23.953 19.27-2.677-7.937-16.37-10.331-32.86-10.331-16.508 0-30.214 2.4-32.868 10.358zm68.417 29.642C165.835 155.005 153.468 160 140 160c-13.467 0-25.835-4.995-35.548-13.333h71.096z" fill="#FFF"/><path d="M140 40a6.667 6.667 0 1 1 0-13.333A6.667 6.667 0 0 1 140 40zM86.667 73.333a6.667 6.667 0 1 1 0-13.333 6.667 6.667 0 0 1 0 13.333zm106.666 0a6.667 6.667 0 1 1 0-13.333 6.667 6.667 0 0 1 0 13.333zm-20-20a6.667 6.667 0 1 1 0-13.333 6.667 6.667 0 0 1 0 13.333zm-66.666 0a6.667 6.667 0 1 1 0-13.333 6.667 6.667 0 0 1 0 13.333z" fill="#FCD117"/></g></g></svg>