<svg width="280" height="200" viewBox="0 0 280 200" xmlns="http://www.w3.org/2000/svg" xmlns:xlink="http://www.w3.org/1999/xlink"><title>MR</title><defs><rect id="a" width="280" height="200" rx="2"/></defs><g fill="none" fill-rule="evenodd"><mask id="b" fill="#fff"><use xlink:href="#a"/></mask><use fill="#FFF" xlink:href="#a"/><path fill="#108B4D" mask="url(#b)" d="M0 0h280v200H0z"/><path d="M198.136 77.333c.486 3.075.738 6.227.738 9.438 0 33.137-26.862 60-60 60-33.137 0-60-26.863-60-60 0-3.211.253-6.363.738-9.438 4.527 28.654 29.336 50.563 59.262 50.563 29.927 0 54.736-21.91 59.262-50.563zM140 85.641L123.52 97.39l6.08-19.305-16.267-12.044 20.24-.182L140 46.667l6.428 19.192 20.239.182L150.4 78.085l6.08 19.305L140 85.64z" fill="#FFC941" mask="url(#b)"/></g></svg>