<svg width="280" height="200" viewBox="0 0 280 200" xmlns="http://www.w3.org/2000/svg" xmlns:xlink="http://www.w3.org/1999/xlink"><title>MY</title><defs><rect id="a" width="280" height="200" rx="2"/></defs><g fill="none" fill-rule="evenodd"><mask id="b" fill="#fff"><use xlink:href="#a"/></mask><use fill="#FFF" xlink:href="#a"/><path d="M133.333 0H280v13.333H133.333V0zm0 26.667H280V40H133.333V26.667zm0 26.666H280v13.334H133.333V53.333zm0 26.667H280v13.333H133.333V80zM0 106.667h280V120H0v-13.333zm0 26.666h280v13.334H0v-13.334zM0 160h280v13.333H0V160zm0 26.667h280V200H0v-13.333z" fill="#E1244A" mask="url(#b)"/><path fill="#0C3F8E" mask="url(#b)" d="M0 0h160v106.667H0z"/><path d="M91.648 22.092A33.263 33.263 0 0 0 80 20c-18.41 0-33.333 14.924-33.333 33.333 0 18.41 14.924 33.334 33.333 33.334 4.098 0 8.022-.74 11.648-2.092a39.831 39.831 0 0 1-24.981 8.758c-22.092 0-40-17.908-40-40 0-22.091 17.908-40 40-40a39.831 39.831 0 0 1 24.981 8.759zm15.019 42.175l-11.57 13.092 3.022-17.209-17.45-.883L96.007 50.9l-10.19-14.193 16.106 6.776 4.744-16.816 4.743 16.816 16.106-6.776-10.19 14.193 15.339 8.367-17.45.883 3.022 17.21-11.57-13.093z" fill="#FFD34F" mask="url(#b)"/></g></svg>