<svg width="280" height="200" viewBox="0 0 280 200" xmlns="http://www.w3.org/2000/svg" xmlns:xlink="http://www.w3.org/1999/xlink"><title>NA</title><defs><rect id="a" width="280" height="200" rx="2"/></defs><g fill="none" fill-rule="evenodd"><mask id="b" fill="#fff"><use xlink:href="#a"/></mask><use fill="#FFF" xlink:href="#a"/><path fill="#0C4799" mask="url(#b)" d="M0 133.333L280 0H0z"/><path fill="#FFD243" mask="url(#b)" d="M46.667 60L36.462 71.303l.777-15.208-15.21.777 11.304-10.205L22.03 36.462l15.209.777-.777-15.21 10.205 11.304L56.872 22.03l-.777 15.209 15.208-.777L60 46.667l11.303 10.205-15.208-.777.777 15.208z"/><path fill="#1BAC55" mask="url(#b)" d="M0 200h280V66.667z"/><path fill="#FFF" mask="url(#b)" d="M30.824 226.667L301.707 57.4l-52.53-84.067L-21.708 142.6z"/><path fill="#E52347" mask="url(#b)" d="M-6.292 230.72L321.62 25.816l-35.328-56.536L-41.62 174.183z"/></g></svg>