<svg width="280" height="200" viewBox="0 0 280 200" xmlns="http://www.w3.org/2000/svg" xmlns:xlink="http://www.w3.org/1999/xlink"><title>NP</title><defs><rect id="a" width="280" height="200" rx="2"/><path d="M0 1.996C0 .893.887 0 2.004 0h24.003c.365 0 .909.166 1.208.365L185.56 105.93c.611.407.507.738-.223.738H80l105.662 92.454c.555.485.401.879-.338.879H2A1.997 1.997 0 0 1 0 198.004V1.996z" id="b"/><path d="M0 0h26.007c.365 0 .909.166 1.208.365L185.56 105.93c.611.407.507.738-.223.738H80l105.662 92.454c.555.485.401.879-.338.879H0V0z" id="d"/></defs><g fill="none" fill-rule="evenodd"><use fill="#FFF" xlink:href="#a"/><rect stroke="#F5F5F5" stroke-width=".5" x=".25" y=".25" width="279.5" height="199.5" rx="2"/><mask id="c" fill="#fff"><use xlink:href="#b"/></mask><use fill="#FFF" xlink:href="#b"/><g mask="url(#c)"><use fill="#EE1B44" xlink:href="#d"/><path stroke="#0543A8" stroke-width="1.333" d="M.667.667v198.666h184.225L78.226 106h106.239L26.845.92a1.938 1.938 0 0 0-.838-.253H.667z"/></g><path d="M68.51 78.008c3.842-1.053 7.383-2.493 10.515-4.247-3.106 11.284-13.442 19.572-25.712 19.572-12.271 0-22.607-8.288-25.713-19.572 3.14 1.76 6.693 3.202 10.546 4.255l5.187-4.683-8.477-7.653 11.406.582-.582-11.406 7.653 8.477 7.654-8.477-.583 11.406 11.407-.582-8.478 7.653 5.178 4.675zM53.334 160l-10.205 11.303.777-15.208-15.208.777L40 146.667l-11.303-10.205 15.208.777-.777-15.21 10.205 11.304 10.205-11.303-.777 15.209 15.21-.777-11.304 10.205 11.303 10.205-15.209-.777.777 15.208L53.333 160z" fill="#FFF" mask="url(#c)"/></g></svg>