<svg width="497" height="373" viewBox="0 0 497 373" xmlns="http://www.w3.org/2000/svg" xmlns:xlink="http://www.w3.org/1999/xlink"><title>nu</title><defs><path id="a" d="M0 0h496.06v372.05H0z"/></defs><g fill="none" fill-rule="evenodd"><mask id="b" fill="#fff"><use xlink:href="#a"/></mask><g mask="url(#b)"><path fill="#FFF" d="M-.672 0h304.776v151.366H-.672z"/><path fill="#C00" fill-rule="nonzero" d="M-.672 0l-.012 11.36 72.73 37.371 27.369.793L-.673 0z"/><path fill="#006" fill-rule="nonzero" d="M30.468 0l88.178 46.057V.001H30.474z"/><path fill="#C00" fill-rule="nonzero" d="M130.406 0v58.797H-.668v33.598h131.074v58.797h40.332V92.395h131.074V58.797H170.738V0z"/><path fill="#006" fill-rule="nonzero" d="M182.497 0v43.398L268.759.337z"/><path fill="#C00" fill-rule="nonzero" d="M185.224 48.13l24.258-.196L303.73.336l-25.008.408z"/><path fill="#006" fill-rule="nonzero" d="M-.672 102.192v32.198l60.497-31.86-60.497-.341z"/><path d="M232.287 103.522l-25.219-.196 95.066 47.332-.625-10.829-69.222-36.307zM22.95 151.458l89.142-46.801-23.416.158-89.349 46.576 23.623.067z" fill="#C00" fill-rule="nonzero"/><path d="M303.09 13.297l-71.993 35.7 71.035.266v53.197h-60.498l59.938 32.476.88 16.522-32.015-.383-87.622-43.015v43.398h-63.86V108.06l-82.193 43.28-37.12.118v151.189h604.97V.262L303.728 0l-.639 13.297zM-.353 17.065l-.32 31.4 63.689.798L-.348 17.065h-.004z" fill="#006" fill-rule="nonzero"/><g fill="#FFD900"><path d="M301.967 0h302.647v302.647H301.967z"/><path d="M-.68 151.323h518.57v331.524L-.68 374.268z"/></g><g fill-rule="nonzero"><path d="M176.798 76.44c0 14.41-11.682 26.092-26.092 26.092-14.41 0-26.093-11.682-26.093-26.092 0-14.411 11.682-26.093 26.093-26.093 14.41 0 26.092 11.682 26.092 26.093z" fill="#000067"/><path d="M145.86 69.747l5.018-15.004 5.017 15.003 16.281-.01-13.18 9.257 5.043 14.997-13.164-9.28-13.164 9.277 5.046-14.994-13.179-9.262 16.282.016zm90.629 2.456l2.487-7.023 2.486 7.023 8.07-.005-6.533 4.334 2.5 7.021-6.525-4.345-6.523 4.344 2.5-7.02-6.53-4.336 8.068.007zm-88.27 52.188l2.487-7.023 2.487 7.023 8.07-.005-6.533 4.334 2.5 7.021-6.525-4.345-6.524 4.344 2.5-7.02-6.53-4.336 8.068.007zm0-101.917l2.487-7.024 2.487 7.024 8.07-.005-6.533 4.334 2.5 7.021-6.525-4.345-6.524 4.344 2.5-7.02-6.53-4.336 8.068.007zm-88.542 49.73l2.487-7.024 2.487 7.023 8.068-.005-6.531 4.334 2.499 7.021-6.524-4.345-6.525 4.344 2.501-7.02-6.531-4.336 8.07.007z" fill="#FFF40D"/></g></g></g></svg>