<svg width="280" height="200" viewBox="0 0 280 200" xmlns="http://www.w3.org/2000/svg" xmlns:xlink="http://www.w3.org/1999/xlink"><title>NZ</title><defs><rect id="a" width="280" height="200" rx="2"/><path d="M46.667 40L0 0h6.667l46.666 33.333h13.334L120 0v6.327a.727.727 0 0 1-.274.535L73.333 40v13.333l46.416 39.785c.139.119.112.215-.089.215h-5.987c-.188 0-.457-.084-.614-.195L66.667 60H53.333L0 93.333v-6.666l46.667-33.334V40z" id="c"/></defs><g fill="none" fill-rule="evenodd"><mask id="b" fill="#fff"><use xlink:href="#a"/></mask><use fill="#FFF" xlink:href="#a"/><path fill="#0A17A7" mask="url(#b)" d="M0 0h280v200H0z"/><g mask="url(#b)"><use fill="#FF2E3B" xlink:href="#c"/><path stroke="#FFF" stroke-width=".667" d="M46.333 40.153L-.9-.333h7.568l.193.062L53.44 33h13.131L120.333-.601v6.928c0 .297-.17.633-.413.807L73.667 40.172V53.18l46.299 39.685c.377.323.2.802-.306.802h-5.987c-.259 0-.596-.107-.807-.258L66.56 60.333H53.429L-.333 93.935v-7.44l46.666-33.333V40.153z"/></g><path d="M0 33.333V60h46.667v39.34c0 .364.3.66.659.66h25.348c.364 0 .66-.299.66-.66V60h52.658a.67.67 0 0 0 .675-.66V33.994c0-.365-.3-.66-.675-.66H73.333V0H46.667v33.333H0z" fill="#FFF" mask="url(#b)"/><path fill="#FF2E3B" mask="url(#b)" d="M0 40h53.333V0h13.334v40H120v13.333H66.667v40H53.333v-40H0z"/><path fill="#CA1931" mask="url(#b)" d="M200 173.333l-9.428 2.762 2.761-9.428-2.761-9.428L200 160l9.428-2.761-2.761 9.428 2.761 9.428zM200 46.667l-9.428 2.761L193.333 40l-2.761-9.428L200 33.333l9.428-2.761L206.667 40l2.761 9.428zM240 86.667l-9.428 2.761L233.333 80l-2.761-9.428L240 73.333l9.428-2.761L246.667 80l2.761 9.428zM160 100l-9.428 2.761 2.761-9.428-2.761-9.428L160 86.667l9.428-2.762-2.761 9.428 2.761 9.428z"/></g></svg>