<svg width="280" height="200" viewBox="0 0 280 200" xmlns="http://www.w3.org/2000/svg" xmlns:xlink="http://www.w3.org/1999/xlink"><title>PA</title><defs><rect id="a" width="280" height="200" rx="2"/></defs><g fill="none" fill-rule="evenodd"><mask id="b" fill="#fff"><use xlink:href="#a"/></mask><use fill="#FFF" xlink:href="#a"/><rect stroke="#F5F5F5" stroke-width=".5" x=".25" y=".25" width="279.5" height="199.5" rx="2"/><path d="M0 93.333V0h280v93.333H0zm0 0h133.333V0H0v93.333z" fill="#E52448" mask="url(#b)"/><path d="M0 200V93.333h280V200H0zm133.333 0H280V93.333H133.333V200zM66.667 57.6L50.992 68.24l5.276-18.195-14.963-11.619 18.935-.605L66.667 20l6.426 17.821 18.935.605-14.963 11.62L82.34 68.24z" fill="#1367AE" mask="url(#b)"/><path fill="#E52448" mask="url(#b)" d="M206.667 157.6l-15.675 10.64 5.276-18.195-14.963-11.619 18.935-.605L206.667 120l6.426 17.821 18.935.605-14.963 11.62 5.276 18.194z"/></g></svg>