<svg width="280" height="200" viewBox="0 0 280 200" xmlns="http://www.w3.org/2000/svg" xmlns:xlink="http://www.w3.org/1999/xlink"><title>PF</title><defs><rect id="a" width="280" height="200" rx="2"/><circle id="c" cx="33.333" cy="33.333" r="33.333"/></defs><g fill="none" fill-rule="evenodd"><mask id="b" fill="#fff"><use xlink:href="#a"/></mask><use fill="#FFF" xlink:href="#a"/><rect stroke="#F5F5F5" stroke-width=".5" x=".25" y=".25" width="279.5" height="199.5" rx="2"/><path fill="#D82332" mask="url(#b)" d="M0 0h280v53.333H0zM0 146.667h280V200H0z"/><g mask="url(#b)"><path d="M130.675 107.527l-2.844 1.539c2.571.419 6.138-.069 7.558-1.54h-4.714M107.725 109.173c1.925 1.501 5.113 1.326 7.038.376 1.926-.951 3.34-1.012 4.54-.912.128.847.411 1.933.898 3.007h-11.419a25.89 25.89 0 0 1-1.057-2.471M109.841 114.358c2.242-.805 4.533-.167 5.524.413 1.83 1.072 4.855.781 6.339.173.566.702 1.254 1.392 2.083 1.918H111.57c-.496-.608-1.569-2.103-1.728-2.504M162.981 122.388c.536-.425 1.262-1.124 1.736-1.623-.789-.076-1.706-.52-2.682-.9-1.8-.7-3.52-.7-5.05.125-2.273 1.224-5.114 1.523-7.324.3-2.424-1.343-4.67-1.05-6.565-.2-1.894.849-3.093.9-4.23.9-1.136 0-2.335-.051-4.229-.9-1.894-.85-4.14-1.143-6.565.2-2.21 1.223-5.05.924-7.323-.3-1.531-.825-3.25-.825-5.05-.125-.977.38-1.894.824-2.683.9.474.499 1.2 1.198 1.736 1.623h48.229M157.067 127.743c.504-.249 1.894-1.07 2.588-1.493-.758.124-2.485-.312-3.377-.673-2.59-1.045-4.293-.945-6.218-.149-1.926.797-4.64 1.22-6.628.374-1.989-.846-3.41-1.07-4.451-1.07-1.041 0-2.462.224-4.45 1.07-1.99.846-4.703.423-6.63-.374-1.924-.796-3.628-.896-6.217.15-.892.36-2.62.796-3.377.672.694.423 2.083 1.244 2.588 1.493h36.172M145.684 117.134c-.537-.229-1.164-.763-1.737-1.448-.915-1.096-2.367-1.708-4.545-1.708s-3.63.612-4.545 1.708c-.572.685-1.2 1.219-1.735 1.448h12.562M142.104 111.762c-.221-.173-.694-.72-.852-1.01-.506.073-1.484.102-2.052.102-.568 0-1.546-.029-2.052-.101-.158.288-.63.836-.852 1.009h5.808M147.36 107.527l2.844 1.539c-2.571.419-6.138-.069-7.558-1.54h4.714M170.995 109.173c-1.925 1.501-5.114 1.326-7.038.376-1.926-.951-3.341-1.012-4.541-.912-.128.847-.41 1.933-.897 3.007h11.419c.283-.55.836-1.833 1.057-2.471M169.29 114.358c-2.241-.805-4.532-.167-5.524.413-1.83 1.072-4.855.781-6.338.173-.567.702-1.254 1.392-2.084 1.918h12.218c.496-.608 1.57-2.103 1.728-2.504M151.588 130.428c-3.827 1.317-8.016 2.043-12.405 2.043-4.394 0-8.58-.725-12.41-2.044.82-.08 1.906-.413 2.783-.824 1.42-.666 4.008-.799 5.24-.133 1.23.665 2.714 1.33 4.387 1.33 1.673 0 3.157-.665 4.387-1.33 1.231-.666 3.82-.533 5.24.133.876.41 1.957.746 2.778.825" fill="#064A89"/><path d="M146.252 67.27c-6.912-1.444-13.13-.61-13.13 5.997v18.09c0 1.987.039 2.24 2.367 2.79 5.05 1.194 5.523 1.315 11.015 2.596v-18.6c-4.292-.482-5.934-2.93-5.934-5.774 0-2.758 1.893-4.555 5.682-5.1M128.539 118.285c-3.851 0-7.891-3.4-7.891-9.879v-16.1c0-1.46.162-1.665-.174-2.005-.197-.2.221-.497.505-.786.426-.433.718-.793.143-1.38-.577-.584-.331-.737.032-1.105.363-.37.504-.738.157-1.091s-.426-.465-.047-.85c.378-.385.22-.545-.095-.866-.316-.32-.465-.553-.063-.962.395-.4.425-.465.884-.465h1.894c.442 0 .45.136.078.514-.481.488-.623.68-.078 1.234.544.553.52.738.173 1.09-.521.53-.75.89-.22 1.428.528.537.575.778.173 1.186-.402.409-.443.77 0 1.219.34.345.363.546.363 1.155v16.437c0 2.758 1.956 4.426 5.681 4.426s4.987-1.54 6.06-2.566c-.694 4.94-2.714 9.366-7.575 9.366M139.04 102.55c.426.159.84.928.84 1.763h.843c0-.705-.246-1.796-.693-2.47a2.808 2.808 0 0 0-.058-.48c.311-.482.764-1.252.751-1.99-.008-.465-.453-.448-.505-.08-.043.304-.207.77-.518.93 0-.593-.273-1.298-.66-1.298-.39 0-.662.705-.662 1.299-.31-.16-.475-.627-.518-.93-.052-.37-.497-.386-.505.08-.013.737.44 1.507.751 1.988a2.808 2.808 0 0 0-.058.481c-.447.674-.693 1.765-.693 2.47h.842c0-.835.415-1.604.842-1.764" fill="#514537"/><path d="M133.748 102.55c.427.159.843.928.843 1.763h.841c0-.705-.245-1.796-.693-2.47a2.724 2.724 0 0 0-.058-.48c.311-.482.764-1.252.751-1.99-.007-.465-.453-.448-.505-.08-.043.304-.208.77-.518.93 0-.593-.272-1.298-.66-1.298-.39 0-.661.705-.661 1.299-.311-.16-.476-.627-.519-.93-.052-.37-.497-.386-.505.08-.013.737.44 1.507.751 1.988a2.808 2.808 0 0 0-.058.481c-.447.674-.693 1.765-.693 2.47h.842c0-.835.415-1.604.842-1.764M128.457 102.55c.427.159.842.928.842 1.763h.842c0-.705-.246-1.796-.693-2.47a2.808 2.808 0 0 0-.058-.48c.311-.482.764-1.252.751-1.99-.008-.465-.453-.448-.505-.08-.043.304-.208.77-.519.93 0-.593-.272-1.298-.66-1.298-.39 0-.661.705-.661 1.299-.31-.16-.475-.627-.518-.93-.052-.37-.497-.386-.505.08-.013.737.44 1.507.751 1.988a2.724 2.724 0 0 0-.058.481c-.447.674-.693 1.765-.693 2.47h.841c0-.835.416-1.604.843-1.764M144.33 102.55c-.427.159-.842.928-.842 1.763h-.842c0-.705.246-1.796.693-2.47.006-.176.026-.328.059-.48-.312-.482-.765-1.252-.752-1.99.008-.465.453-.448.505-.08.043.304.208.77.518.93 0-.593.273-1.298.661-1.298.39 0 .661.705.661 1.299.31-.16.475-.627.518-.93.052-.37.497-.386.505.08.013.737-.44 1.507-.751 1.988.032.153.052.305.058.481.448.674.693 1.765.693 2.47h-.842c0-.835-.415-1.604-.842-1.764M149.621 102.55c-.427.159-.842.928-.842 1.763h-.842c0-.705.246-1.796.693-2.47.007-.176.026-.328.058-.48-.31-.482-.764-1.252-.751-1.99.008-.465.453-.448.505-.08.043.304.207.77.518.93 0-.593.273-1.298.661-1.298.39 0 .661.705.661 1.299.311-.16.475-.627.518-.93.052-.37.497-.386.505.08.013.737-.44 1.507-.751 1.988.032.153.051.305.058.481.448.674.693 1.765.693 2.47h-.841c0-.835-.416-1.604-.843-1.764M125.714 105.376h27.776v.356h-27.776z" fill="#514537"/><path d="M150.221 118.285c3.851 0 7.891-3.4 7.891-9.879v-16.1c0-1.46-.162-1.665.174-2.005.197-.2-.221-.497-.505-.786-.427-.433-.719-.793-.143-1.38.577-.584.331-.737-.03-1.105-.365-.37-.506-.738-.16-1.091.348-.353.427-.465.048-.85-.379-.385-.22-.545.094-.866.317-.32.466-.553.064-.962-.395-.4-.425-.465-.884-.465h-1.894c-.441 0-.45.136-.078.514.481.488.623.68.078 1.234-.544.553-.52.738-.173 1.09.521.53.749.89.22 1.428-.528.537-.576.778-.173 1.186.402.409.443.77 0 1.219-.34.345-.363.546-.363 1.155v16.437c0 2.758-1.957 4.426-5.681 4.426-3.725 0-4.986-1.54-6.06-2.566.694 4.94 2.714 9.366 7.575 9.366" fill="#514537"/><path d="M125.714 95.522l.001-.898 5.553.899h-5.554M119.091 97.728l-12.424-1.702a33.852 33.852 0 0 1 2.025-7.854l10.399 4.195v5.361M144.762 76.96l2.208-9.218a32.536 32.536 0 0 1 7.478 2.86l-7.123 13.854.025-6.956c-.822.004-2.083-.124-2.588-.54M119.384 98.63l-12.656-.78a33.953 33.953 0 0 0 .486 8.103s12.17.077 12.17 0V98.63M119.258 89.956c-.41-.545-.156-.836.285-1.125.442-.288.379-.513.159-.929-.222-.417-.443-.867-.032-1.315.41-.45.252-.642-.064-.962-.315-.32-.347-.673-.063-.93.285-.257.221-.45.033-.706-.19-.257-.562-.777-.23-1.114l-5.163-4.38a33.522 33.522 0 0 0-4.342 6.815l9.417 4.646M131.628 92.344l-6.154-6.063c.868-.882.955-1.026.34-1.652-.671-.682-.695-.753.67-2.14.465-.473.205-.803-.458-.803h-4.056c-.347 0-.62.018-.874.276l-4.906-4.825a32.988 32.988 0 0 1 6.222-5.094l9.216 15.06v5.241" fill="#EEA339"/><path d="M125.228 93.267v-3.21c0-.45-.031-.626-.378-.979-.347-.352-.174-.521.095-.906l5.837 4.94v2.902l-5.554-2.747M130.695 84.463v-7.111c0-4.619.255-6.928.918-7.393l-.53-2.217c-2.592.709-5.104 1.668-7.485 2.932l7.097 13.79M153.49 95.522l-.001-.898-5.552.899h5.553M159.577 97.728L172 96.026a33.852 33.852 0 0 0-2.025-7.854l-10.4 4.195v5.361M159.577 98.63l12.655-.78a33.898 33.898 0 0 1-.486 8.103s-12.17.077-12.17 0V98.63M159.177 89.956c.41-.545.156-.836-.285-1.125-.442-.288-.379-.513-.159-.929.222-.417.443-.867.032-1.315-.41-.45-.252-.642.064-.962.315-.32.347-.673.063-.93s-.221-.45-.033-.706c.19-.257.561-.777.23-1.114l5.163-4.38a33.518 33.518 0 0 1 4.34 6.815l-9.415 4.646M147.937 92.344l6.153-6.063c-.869-.882-.956-1.026-.34-1.652.671-.682.696-.753-.67-2.14-.466-.473-.205-.803.458-.803h4.056c.347 0 .62.018.874.276l4.906-4.825a32.988 32.988 0 0 0-6.222-5.094l-9.215 15.06v5.241" fill="#EEA339"/><path d="M153.491 93.267l-.001-3.21c0-.45.032-.626.379-.979.347-.352.173-.521-.095-.906l-5.837 4.94v2.902l5.554-2.747" fill="#EEA339"/><path d="M121.481 90.323c.222.224.317.448.317.993v17.16c0 5.708 3.408 8.883 6.912 8.883 3.22 0 5.334-2.983 6.44-6.446-1.42 1.122-3.504 1.475-5.494 1.475-2.304 0-6.027-1.57-6.027-4.97V90.77c0-.448-.443-.448-2.148-.448M141.61 67.84c-4.4-.452-8.483.478-8.483 6.579v16.21c0 2.706-.21 2.385 2.047 2.953 4.096 1.033 4.56 1.164 9.527 2.316V79.406c-4.24-.472-6.079-3.295-6.079-6.42 0-2.488 1.082-4.828 2.988-5.146M157.371 90.323c-.22.224-.316.448-.316.993v17.16c0 5.708-3.408 8.883-6.912 8.883-3.22 0-5.335-2.983-6.44-6.446 1.422 1.122 3.504 1.475 5.494 1.475 2.304 0 6.027-1.57 6.027-4.97V90.77c0-.448.443-.448 2.147-.448" fill="#D82332"/><g transform="translate(106.667 66.667)"><mask id="d" fill="#fff"><use xlink:href="#c"/></mask><circle fill="#064A89" mask="url(#d)" cx="33.333" cy="86.667" r="33.333"/></g></g></g></svg>