<svg width="280" height="200" viewBox="0 0 280 200" xmlns="http://www.w3.org/2000/svg" xmlns:xlink="http://www.w3.org/1999/xlink"><title>PG</title><defs><rect id="a" width="280" height="200" rx="2"/></defs><g fill="none" fill-rule="evenodd"><mask id="b" fill="#fff"><use xlink:href="#a"/></mask><use fill="#FFF" xlink:href="#a"/><path fill="#262626" mask="url(#b)" d="M0 0h280v200H0z"/><path fill="#E8283F" mask="url(#b)" d="M0 0h280v200z"/><path fill="#FFF" mask="url(#b)" d="M66.667 166.667l-9.428 2.761L60 160l-2.761-9.428 9.428 2.761 9.428-2.761L73.333 160l2.762 9.428zM66.667 86.667l-9.428 2.761L60 80l-2.761-9.428 9.428 2.761 9.428-2.761L73.333 80l2.762 9.428zM33.333 120l-9.428 2.761 2.762-9.428-2.762-9.428 9.428 2.762 9.428-2.762L40 113.333l2.761 9.428zM93.333 113.333l-9.428 2.762 2.762-9.428-2.762-9.428L93.333 100l9.428-2.761-2.761 9.428 2.761 9.428z"/><path d="M188.612 92.656c-1.596-.958-2.89-3.214-2.89-5.019V75.35c0-1.814-1.305-2.85-3.28-2.191l-7.582 2.527c-1.811.604-4.585.658-6.56 0l-7.582-2.527c-1.811-.604-2.013-1.854-.39-2.828l17.79-10.674c1.596-.957 2.455-3.039 1.797-5.014l-2.527-7.582c-.604-1.811.211-2.845 2.186-2.187l7.582 2.528c1.812.604 4.04-.174 5.014-1.797l10.674-17.79c.958-1.596 2.17-1.585 2.828.39l2.527 7.582c.604 1.812.658 4.585 0 6.56l-2.527 7.582c-.604 1.812.386 3.28 2.19 3.28h12.288c1.814 0 4.045 1.267 5.019 2.89l10.674 17.79c.957 1.596.187 3.2-1.544 3.546l-17.015 3.403c-1.81.362-3.587 2.202-3.933 3.933l-3.403 17.015c-.362 1.81-1.923 2.517-3.546 1.544l-17.79-10.674z" fill="#FFD84E" mask="url(#b)"/></g></svg>