<svg width="280" height="200" viewBox="0 0 280 200" xmlns="http://www.w3.org/2000/svg" xmlns:xlink="http://www.w3.org/1999/xlink"><title>PH</title><defs><rect id="a" width="280" height="200" rx="2"/></defs><g fill="none" fill-rule="evenodd"><mask id="b" fill="#fff"><use xlink:href="#a"/></mask><use fill="#FFF" xlink:href="#a"/><rect stroke="#F5F5F5" stroke-width=".5" x=".25" y=".25" width="279.5" height="199.5" rx="2"/><path d="M0 146.667V200h280V93.333H124.444l8.89 6.667L0 200v-53.333z" fill="#DD1C34" mask="url(#b)"/><path d="M0 46.667V0h280v93.333H124.444L0 0v46.667z" fill="#0D4BC3" mask="url(#b)"/><path d="M45.32 113.266l-11.41 17.53 4.328-20.464a13.414 13.414 0 0 1-1.903-1.903l-20.464 4.327 17.53-11.41a13.491 13.491 0 0 1 0-2.692l-17.53-11.41 20.464 4.327a13.414 13.414 0 0 1 1.903-1.903L33.91 69.204l11.41 17.53a13.491 13.491 0 0 1 2.692 0l11.41-17.53-4.328 20.464a13.414 13.414 0 0 1 1.903 1.903l20.465-4.327-17.53 11.41a13.491 13.491 0 0 1 0 2.692l17.53 11.41-20.465-4.327a13.414 13.414 0 0 1-1.903 1.903l4.328 20.464-11.41-17.53a13.492 13.492 0 0 1-2.692 0zm54.68-6.6a6.667 6.667 0 1 1 0-13.333 6.667 6.667 0 0 1 0 13.334zM20 40a6.667 6.667 0 1 1 0-13.333A6.667 6.667 0 0 1 20 40zm0 133.333A6.667 6.667 0 1 1 20 160a6.667 6.667 0 0 1 0 13.333z" fill="#FDD64D" mask="url(#b)"/></g></svg>