<svg width="280" height="200" viewBox="0 0 280 200" xmlns="http://www.w3.org/2000/svg" xmlns:xlink="http://www.w3.org/1999/xlink"><title>PK</title><defs><rect id="a" width="280" height="200" rx="2"/></defs><g fill="none" fill-rule="evenodd"><mask id="b" fill="#fff"><use xlink:href="#a"/></mask><use fill="#FFF" xlink:href="#a"/><rect stroke="#F5F5F5" stroke-width=".5" x=".25" y=".25" width="279.5" height="199.5" rx="2"/><path d="M0 0h280v200H0V0zm0 200h80V0H0v200z" fill="#0A632F" mask="url(#b)"/><g mask="url(#b)" fill="#FFF"><path d="M236.701 107.505c-1.283 12.507-6.614 24.524-16.036 33.946-22.459 22.459-59.66 21.67-83.091-1.761-23.432-23.432-24.22-60.633-1.762-83.092 9.422-9.422 21.44-14.752 33.946-16.036a55.53 55.53 0 0 0-11.073 8.59c-20.417 20.418-21.426 52.51-2.255 71.681 19.171 19.172 51.264 18.162 71.68-2.255a55.53 55.53 0 0 0 8.591-11.073zm-25.777-26.458l-3.182 18.984-8.893-17.071-19.039 2.84 13.488-13.734-8.584-17.23 17.23 8.585 13.733-13.488-2.84 19.039 17.072 8.893-18.985 3.182z"/></g></g></svg>