<svg width="640" height="480" viewBox="0 0 640 480" xmlns="http://www.w3.org/2000/svg" style="background:#006"><title>Artboard</title><g fill="none" fill-rule="evenodd"><path d="M436.476 329.942c-7.05 6.003-13.77 14.774-15.421 22.703-4.649 22.305-10.817 27.266-20.335 22.482 0 11.983 10.443 12.891 15.025 5.892 0 11.23 4.054 20.975 13.197 29.281 3.855 3.5 4.582 1.108 2.753-2.768-1.828-3.876-1.828-16.39-5.485-23.567 5.86 4.23 14.474 1.838 13.747-9.768-7.513 4.43-14.981 4.252-15.752-6.269-.947-12.337 3.833-30.256 12.271-37.986zm-8.922-88.708c.506-4.43-.441-8.971-3.657-11.828-6.213-5.493-12.294-3.677-16.832.753-6.785-3.677-10.376 9.369-18.065 7.176 1.278 4.23 3.305 6.07 7.138 4.607-4.032 3.677 0 8.107-4.759 12.515 8.614 2.768 13.197-2.016 12.822-10.322 3.305 2.946 8.416 2.769 11.17-.554-4.583-1.484-4.605-5.47-2.754-9.214 2.754-5.515 15.664-5.294 14.937 6.867z" stroke="#000" stroke-width=".015" fill="#F7E017" fill-rule="nonzero"/><path d="M448.055 305.021c-9.73 5.134-27.515 2.931-29.17-9.717-1.655-12.647 10.635-18.332 13.945-19.963 5.141-2.578 9.18 2.005 7.524 7.338a8.313 8.313 0 0 0 5.167-5.192 8.297 8.297 0 0 0-.952-7.258c7.524.551 14.496-5.134 17.431-13.198-2.648 2.511-9.84.815-15.754.44 1.831-2.005 1.809-5.927 1.257-7.954-6.222 6.39-15.224 3.46-27.14 21.968 1.832-6.412 5.318-19.236 7.348-27.675.199-.837.353-1.675.464-2.534.706-12.097-12.202-12.317-14.96-6.809 3.022 3.394 1.434 7.36.353 13.375-1.28 7.14-4.038 23.643-6.421 29.13-.728-8.616-6.421-9.167-7.524-13.375-1.655 1.102-2.56 4.032-2.207 6.037-2.03-2.203-9.002.551-11.562-2.754-2.758 5.486 1.655 10.995 6.244 13.375-2.67.176-3.31 3.393-6.244 3.393 3.95 4.583 7.988 6.412 12.665 6.787 4.678.374 8.164 2.115 11.01 7.778 4.59 9.188 22.066 15.137 38.526 6.808z" stroke="#000" stroke-width=".015" fill="#337321" fill-rule="nonzero"/><path d="M472 293.836c-5.51 15.322-20.602 26.225-27.418 27.89-11.595 2.82-35.23 14.345-41.558 20.274a7.333 7.333 0 0 1-2.611-1.066c-3.12-2.22-5.71-9.415-.177-15.522 17.304-16.254 35.893-9.237 47.488-20.318-9.758 5.174-27.594 2.953-29.254-9.793A44.74 44.74 0 0 0 462.993 282c2.014 2.243 7.9 9.26 9.007 11.836z" stroke="#000" stroke-width=".015" fill="#F7E017" fill-rule="nonzero"/><path d="M437.544 329.014c-8.795 7.39-13.36 25.549-12.424 37.838.267 3.42 1.225 5.736 2.694 7.148.646-6.972 5.544-24.997 18.034-33.028 10.554-6.795 27.03-22.019 33.152-39.449a14.024 14.024 0 0 0-6.479-7.523c-6.078 16.459-22.309 24.357-34.977 35.014z" stroke="#000" stroke-width=".015" fill="#337321" fill-rule="nonzero"/><path d="M467 286.642a41.015 41.015 0 0 1-17.034 13.64 8.83 8.83 0 0 0 2.016-5.478c-8.66 3.3-25.982 2.926-32.982.374 16.17 4.18 33.336-.88 44.567-13.178 1.506 1.628 2.79 3.08 3.433 4.642z" stroke="#000" stroke-width=".015" fill="#316D3A" fill-rule="nonzero"/><path d="M400.368 325c-13.986 13.147-4.75 24.616.726 27.2-1.452 9.193 7.125 8.088 6.95 15.8 3.474-2.01 4.397-7.358 3.848-11.579 4.398 4.773 15.547-.552 17.922 8.265 1.474-9.745-6.025-19.468-15.35-18.562 3.849-3.49 1.65-9.192-2-10.65-.726 7.16-8.775 7.16-11.898 4.972-3.123-2.21-5.696-9.37-.198-15.446z" stroke="#000" stroke-width=".015" fill="#337321" fill-rule="nonzero"/><path d="M431.16 408.495c-1.518.88-1.408 2.838-.462 4.114 1.914 2.552-1.364 8.36 4.84 9.614 1.826.374 3.234-.748 3.938-2.838 1.914-5.764-4.202-6.402-4.752-9.152-.55-2.75-2.288-2.464-3.564-1.738z" stroke="#000" stroke-width=".015" fill="#F7E017" fill-rule="nonzero"/><path d="M436.214 419.412c-2.046.946-3.85 2.288-3.014 8.866.33 2.728.176 9.328-2.2 9.416 1.452.726 4.576 1.518 5.852-.176 1.232 2.068 4.026 1.474 5.126-1.1 1.452 1.188 3.476-.814 3.476-2.552 1.276.814 3.85-.374 3.19-4.29 1.562.55 3.564-.55 4.29-1.562-2.288-.462-8.052-3.564-9.416-6.028-1.364-2.486-4.928-3.674-7.304-2.574z" stroke="#000" stroke-width=".015" fill="#F7E017" fill-rule="nonzero"/><path d="M404 233.782c.921-1.371 1.952-2.654 3.093-3.782m31.607 28.131c1.601-.928 4.058-1.039 6.778-.862M436.243 438c-.636-.929-.877-4.777-.416-7.121m5.527 6.015a10.926 10.926 0 0 1-3.246-5.794m6.712 3.229c-1.273-.597-4.387-4.645-5.067-7.254m8.247 2.919a18.126 18.126 0 0 1-8.028-6.568" stroke="#000" stroke-width=".015"/><path d="M533.37 325c22.215 19.015 23.649 34.125 20.217 43-1.802-8.298-11.01-21.212-20.587-24.54l.37-18.46z" stroke="#000" stroke-width=".015" fill="#F7E017" fill-rule="nonzero"/><path d="M493.034 314H535v49.575c0 42.244-23.55 67.22-47.5 80.425-23.927-13.227-47.5-38.203-47.5-80.425V314h29.46a16.073 16.073 0 0 0 3.32 10.29c6.95-.684 14.809-5.873 20.254-10.29z" stroke="#000" stroke-width=".015" fill="#337321" fill-rule="nonzero"/><path d="M535 314v49.426c0 12.703-2.148 23.865-5.802 33.574l-41.696-76.065L445.806 397a94.77 94.77 0 0 1-5.802-33.574V314H535z" stroke="#000" stroke-width=".015" fill="#006EC7" fill-rule="nonzero"/><path d="M531 394.814a94.858 94.858 0 0 1-3.103 8.186L488 328.776 448.103 403a82.791 82.791 0 0 1-3.103-8.186L488.022 315 531 394.814z" fill="#F7E017" fill-rule="nonzero"/><path d="M506.725 421.003c1.114.549 3.165 1.56 4.079 1.933 2.229-4.395 2.585-10.591 1.85-16.085-2.407 6.043-10.565 5.845-12.794 9.493 1.36.681 2.63 1.56 3.722 2.33-2.786 2.746-9.295 7.339-12.995 8.437V387.91c0-2.747-.936-5.032-.936-7.318v-8.108c0-1.824-.379-4.483-2.028-4.483-1.672 0-2.029 2.659-2.029 4.483v8.108c0 2.286-.936 4.945-.936 7.318v39.202c-2.028-5.845-10.03-3.845-13.73-9.69a10.532 10.532 0 0 1 4.458-.176c-2.787-9.317-10.387-10.042-11.858-12.79 0 3.846-1.672 12.79.936 16.635a9.714 9.714 0 0 1 2.519-2.021c3.142 6.768 17.319 6.79 20.662 17.931 2.675-4.11 12.326-8.856 19.08-15.997z" stroke="#000" stroke-width=".015" fill="#F7E017" fill-rule="nonzero"/><path d="M487.5 388.228c3.143 0 13.15-1.012 16.784-1.012.936 0 1.716-1.386 1.716-3.102s-.758-3.102-1.716-3.102c-3.611 0-13.619-1.012-16.784-1.012-3.143 0-13.15 1.012-16.784 1.012-.936 0-1.716 1.386-1.716 3.102s.758 3.102 1.716 3.102c3.633 0 13.641 1.012 16.784 1.012z" stroke="#000" stroke-width=".015" fill="#F7E017" fill-rule="nonzero"/><path d="M485.542 372.794a3.96 3.96 0 0 0-2.486-.858c-2.068 0-3.762 1.54-3.762 3.432s1.672 3.432 3.762 3.432c2.068 0 3.74-1.54 3.74-3.432 0-1.474 2.134-1.474 2.134 0 0 2.97-2.64 5.368-5.874 5.368-3.256 0-5.874-2.398-5.874-5.368s2.64-5.368 5.874-5.368c.968 0 1.892.22 2.706.594-.066.484-.22 1.408-.22 2.2zM471 387.864c.924 0 1.672-1.386 1.672-3.102s-.748-3.102-1.672-3.102v6.204z" stroke="#000" stroke-width=".015" fill="#F7E017" fill-rule="nonzero"/><path d="M472.28 387.153c.936 0 1.693-1.4 1.693-3.132 0-1.733-.757-3.132-1.693-3.132m9.156 6.908c1.136 0 2.05-1.688 2.05-3.776s-.914-3.777-2.05-3.777m2.117 7.709c1.18 0 2.138-1.777 2.138-3.954 0-2.177-.958-3.955-2.138-3.955m7.129 7.953c1.203 0 2.16-1.8 2.16-3.998 0-2.2-.98-3.999-2.16-3.999m2.227 7.886c1.181 0 2.14-1.733 2.14-3.865 0-2.133-.959-3.866-2.14-3.866m9.959 7.042c.958 0 1.737-1.421 1.737-3.198 0-1.778-.78-3.2-1.737-3.2M467 419.187a13.79 13.79 0 0 1 3.966-1.644m33.729 2.021l-1.092-.777m3.119 2.355c2.584-2.777 4.745-5.91 5.948-9.508" stroke="#000" stroke-width=".015" fill="#F7E017" fill-rule="nonzero"/><path d="M479 350.058c0-.902.726-1.276 1.584-1.914 1.034-.77 1.452-1.144 2.376-1.144h12.012c.88 0 1.1.22 1.1 1.056v16.302c0 .814-.198 1.056-1.1 1.056H479v-15.532" stroke="#000" stroke-width=".015" fill="#FFF" fill-rule="nonzero"/><path d="M492.32 366.184c1.584 0 1.298-.044 2.398-1.144 1.166-1.144 1.056-1.056 1.056-2.112V347.99c0-.77-.198-.99-1.012-.99h-11.11c-.88 0-1.254.352-2.2 1.078-.792.594-1.452.968-1.452 1.804v16.302h12.32z" stroke="#000" stroke-width=".015" fill="#E5E5E5" fill-rule="nonzero"/><path d="M493.19 366.38c0 .814-.198 1.056-1.1 1.056h-12.012c-.902 0-1.078-.22-1.078-1.056v-16.324c0-.814.198-1.056 1.078-1.056h12.012c.902 0 1.1.22 1.1 1.056v16.324z" stroke="#000" stroke-width=".015" fill="#FFF" fill-rule="nonzero"/><path d="M516.547 305.151a9.209 9.209 0 0 1 1.837 9.572h-3.497c1.46-4.41.553-8.601-5.712-9.152-9.364-.816-20.255 17.246-36.636 19.429-4.782-5.69-4.538-16.518 1.55-21.657-3.144-9.02-9.763-18.944-14.367-23.223a45.103 45.103 0 0 0-8.722-.595c2.39-5.139 9.209-10.542 14.743-12.747.886-1.301 1.86-2.559 2.745-3.683.553-7.058 34.245-3.75 41.418.64.022 7.917 3.143 34.271 6.64 41.416z" stroke="#000" stroke-width=".015" fill="#96877D" fill-rule="nonzero"/><path d="M475.598 309.697c-.789-12.326-5.696-22.494-12.598-29.413 3.286.934 10.013.934 14.57-2.403 6.003-4.072 21.69-11.191 27.431-8.143.46 1.023.723 3.337.373 4.806-1.359-3.694-16.498 2.024-20.77 3.782-4.098 1.936-5.917 4.539-4.47 10.368-2.367-2.025-1.556-3.983-4.01-5.451.986 2.403 1.797 6.741 2.081 10.257-.92-2.492-2.541-7.854-6.112-11.014 3.089 6.097 5.784 20.758 4.513 28.545 2.454 0 7.888-2.447 10.057-4.205-1.906 2.782-7.428 4.717-10.977 5.451-1.6 1.936-2.695 6.942-2.607 9.723-.241-3.426.81-11.77 2.52-12.303zM516 304.824c-3.024-3.404-8.654-5.25-15.84-3.27 1.095-.557 3.46-1.491 5.564-1.847-.263-1.936-1.994-10.279-2.278-12.304l2.015-.823c1.008 5.006 2.279 10.724 3.09 13.038.635.178 2.103.467 3.374 1.112-.548-1.935-3.637-15.907-3.55-17.398l2.74-1.49c1.073 7.586 2.804 18.6 4.885 22.982z" fill="#000" fill-rule="nonzero"/><path d="M514.398 314c1.45-4.379.549-8.539-5.669-9.086-4.811-.416-10.04 4.247-16.214 9.086h21.883zm-40.382-39.234a36.328 36.328 0 0 1-11.974-1.182 13.98 13.98 0 0 1 .9-2.584c-1.91 1.27-5.558 3.766-6.942 5.495 4.394.92 13.446 1.38 18.016-1.73z" stroke="#000" stroke-width=".015" fill="#96877D" fill-rule="nonzero"/><path d="M474.88 302.7c1.012 2.943 1.672 5.777 1.76 8.3m-10.054-45c-1.65 2.435-3.102 5.047-3.586 7.26 3.102 1.018 9.24 1.572 11.99 1.195" stroke="#000" stroke-width=".015"/><path d="M460 279.324c1.189.198 2.29.418 3.236.682 3.302.924 10.06.924 14.638-2.376 4.579-3.3 17.016-13.53 31.126-14.63" stroke="#000" stroke-width=".015"/><path d="M456 276.728c4.389.924 13.43 1.364 17.972-1.738 10.577-7.216 20.802-11.44 31.028-11.99" stroke="#000" stroke-width=".015"/><path d="M533.77 324.687c15.377 10.645 26.744 20.938 30.049 37.458 3.304 16.52 9.539 20.938 17.227 16.52-1.829 9.542-11.367 10.646-19.408 3.314.727 11.02-3.657 24.25-15.024 29.021-.727-6.604 3.635-11.838 2.379-17.271-.55-2.386-.727-7.907 2.38-10.47-6.037 2.01-15.576-1.833-16.479-10.844 6.961 3.313 15.927 3.865 19.408-4.97 3.459-8.79 2.005-23.852-20.532-42.758zm19.43-85.96c4.759-12.479 17.228-11.198 21.435-5.875 12.27-6.98 13.923 8.812 24.365 5.698-.176 2.938-3.657 5.699-7.512 5.5 4.031 3.666-1.652 9.188 6.961 12.479-7.336 3.666-17.58-.177-20.333-10.293-2.38 4.77-10.993 4.77-14.473.928 7.512-2.01 6.96-8.99 2.753-11.75-4.251-2.783-11.742-1.656-13.195 3.313zm-37.163 27.497c3.414 11.044 10.486 21.336 18.108 28.337 8.79 8.084 22.074 6.052 29.498-1.656.176 15.372-15.708 16.564-24.541 11.75-3.9-2.12-7.05-1.016-3.305 2.385 5.684 5.146 18.108 8.967 32.78 12.125 25.643 5.5 16.5 25.907 8.988 25.709 2.16-.045 3.922-2.297.815-5.102-22.25-20.077-67.498-12.17-66.771-56.983-4.759 11.75-24.365 7.156-15.2-6.802 2.93 2.385 8.062 2.562 9.538-1.105 1.146-2.849.397-7.818-4.736-12.103.837-.066 2.665 0 2.467-2.12.22 1.236 1.344 3.07 4.23 2.451.815 1.303 1.696 2.165 2.864 1.7.22-.087.925-.44.638-1.744.22 2.474 3.107 3.335 4.627 3.158z" stroke="#000" stroke-width=".015" fill="#337321" fill-rule="nonzero"/><path d="M538.468 304.796c10.71 6.99 22.844 6.99 34-5.884 3.51-4.048 9.043-7.543 12.932-7.92 3.889-.375 3.689-4.047 6.645-4.777-1.845-.553-2.578-2.765-5.356-2.478 6.933-2.389 4.889-7.92 8.311-10.574-2.778 1.018-7.11-3.119-11.089 2.124 1.023-2.39-.377-5.243-1.377-6.349.377 2.765-5.445 3.318-6.556 10.309-.622 3.915-2.777 3.672-3.133-2.39-.267-4.446-2.4-16.745-4.978-22.983-2.577-6.26-3.177-14.844.334-16.127a6.827 6.827 0 0 0-2.178-2.256c-4.289-2.787-11.822-1.659-13.31 3.318-4.8 12.499 8.688 19.688 7.577 33.292-2.022-10.109-18.489-12.697-18.289-22.63-5.355 2.39-4.622 6.814-2.577 10.309-3.334-5.154-10.911 3.318-17.378-3.672-.733 9.202 7.4 12.697 14.044 13.051-3.333 5.885 1.111 10.862 5.534 12.499.177-10.309 21.399-6.084 21.621 11.591.178 15.043-16.088 16.326-24.777 11.547zm29.755 14.534c25.866 5.508 16.644 25.948 9.066 25.749-4.822-.11-9.422-4.137-9.71-7.632-5.534 2.942-4.067 8.738.177 11.039-11.644-1.372-16.533 6.26-16.822 14.622 2.134-3.872 8.6-4.137 11-3.319 2.4.819 8.6 1.283 11.089-1.482-2.045 1.748 1.289 5.796-1.578 8.915 9.71-.376 13.955-9.38 12.289-13.339 12.577-11.37 10.177-29.952-15.511-34.553zm-19.689 87.4c1.69 1.04 1.467 3.252.334 4.646-2.289 2.787 1.155 9.445-5.889 10.574-2.089.331-3.622-.996-4.31-3.363-1.912-6.548 5.021-6.99 5.754-10.065.756-3.053 2.69-2.677 4.111-1.792z" stroke="#000" stroke-width=".015" fill="#F7E017" fill-rule="nonzero"/><path d="M541.98 418.545c2.236 1.143 4.165 2.726 2.982 10.025-.504 3.034-.614 10.4 2.038 10.598-1.666.747-5.15 1.473-6.51-.462-1.468 2.242-4.537 1.45-5.654-1.451-1.688 1.253-3.836-1.078-3.748-3.012-1.469.857-4.252-.572-3.376-4.925-1.753.55-3.945-.77-4.712-1.913 2.564-.418 9.096-3.627 10.74-6.332 1.622-2.682 5.633-3.847 8.24-2.528z" stroke="#000" stroke-width=".015" fill="#F7E017" fill-rule="nonzero"/><path d="M540.826 439.346c.748-.99 1.188-5.28.77-7.898m-6.424 6.446a11.99 11.99 0 0 0 3.872-6.292m-7.656 3.278c1.452-.616 5.104-4.972 5.984-7.854M528 429.952c1.694-.286 6.996-3.454 9.262-6.952" stroke="#000" stroke-width=".015"/><path d="M511.43 283.244c-.313 18.934 7.598 28.534 18.57 34.756-4.067-2.422-2.302-10.733-7.8-13.422 1.297-.09 3.353 1.755 6.593 1.022-1.586-3.511-4.179-8.867-10.212-9.6 1.586-.178 5.028.378 7.24-.467-3.15-4.822-11.509-2.51-14.391-12.289zm-1.967-18.022c-.67-.222-1.229-.889-1.788-1.755-2.927.622-4.067-1.223-4.29-2.467.179 2.133-1.654 2.044-2.525 2.111 5.229 4.311 5.989 9.311 4.827 12.178-1.498 3.689-6.682 3.511-9.677 1.111-.38 7.844 9.855 10.444 13.565.556 0 1.666 2.145 1.488 2.704 3.688 2.637-4.244.626-10.355-2.816-15.422z" stroke="#000" stroke-width=".015" fill="#F7E017" fill-rule="nonzero"/><path d="M493 228.353a22.237 22.237 0 0 1-6.551-15.488c.177-4.084 1.843-8.548 7.75-6.673-1.843 0-.555 3.704-2.487 4.084 1.576.558 3.686-.737 3.975-1.585.377 1.295 2.776.938 2.953 2.41.933-.736-.088-4.351-1.465-5.11 1.021-.558 1.576-3.437 1.11-4.82-.933.178-2.31 1.495-2.576 3.347.466-1.495-.089-5.2-2.687-5.758-.733 1.027-.933 3.526.089 4.91-2.399-.558-5.907 1.027-6.751 3.057.177-2.454.533-5.958 2.043-8.168.51-.736-.733-2.03-1.71-.267-1.799-3.527-6.596-5.379-8.728-3.616-2.132 1.763-4.974-.826-6.728 1.942-1.755 2.79-7.706 3.08-7.395 6.025.177 1.763-.245 4.486-1.11 5.468-2.133 2.41 1.02 4.173 1.576 6.316-.378-7.052 10.793-20.777 21.985-15.399-1.021 1.763-1.91 5.29-2.22 9.552-.467 6.316.466 15.22 6.55 20.42l2.377-.647z" stroke="#000" stroke-width=".015" fill="#337321" fill-rule="nonzero"/><path d="M497.001 205.74c-.066-1.65 2.794-3.783 6.622-3.74 4.62.045 8.184 4.247 11.88 3.85 3.696-.417 1.87 1.65 1.1 2.2-.77.55-1.232 1.365-.968 2.377.264 1.012-.198 1.672-1.694.726-3.3-2.068-6.578.814-10.934-.77-3.718-1.408-5.896-2.178-6.006-4.642z" stroke="#000" stroke-width=".015" fill="#CF142B" fill-rule="nonzero"/><path d="M477.407 249.556c-1.835-5.823-8.824-12.2-12.23-13.667l-.177-3.133c1.836-.734 6.259-4.245 8.272-6.2 13.8 6.644 32.555-2.778 41.202-12.556l3.318 2.022-1.659 2.222-1.747-.933a104.198 104.198 0 0 1-12.407 11.622c3.206.823 7.608 1.378 8.824 1.311 7.719-5.555 13.778-10.533 16.72-10.91l2.477 3.333-2.212 1.577-1.747-1.022c-8.271 6.845-17.649 21.8-21.342 31.778-5.131-1.111-23.532-.378-27.292-5.444z" stroke="#000" stroke-width=".015" fill="#96877D" fill-rule="nonzero"/><path d="M501.628 228.99a13.354 13.354 0 0 1-2.838-.99c-1.474 1.364-5.126 2.552-9.79 2.75" stroke="#000" stroke-width=".015"/><path d="M478.372 247.116c-1.238-6.82.73-14.366 4.222-16.654C490.22 235.5 503.285 235.5 511 230" stroke="#000" stroke-width=".015"/><path d="M478 244.312c7.179.022 14.314.44 21.427 1.276 3.068.462 8.223 1.738 7.505 3.3L478 244.312zm2.676-.968l1.675-1.672-1.675-1.672-1.654 1.65 1.654 1.694z" stroke="#000" stroke-width=".015"/><path d="M484.868 208.54c-2.112-2.927-7.898-3.85-9.152.087-.55 1.738-1.364 3.564-2.75 4.4-1.364.814-1.056 3.322-.462 4.4 1.452 2.662.176 5.214 3.014 6.952 0-2.112 3.102-4.29 5.764-4.84 2.662-.55 6.666-2.926 7.216-5.588.572-2.684 1.496-4.884-3.63-5.412z" stroke="#000" stroke-width=".015" fill="#337321" fill-rule="nonzero"/><path d="M472.126 235h.726l.022 4.994c.157.05.305.125.44.22l4.312-2.486.374.638-4.334 2.508c.022.154.044.33.022.484l4.312 2.486-.374.638-4.356-2.464c-.116.12-.26.211-.418.264v4.972h-.726v-4.994a1.65 1.65 0 0 1-.44-.22l-4.312 2.486-.374-.638 4.334-2.508a1.788 1.788 0 0 1-.022-.484L467 238.41l.374-.638 4.334 2.486c.116-.12.26-.211.418-.264V235z" stroke="#000" stroke-width=".015" fill="#96877D" fill-rule="nonzero"/><path d="M477.772 247.748a8.646 8.646 0 1 1 .726-11.374c-.525 1.5-.865 3.059-1.012 4.642a5.94 5.94 0 1 0-5.896 6.512 6.072 6.072 0 0 0 5.786-4.444c.022 1.144.066 3.762.396 4.664z" stroke="#000" stroke-width=".015" fill="#96877D" fill-rule="nonzero"/><path d="M468.457 256.154c-.549-.638-1.558-2.376-1.449-3.652 1.142 0 2.239.44 3.095 1.188-.088-.924-.461-2.926-.264-3.85a8.342 8.342 0 0 1 3.841 2.926 13.297 13.297 0 0 1-.175-4.752c1.097.638 2.919 2.376 3.292 3.564.08-1.925.511-3.819 1.273-5.588.812.814 2.107 1.562 2.919 2.662.175-1.474.922-3.212 1.997-3.652a10.7 10.7 0 0 1 2.37 5.39c.812-.264 1.91-1.65 2.37-2.376a4.957 4.957 0 0 1 .637 3.564c1.01-.924 2.195-2.2 2.458-3.3a7.017 7.017 0 0 1 2.458 3.388c-.175-1.188-.087-3.3-.46-4.488a5.277 5.277 0 0 1 2.743 3.388c.373-1.276 1.185-3.564 1.91-4.114.833 1.43 1.316 3.014 1.36 4.664.461-.924 1.185-2.552 1.91-2.926.636 1.012.548 3.212.373 4.4a8.787 8.787 0 0 1 2.546-2.376 7.674 7.674 0 0 1 0 2.464c.812-.462 2.194-2.926 2.655-4.202a6.38 6.38 0 0 1 2.656 3.938 9.928 9.928 0 0 0 3.292-2.926c0 .638.285 2.376-.088 3.74.549-.55 1.098-1.65 1.36-2.112.374.924.089 3.102-.284 4.29a4.8 4.8 0 0 1 2.743-1.188c.088 1.562-1.01 4.29-2.02 6.314-8.734-2.442-27.082-3.366-45.518-4.378z" stroke="#000" stroke-width=".015" fill="#337321" fill-rule="nonzero"/><path d="M499 207.178c-.043-.682 1.453-2.2 4.159-2.178 3.234.022 6.226 2.398 8.8 2.222 2.596-.176 1.32.682.77.902-.55.22-.858.572-.682.968.198.418-.132.682-1.188.308-2.31-.836-4.62.33-7.656-.308-2.618-.594-4.136-.902-4.202-1.914z" fill="#F7E017" fill-rule="nonzero"/><path d="M471.158 261.394c-2.765 3.3-5.508 2.75-6.061.638-.553-2.112 1.482-3.102.73-4.95-.73-1.826 1.194-2.662 2.123-1.826.93.814 3.871-1.826 5.154.924s2.3 4.664 1.57 5.764c-.751 1.1-2.963.55-3.516-.55zm11.856-4.95c-.508-1.21 2.345-3.52 3.827-1.87 1.482 1.65 3.783-1.782 5.066.814 1.283 2.618 1.703 3.982 2.345 5.434.641 1.474-3.495 2.244-4.778.968.177.858-3.584 1.54-4.601-.924-.553-1.298-1.15-2.816-1.859-4.422zm19.135 1.518c-.686-1.276 2.677-3.102 4.424-.77.465-.968 3.783-1.144 4.004 1.65l.42 5.544c.089 1.1-2.013 2.112-3.539-.682-2.72.55-3.96-.968-4.27-2.552a11.834 11.834 0 0 0-1.039-3.19z" stroke="#000" stroke-width=".015" fill="#F7E017" fill-rule="nonzero"/><path d="M473.043 255.866c-.423-.924 2.358-2.75 4.249-1.364 1.89 1.364 4.516-1.188 5.65 1.276 2.269 4.994 2.403 5.346 1.713 6.314s-3.648.594-4.405-.726c-.133.924-2.691.77-4.026.044-1.513-.836-2.58-3.894-3.18-5.544zm19.464.22c-.645-1.408 3.693-2.662 5.606-.176.979-.88 3.092-.924 4.293 1.782 1.202 2.706 1.38 4.202.512 4.884-.623.484-2.87.858-3.604-.374-1.023.638-4.16.088-4.85-1.65-.689-1.716-1.29-3.234-1.957-4.466zm18.42 2.706c-.09-1.276 2.268-1.87 3.136 0 .89 1.87 3.692.176 3.937 3.3a7.922 7.922 0 0 1-1.201 3.982c-.868 1.1-5.183 0-5.45-2.332a52.645 52.645 0 0 1-.423-4.95z" stroke="#000" stroke-width=".015" fill="#337321" fill-rule="nonzero"/><path d="M471.113 261.214c-1.012-1.364-2.376-3.564-4.113-1.188m13.041 1.408a10.781 10.781 0 0 1-1.649-3.058m10.93 3.256a7.59 7.59 0 0 1-2.111-2.332m1.275-2.486c1.606.176 2.705 1.694 3.19 2.376.505.682 1.56 1.914 2.374 2.068m4.817 1.056c-.55-.88-1.1-1.65-1.232-2.288m.044-4.026c.506.66.946 1.386 1.276 2.156m8.225 5.346a7.59 7.59 0 0 0-2.837-3.146m2.485-1.892c.088 2.706 3.695 2.882 3.849 4.796m2.77-4.378c.39.777.578 1.64.55 2.508" stroke="#000" stroke-width=".015"/><g fill-rule="nonzero"><path fill="#006" d="M0 0h424.12v212.087H0z"/><path d="M0 0v23.712l376.704 188.376h47.417v-23.711L47.417 0H0zm424.12 0v23.711L47.418 212.087H0v-23.711L376.704 0h47.417z" fill="#FFF"/><path d="M176.717 0v212.087h70.687V0h-70.687zM0 70.696v70.695h424.12V70.696H0z" fill="#FFF"/><path d="M0 84.835v42.417h424.12V84.835H0zM190.855 0v212.087h42.411V0h-42.411zM0 212.087l141.374-70.696h31.61L31.612 212.087H0zM0 0l141.374 70.696h-31.612L0 15.808V0zm251.136 70.696L392.51 0h31.61L282.748 70.696h-31.611zM424.12 212.087l-141.374-70.696h31.612L424.12 196.28v15.808z" fill="#C00"/></g></g></svg>