<svg width="280" height="200" viewBox="0 0 280 200" xmlns="http://www.w3.org/2000/svg" xmlns:xlink="http://www.w3.org/1999/xlink"><title>PT</title><defs><rect id="a" width="280" height="200" rx="2"/></defs><g fill="none" fill-rule="evenodd"><mask id="b" fill="#fff"><use xlink:href="#a"/></mask><use fill="#FFF" xlink:href="#a"/><path fill="#FF2936" mask="url(#b)" d="M0 0h280v200H0z"/><path fill="#128415" mask="url(#b)" d="M0 0h106.667v200H0z"/><circle stroke="#FAF94F" stroke-width="1.333" mask="url(#b)" cx="106.667" cy="100" r="27.333"/><path d="M93.333 80.334A.33.33 0 0 1 93.67 80h25.993c.186 0 .337.145.337.334v38.335c0 .735-.594 1.331-1.34 1.331H94.673c-.74 0-1.34-.596-1.34-1.33V80.333z" fill="#FFF" mask="url(#b)"/><path d="M106.667 106.667c3.682 0 6.666-9.652 6.666-13.334a6.667 6.667 0 1 0-13.333 0c0 3.682 2.985 13.334 6.667 13.334z" fill="#1D50B5" mask="url(#b)"/></g></svg>