<svg width="280" height="200" viewBox="0 0 280 200" xmlns="http://www.w3.org/2000/svg" xmlns:xlink="http://www.w3.org/1999/xlink"><title>RS</title><defs><rect id="a" width="280" height="200" rx="2"/><path d="M.667 33.333C.667 24.35 7.162.634 7.162.634c.095-.35.47-.634.832-.634h38.678c.365 0 .74.29.836.641 0 0 6.492 23.494 6.492 32.692 0 8.6-6.495 32.69-6.495 32.69-.095.355-.35.875-.58 1.166 0 0-9.592 12.811-19.592 12.811-10 0-19.59-12.81-19.59-12.81a3.919 3.919 0 0 1-.581-1.162S.667 42.148.667 33.333z" id="c"/></defs><g fill="none" fill-rule="evenodd"><mask id="b" fill="#fff"><use xlink:href="#a"/></mask><use fill="#FFF" xlink:href="#a"/><rect stroke="#F5F5F5" stroke-width=".5" x=".25" y=".25" width="279.5" height="199.5" rx="2"/><path fill="#17508F" mask="url(#b)" d="M0 66.667h280v66.667H0z"/><path fill="#E1444D" mask="url(#b)" d="M0 0h280v66.667H0z"/><g mask="url(#b)"><g transform="translate(59.333 66.667)"><mask id="d" fill="#fff"><use xlink:href="#c"/></mask><use fill="#FFF" xlink:href="#c"/><path d="M54 6.667L.667 73.333" stroke="#E1444D" stroke-width="1.333" stroke-linecap="square" mask="url(#d)"/><path d="M54 6.667L.667 73.333" stroke="#E1444D" stroke-width="1.333" stroke-linecap="square" mask="url(#d)" transform="matrix(-1 0 0 1 54.667 0)"/></g></g></g></svg>