<svg width="280" height="200" viewBox="0 0 280 200" xmlns="http://www.w3.org/2000/svg" xmlns:xlink="http://www.w3.org/1999/xlink"><title>SA</title><defs><rect id="a" width="280" height="200" rx="2"/></defs><g fill="none" fill-rule="evenodd"><mask id="b" fill="#fff"><use xlink:href="#a"/></mask><use fill="#FFF" xlink:href="#a"/><path fill="#128C4B" mask="url(#b)" d="M0 0h280v200H0z"/><path d="M66.667 120h106.666v-19.335c0-.367.267-.532.59-.37l12.744 6.372V120h26.007c.364 0 .66.3.66.66v24.666c0 .74-.597 1.34-1.332 1.34h-38.008a.666.666 0 0 1-.66-.66v-12.673H80.67c-.37 0-.88-.21-1.146-.474L66.667 120zm0-39.67c0-.182.104-.435.237-.567l6.192-6.192a.334.334 0 0 0 0-.475l-6.192-6.192a.927.927 0 0 1-.237-.567V53.663c0-.182.15-.33.33-.33H79.67c.182 0 .33.15.33.33v12.674c0 .182.066.198.152.026l6.363-12.726a.595.595 0 0 1 .482-.304h19.34c.182 0 .33.14.33.34v5.987c0 .188-.15.34-.33.34H93.663c-.182 0-.33.14-.33.34v5.987c0 .188.15.34.33.34h12.674c.182 0 .33.143.33.337v25.992c0 .186-.15.337-.33.337H93.663a.331.331 0 0 1-.33-.33V80.33c0-.182.14-.33.34-.33h5.987c.188 0 .34-.14.34-.34v-5.987c0-.188-.15-.34-.33-.34H86.996c-.182 0-.33.15-.33.33v19.34c0 .182-.139.33-.34.33H80.34a.336.336 0 0 1-.34-.33V80.33c0-.182-.14-.33-.34-.33h-5.987c-.188 0-.34.15-.34.33v12.674c0 .182-.139.33-.34.33h-5.987a.336.336 0 0 1-.34-.33V80.33zm106.666 0c0-.182.105-.435.238-.567l6.192-6.192a.334.334 0 0 0 0-.475l-6.192-6.192a.927.927 0 0 1-.238-.567V53.663c0-.182.15-.33.33-.33h12.674c.182 0 .33.15.33.33v12.674c0 .182.066.198.151.026l6.364-12.726a.595.595 0 0 1 .482-.304h19.339c.182 0 .33.14.33.34v5.987c0 .188-.15.34-.33.34H200.33c-.182 0-.33.14-.33.34v5.987c0 .188.15.34.33.34h12.674c.182 0 .33.143.33.337v25.992c0 .186-.15.337-.33.337H200.33a.331.331 0 0 1-.33-.33V80.33c0-.182.14-.33.34-.33h5.987c.188 0 .34-.14.34-.34v-5.987c0-.188-.15-.34-.33-.34h-12.674c-.182 0-.33.15-.33.33v19.34c0 .182-.139.33-.34.33h-5.987a.336.336 0 0 1-.34-.33V80.33a.327.327 0 0 0-.34-.33h-5.986c-.188 0-.34.15-.34.33v12.674c0 .182-.14.33-.34.33h-5.987a.336.336 0 0 1-.34-.33V80.33zM160 63.302c0 1.858-1.042 4.406-2.407 5.771l-1.853 1.854c-1.33 1.329-1.365 3.448 0 4.813l1.853 1.853c1.33 1.33 2.407 3.834 2.407 5.772v6.604c0 1.858-1.427 3.364-3.365 3.364h-6.604c-1.858 0-3.364-1.427-3.364-3.364v-6.604c0-1.859-.616-2.135-1.547-.273l-3.574 7.149c-.854 1.708-3.115 3.092-4.849 3.092h-13.394c-1.824 0-3.303-1.546-3.303-3.333 0-1.84 1.427-3.333 3.365-3.333h6.604c1.858 0 3.364-1.547 3.364-3.334 0-1.84-1.427-3.333-3.364-3.333h-6.604c-1.859 0-3.365-1.434-3.365-3.27V56.603c0-1.806 1.427-3.27 3.365-3.27h6.604c1.858 0 3.364 1.427 3.364 3.365v6.604c0 1.858-1.546 3.365-3.333 3.365-1.84 0-3.333 1.546-3.333 3.333 0 1.84 1.427 3.333 3.364 3.333h6.604c1.859 0 3.365-1.569 3.365-3.302V56.636c0-1.824 1.546-3.303 3.333-3.303 1.841 0 3.334 1.427 3.334 3.365v6.604c0 1.858 1.546 3.365 3.333 3.365 1.84 0 3.333-1.427 3.333-3.365v-6.604c0-1.858 1.547-3.365 3.334-3.365 1.84 0 3.333 1.427 3.333 3.365v6.604z" fill="#FFF" mask="url(#b)"/></g></svg>