<svg width="140" height="200" viewBox="0 0 140 200" xmlns="http://www.w3.org/2000/svg" xmlns:xlink="http://www.w3.org/1999/xlink"><title>SB</title><defs><rect id="a" width="280" height="200" rx="2"/><linearGradient x1="50%" y1="0%" x2="50%" y2="100%" id="b"><stop stop-color="#1DBE4F" offset="0%"/><stop stop-color="#159B3F" offset="100%"/></linearGradient><linearGradient x1="50%" y1="0%" x2="50%" y2="100%" id="f"><stop stop-color="#0660D4" offset="0%"/><stop stop-color="#0051BB" offset="100%"/></linearGradient><path id="e" d="M0 0h280L0 200z"/><filter x="-.5%" y="-.8%" width="101.1%" height="101.5%" filterUnits="objectBoundingBox" id="d"><feMorphology radius=".5" operator="dilate" in="SourceAlpha" result="shadowSpreadOuter1"/><feOffset in="shadowSpreadOuter1" result="shadowOffsetOuter1"/><feColorMatrix values="0 0 0 0 0 0 0 0 0 0 0 0 0 0 0 0 0 0 0.06 0" in="shadowOffsetOuter1"/></filter></defs><g fill="none" fill-rule="evenodd"><mask id="c" fill="#fff"><use xlink:href="#a"/></mask><use fill="#FFF" xlink:href="#a"/><path fill="url(#b)" mask="url(#c)" d="M0 0h280v200H0z"/><g mask="url(#c)"><use fill="#000" filter="url(#d)" xlink:href="#e"/><use fill="url(#f)" xlink:href="#e"/></g><path fill="#2C7442" mask="url(#c)" transform="matrix(-1 0 0 1 280 0)" d="M0 0l280 200H0z"/><path fill="#FFD646" mask="url(#c)" d="M-53.333 86.667h386.667v26.667H-53.333z"/><path d="M30 38.333l-9.796 5.15 1.87-10.908-7.925-7.725 10.953-1.592L30 13.333l4.898 9.925 10.953 1.592-7.926 7.725 1.871 10.909L30 38.334zm66.667 0l-9.797 5.15 1.871-10.908-7.925-7.725 10.952-1.592 4.899-9.925 4.898 9.925 10.953 1.592-7.926 7.725 1.871 10.909-9.796-5.15zm0 40l-9.797 5.15 1.871-10.908-7.925-7.725 10.952-1.592 4.899-9.925 4.898 9.925 10.953 1.592-7.926 7.725 1.871 10.909-9.796-5.15zm-66.667 0l-9.796 5.15 1.87-10.908-7.925-7.725 10.953-1.592L30 53.333l4.898 9.925 10.953 1.592-7.926 7.725 1.871 10.909L30 78.334zm33.333-20l-9.796 5.15 1.87-10.908-7.925-7.725 10.953-1.592 4.898-9.925 4.899 9.925 10.952 1.592-7.925 7.725 1.87 10.909-9.796-5.15z" fill="#FFF" mask="url(#c)"/></g></svg>