<svg width="280" height="200" viewBox="0 0 280 200" xmlns="http://www.w3.org/2000/svg" xmlns:xlink="http://www.w3.org/1999/xlink"><title>SG</title><defs><rect id="a" width="280" height="200" rx="2"/></defs><g fill="none" fill-rule="evenodd"><mask id="b" fill="#fff"><use xlink:href="#a"/></mask><use fill="#FFF" xlink:href="#a"/><rect stroke="#F5F5F5" stroke-width=".5" x=".25" y=".25" width="279.5" height="199.5" rx="2"/><path fill="#E12237" mask="url(#b)" d="M0 0h280v106.667H0z"/><path d="M91.648 22.092A33.263 33.263 0 0 0 80 20c-18.41 0-33.333 14.924-33.333 33.333 0 18.41 14.924 33.334 33.333 33.334 4.098 0 8.022-.74 11.648-2.092a39.831 39.831 0 0 1-24.981 8.758c-22.092 0-40-17.908-40-40 0-22.091 17.908-40 40-40a39.831 39.831 0 0 1 24.981 8.759zM73.333 53.333a6.667 6.667 0 1 1 0-13.333 6.667 6.667 0 0 1 0 13.333zM86.667 80a6.667 6.667 0 1 1 0-13.333 6.667 6.667 0 0 1 0 13.333zm26.666 0a6.667 6.667 0 1 1 0-13.333 6.667 6.667 0 0 1 0 13.333zm13.334-26.667a6.667 6.667 0 1 1 0-13.333 6.667 6.667 0 0 1 0 13.333zm-26.667-20A6.667 6.667 0 1 1 100 20a6.667 6.667 0 0 1 0 13.333z" fill="#FFF" mask="url(#b)"/></g></svg>