<svg width="280" height="200" viewBox="0 0 280 200" xmlns="http://www.w3.org/2000/svg" xmlns:xlink="http://www.w3.org/1999/xlink"><title>SH</title><defs><rect id="a" width="280" height="200" rx="2"/><linearGradient x1="50%" y1="0%" x2="50%" y2="100%" id="b"><stop stop-color="#07319C" offset="0%"/><stop stop-color="#00247E" offset="100%"/></linearGradient><path d="M0 46.667V1.333C0 .597.597 0 1.332 0h64.003c.735 0 1.332.595 1.332 1.333v45.334c0 33.333-33.334 46.666-33.334 46.666S0 80 0 46.667z" id="d"/><path d="M0 46.667V1.333C0 .597.597 0 1.332 0h64.003c.735 0 1.332.595 1.332 1.333v45.334c0 33.333-33.334 46.666-33.334 46.666S0 80 0 46.667z" id="f"/><path d="M46.667 40L0 0h6.667l46.666 33.333h13.334L120 0v6.327a.727.727 0 0 1-.274.535L73.333 40v13.333l46.416 39.785c.139.119.112.215-.089.215h-5.987c-.188 0-.457-.084-.614-.195L66.667 60H53.333L0 93.333v-6.666l46.667-33.334V40z" id="g"/></defs><g fill="none" fill-rule="evenodd"><mask id="c" fill="#fff"><use xlink:href="#a"/></mask><use fill="#FFF" xlink:href="#a"/><path fill="url(#b)" mask="url(#c)" d="M0 0h280v200H0z"/><g mask="url(#c)"><g transform="translate(173.333 53.333)"><mask id="e" fill="#fff"><use xlink:href="#d"/></mask><use fill="#8FC5FF" xlink:href="#d"/><path d="M27.565 65.502s6.673-8.64 10.599-8.64c3.925 0 4.645 5.737 10.681 5.737s9.219-9.144 15.032-9.144c5.814 0 0 30 0 30L56 91.581 9.886 96.907l17.68-31.405z" fill="#366CC9" mask="url(#e)"/><path fill="#CF6200" mask="url(#e)" d="M7.929 52.179l5.885-5.512 5.782 14.157 7.763-14.157 6.676 40.353-11.102-2.258-36.266-16.582z"/><path fill="#FF0" mask="url(#e)" d="M0 0h66.667v40H0z"/></g><path stroke="#FFF" stroke-width=".667" d="M206.666 146.306l.242-.103c.302-.131.653-.29 1.048-.476a56.761 56.761 0 0 0 3.754-1.955 64.922 64.922 0 0 0 11.4-8.187c10.351-9.316 16.556-21.105 16.556-35.585V54.666c0-.553-.446-1-.998-1h-64.003a1 1 0 0 0-.999 1V100c0 14.48 6.205 26.27 16.557 35.585a64.922 64.922 0 0 0 11.4 8.187c1.36.77 2.621 1.421 3.753 1.955a36.72 36.72 0 0 0 1.29.579z"/></g><g mask="url(#c)"><use fill="#DB1E36" xlink:href="#g"/><path stroke="#FFF" stroke-width=".667" d="M46.333 40.153L-.9-.333h7.568l.193.062L53.44 33h13.131L120.333-.601v6.928c0 .297-.17.633-.413.807L73.667 40.172V53.18l46.299 39.685c.377.323.2.802-.306.802h-5.987c-.259 0-.596-.107-.807-.258L66.56 60.333H53.429L-.333 93.935v-7.44l46.666-33.333V40.153z"/></g><path d="M0 33.333V60h46.667v39.34c0 .364.3.66.659.66h25.348c.364 0 .66-.299.66-.66V60h52.658a.67.67 0 0 0 .675-.66V33.994c0-.365-.3-.66-.675-.66H73.333V0H46.667v33.333H0z" fill="#FFF" mask="url(#c)"/><path fill="#DB1E36" mask="url(#c)" d="M0 40h53.333V0h13.334v40H120v13.333H66.667v40H53.333v-40H0z"/></g></svg>