<svg width="280" height="200" viewBox="0 0 280 200" xmlns="http://www.w3.org/2000/svg" xmlns:xlink="http://www.w3.org/1999/xlink"><title>SI</title><defs><rect id="a" width="280" height="200" rx="2"/><path id="d" d="M0 133.333h280V200H0z"/><filter x="-.5%" y="-2.3%" width="101.1%" height="104.5%" filterUnits="objectBoundingBox" id="c"><feMorphology radius=".5" operator="dilate" in="SourceAlpha" result="shadowSpreadOuter1"/><feOffset in="shadowSpreadOuter1" result="shadowOffsetOuter1"/><feColorMatrix values="0 0 0 0 0 0 0 0 0 0 0 0 0 0 0 0 0 0 0.06 0" in="shadowOffsetOuter1"/></filter></defs><g fill="none" fill-rule="evenodd"><mask id="b" fill="#fff"><use xlink:href="#a"/></mask><use fill="#FFF" xlink:href="#a"/><rect stroke="#F5F5F5" stroke-width=".5" x=".25" y=".25" width="279.5" height="199.5" rx="2"/><path d="M0 133.333V0h280v133.333H0zm0-66.666h53.333V53.333s10.297-6.666 20-6.666c9.704 0 19.107 6.666 19.107 6.666v13.334H280V0H0v66.667zm73.333 26.666c7.364 0 13.334-5.97 13.334-13.333 0-7.364-5.97-13.333-13.334-13.333C65.97 66.667 60 72.637 60 80c0 7.364 5.97 13.333 13.333 13.333z" fill="#0C47B7" mask="url(#b)"/><g mask="url(#b)"><use fill="#000" filter="url(#c)" xlink:href="#d"/><use fill="#E53B35" xlink:href="#d"/></g></g></svg>