<svg width="233" height="200" viewBox="0 0 233 200" xmlns="http://www.w3.org/2000/svg" xmlns:xlink="http://www.w3.org/1999/xlink"><title>SK</title><defs><rect id="a" width="280" height="200" rx="2"/><path d="M9.949 1.327A1.394 1.394 0 0 1 11.327 0H95.34c.733 0 1.35.6 1.378 1.327l3.231 84.013c.028.733-.396 1.71-.967 2.2l-44.136 37.83c-.835.716-2.19.716-3.026 0L7.685 87.54c-.563-.483-.995-1.473-.967-2.2L9.949 1.327z" id="c"/></defs><g fill="none" fill-rule="evenodd"><mask id="b" fill="#fff"><use xlink:href="#a"/></mask><use fill="#FFF" xlink:href="#a"/><rect stroke="#F5F5F5" stroke-width=".5" x=".25" y=".25" width="279.5" height="199.5" rx="2"/><path fill="#0C47B7" mask="url(#b)" d="M0 66.667h280v66.667H0z"/><path fill="#E53B35" mask="url(#b)" d="M0 133.333h280V200H0z"/><g mask="url(#b)"><g transform="translate(46.667 40)"><mask id="d" fill="#fff"><use xlink:href="#c"/></mask><use fill="#F73744" xlink:href="#c"/><path stroke="#FFF" stroke-width="1.333" d="M9.283 1.301a2.06 2.06 0 0 1 2.044-1.968H95.34a2.06 2.06 0 0 1 2.044 1.968l3.231 84.013c.036.94-.477 2.112-1.2 2.731L55.28 125.876c-1.085.93-2.808.93-3.893 0L7.25 88.046c-.715-.613-1.235-1.799-1.2-2.732L9.284 1.301z"/><path d="M46.667 67.004a.335.335 0 0 0-.33-.337h-19.34a.331.331 0 0 1-.33-.33V53.663c0-.182.15-.33.33-.33h19.34c.182 0 .33-.15.33-.33V40.33c0-.182-.15-.33-.33-.33H33.663a.331.331 0 0 1-.33-.33V26.996c0-.182.15-.33.33-.33h12.674c.182 0 .33-.15.33-.329V13.663c0-.182.15-.33.33-.33H59.67c.182 0 .33.15.33.33v12.674c0 .182.15.33.33.33h12.674c.182 0 .33.15.33.33V39.67c0 .182-.15.33-.33.33H60.33c-.182 0-.33.15-.33.33v12.674c0 .182.15.33.33.33h19.34c.182 0 .33.15.33.329v12.674c0 .182-.15.33-.33.33H60.33a.33.33 0 0 0-.33.337v25.992c0 .186-.15.337-.33.337H46.996a.329.329 0 0 1-.33-.337V67.004z" fill="#FFF" mask="url(#d)"/><path d="M41.298 94.254c-16.21 2.554-27.965 10.13-27.965 19.08 0 11.045 17.909 20 40 20 22.092 0 40-8.955 40-20 0-8.95-11.754-16.526-27.964-19.08-2.147-4.487-6.73-7.587-12.036-7.587-5.306 0-9.889 3.1-12.035 7.587z" fill="#1251A1" mask="url(#d)"/></g></g></g></svg>