<svg width="280" height="200" viewBox="0 0 280 200" xmlns="http://www.w3.org/2000/svg" xmlns:xlink="http://www.w3.org/1999/xlink"><title>ST</title><defs><rect id="a" width="280" height="200" rx="2"/></defs><g fill="none" fill-rule="evenodd"><mask id="b" fill="#fff"><use xlink:href="#a"/></mask><use fill="#FFF" xlink:href="#a"/><path fill="#2ACB41" mask="url(#b)" d="M0 133.333h280V200H0zM0 0h280v66.667H0z"/><path fill="#FDD043" mask="url(#b)" d="M0 66.667h280v66.667H0z"/><path fill="#E71E43" mask="url(#b)" d="M0 0l106.667 100L0 200z"/><path fill="#262626" mask="url(#b)" d="M146.667 110.933l-15.675 10.64 5.276-18.194-14.963-11.62 18.935-.604 6.427-17.822 6.426 17.822 18.935.605-14.963 11.619 5.276 18.195zM213.333 110.933l-15.674 10.64 5.276-18.194-14.963-11.62 18.935-.604 6.426-17.822 6.427 17.822 18.935.605-14.963 11.619 5.276 18.195z"/></g></svg>