<svg width="280" height="200" viewBox="0 0 280 200" xmlns="http://www.w3.org/2000/svg" xmlns:xlink="http://www.w3.org/1999/xlink"><title>SV</title><defs><rect id="a" width="280" height="200" rx="2"/><linearGradient x1="50%" y1="0%" x2="50%" y2="100%" id="c"><stop stop-color="#3C7839" offset="0%"/><stop stop-color="#31642E" offset="100%"/></linearGradient></defs><g fill="none" fill-rule="evenodd"><mask id="b" fill="#fff"><use xlink:href="#a"/></mask><use fill="#FFF" xlink:href="#a"/><rect stroke="#F5F5F5" stroke-width=".5" x=".25" y=".25" width="279.5" height="199.5" rx="2"/><path fill="#1B57C4" mask="url(#b)" d="M0 0h280v66.667H0zm0 133.333h280V200H0z"/><path d="M124 78.665c-6.477 4.865-10.667 12.61-10.667 21.335 0 14.728 11.94 26.667 26.667 26.667 14.728 0 26.667-11.94 26.667-26.667 0-8.724-4.19-16.47-10.666-21.335l-9.334 28.002h-13.334L124 78.665z" fill="url(#c)" mask="url(#b)"/><path fill="#F9C92E" mask="url(#b)" d="M140 73.333l6.667 33.334h-13.334z"/></g></svg>