<svg width="280" height="200" viewBox="0 0 280 200" xmlns="http://www.w3.org/2000/svg" xmlns:xlink="http://www.w3.org/1999/xlink"><title>SY</title><defs><rect id="a" width="280" height="200" rx="2"/></defs><g fill="none" fill-rule="evenodd"><mask id="b" fill="#fff"><use xlink:href="#a"/></mask><use fill="#FFF" xlink:href="#a"/><rect stroke="#F5F5F5" stroke-width=".5" x=".25" y=".25" width="279.5" height="199.5" rx="2"/><path fill="#262626" mask="url(#b)" d="M0 133.333h280V200H0z"/><path fill="#E32139" mask="url(#b)" d="M0 0h280v66.667H0z"/><path fill="#128A49" mask="url(#b)" d="M93.333 110.933l-15.674 10.64 5.276-18.194-14.963-11.62 18.935-.604 6.426-17.822 6.427 17.822 18.935.605-14.963 11.619 5.276 18.195zM186.667 110.933l-15.675 10.64 5.276-18.194-14.963-11.62 18.935-.604 6.427-17.822 6.426 17.822 18.935.605-14.963 11.619 5.276 18.195z"/></g></svg>