<svg width="280" height="200" viewBox="0 0 280 200" xmlns="http://www.w3.org/2000/svg" xmlns:xlink="http://www.w3.org/1999/xlink"><title>TC</title><defs><rect id="a" width="280" height="200" rx="2"/><path d="M0 46.667V1.333C0 .597.597 0 1.332 0h64.003c.735 0 1.332.595 1.332 1.333v45.334c0 33.333-33.334 46.666-33.334 46.666S0 80 0 46.667z" id="c"/><path d="M46.667 40L0 0h6.667l46.666 33.333h13.334L120 0v6.327a.727.727 0 0 1-.274.535L73.333 40v13.333l46.416 39.785c.139.119.112.215-.089.215h-5.987c-.188 0-.457-.084-.614-.195L66.667 60H53.333L0 93.333v-6.666l46.667-33.334V40z" id="e"/></defs><g fill="none" fill-rule="evenodd"><mask id="b" fill="#fff"><use xlink:href="#a"/></mask><use fill="#FFF" xlink:href="#a"/><path fill="#07319C" mask="url(#b)" d="M0 0h280v200H0z"/><g transform="translate(173.333 53.333)" mask="url(#b)"><mask id="d" fill="#fff"><use xlink:href="#c"/></mask><use fill="#FFD033" xlink:href="#c"/><path stroke="#FFF" stroke-width=".667" d="M33.333 92.973l.242-.103c.302-.131.653-.29 1.048-.476a56.761 56.761 0 0 0 3.754-1.955 64.922 64.922 0 0 0 11.4-8.187c10.351-9.316 16.556-21.105 16.556-35.585V1.333c0-.553-.446-1-.998-1H1.332a1 1 0 0 0-.999 1v45.334c0 14.48 6.205 26.27 16.557 35.585a64.922 64.922 0 0 0 11.4 8.187c1.36.77 2.621 1.421 3.753 1.955a36.72 36.72 0 0 0 1.29.579z"/><ellipse fill="#BA5B1F" mask="url(#d)" cx="46.667" cy="26.667" rx="6.667" ry="13.333"/><ellipse fill="#FF9F3E" mask="url(#d)" transform="rotate(-20 17.492 27.069)" cx="17.492" cy="27.069" rx="6.667" ry="13.333"/><ellipse fill="#FF937F" mask="url(#d)" transform="rotate(25 22.817 27.291)" cx="22.817" cy="27.291" rx="6.667" ry="13.333"/><path fill="#01A827" mask="url(#d)" d="M26.667 53.333L33.333 40 40 53.333v13.334H26.667z"/></g><g mask="url(#b)"><use fill="#DB1E36" xlink:href="#e"/><path stroke="#FFF" stroke-width=".667" d="M46.333 40.153L-.9-.333h7.568l.193.062L53.44 33h13.131L120.333-.601v6.928c0 .297-.17.633-.413.807L73.667 40.172V53.18l46.299 39.685c.377.323.2.802-.306.802h-5.987c-.259 0-.596-.107-.807-.258L66.56 60.333H53.429L-.333 93.935v-7.44l46.666-33.333V40.153z"/></g><path d="M0 33.333V60h46.667v39.34c0 .364.3.66.659.66h25.348c.364 0 .66-.299.66-.66V60h52.658a.67.67 0 0 0 .675-.66V33.994c0-.365-.3-.66-.675-.66H73.333V0H46.667v33.333H0z" fill="#FFF" mask="url(#b)"/><path fill="#DB1E36" mask="url(#b)" d="M0 40h53.333V0h13.334v40H120v13.333H66.667v40H53.333v-40H0z"/></g></svg>