<svg width="280" height="200" viewBox="0 0 280 200" xmlns="http://www.w3.org/2000/svg" xmlns:xlink="http://www.w3.org/1999/xlink"><title>TJ</title><defs><rect id="a" width="280" height="200" rx="2"/></defs><g fill="none" fill-rule="evenodd"><mask id="b" fill="#fff"><use xlink:href="#a"/></mask><use fill="#FFF" xlink:href="#a"/><rect stroke="#F5F5F5" stroke-width=".5" x=".25" y=".25" width="279.5" height="199.5" rx="2"/><path fill="#D9101C" mask="url(#b)" d="M0 0h280v66.667H0z"/><path fill="#0F7811" mask="url(#b)" d="M0 133.333h280V200H0z"/><path d="M134.213 106.667c-.56-2.9-.88-5.461-.88-6.667a6.667 6.667 0 0 1 13.334 0c0 1.206-.32 3.767-.88 6.667h13.552c.365 0 .661.303.661.66v12.012a.663.663 0 0 1-.66.661h-38.68a.666.666 0 0 1-.66-.661v-12.011c0-.365.299-.661.66-.661h13.553zm-7.546-13.334a6.667 6.667 0 1 1 0-13.333 6.667 6.667 0 0 1 0 13.333zm26.666 0a6.667 6.667 0 1 1 0-13.333 6.667 6.667 0 0 1 0 13.333zM180 106.667a6.667 6.667 0 1 1 0-13.334 6.667 6.667 0 0 1 0 13.334zm-80 0a6.667 6.667 0 1 1 0-13.334 6.667 6.667 0 0 1 0 13.334z" fill="#FAD14E" mask="url(#b)"/></g></svg>