<svg width="165" height="171" viewBox="0 0 165 171" xmlns="http://www.w3.org/2000/svg" xmlns:xlink="http://www.w3.org/1999/xlink"><title>TM</title><defs><rect id="a" width="280" height="200" rx="2"/><ellipse id="c" cx="20" cy="13.333" rx="20" ry="13.333"/><ellipse id="e" cx="20" cy="13.333" rx="20" ry="13.333"/><ellipse id="g" cx="20" cy="13.333" rx="20" ry="13.333"/><ellipse id="i" cx="20" cy="6.667" rx="20" ry="6.667"/><ellipse id="j" cx="20" cy="13.333" rx="20" ry="13.333"/></defs><g fill="none" fill-rule="evenodd"><mask id="b" fill="#fff"><use xlink:href="#a"/></mask><use fill="#FFF" xlink:href="#a"/><path fill="#30C375" mask="url(#b)" d="M0 0h280v200H0z"/><path fill="#DE414F" mask="url(#b)" d="M40 0h40v200H40z"/><g transform="translate(40 13.333)" mask="url(#b)"><mask id="d" fill="#fff"><use xlink:href="#c"/></mask><use fill="#FFF" xlink:href="#c"/><circle fill="#DD404F" mask="url(#d)" cx="20" cy="13.333" r="6.667"/><path fill="#FBAF29" mask="url(#d)" d="M0 0h20v13.333H0zm20 13.333h20v13.333H20z"/></g><g transform="translate(40 160)" mask="url(#b)"><mask id="f" fill="#fff"><use xlink:href="#e"/></mask><use fill="#FFF" xlink:href="#e"/><circle fill="#DD404F" mask="url(#f)" cx="20" cy="13.333" r="6.667"/><path fill="#FBAF29" mask="url(#f)" d="M0 0h20v13.333H0z"/></g><g transform="translate(40 93.333)" mask="url(#b)"><mask id="h" fill="#fff"><use xlink:href="#g"/></mask><use fill="#28AE67" xlink:href="#g"/><ellipse fill="#DD404F" mask="url(#h)" cx="20" cy="13.333" rx="13.333" ry="6.667"/></g><use fill="#28AE67" xlink:href="#i" transform="translate(40 133.333)" mask="url(#b)"/><g transform="translate(40 53.333)" mask="url(#b)"><mask id="k" fill="#fff"><use xlink:href="#j"/></mask><use fill="#FBAF29" xlink:href="#j"/><circle fill="#DD404F" mask="url(#k)" cx="20" cy="13.333" r="6.667"/><path fill="#28AE67" mask="url(#k)" d="M0 0h13.333v26.667H0zm26.667 0H40v26.667H26.667z"/></g><path d="M148.227 42.382a6.667 6.667 0 1 0 10.213 8.57 6.667 6.667 0 0 0-10.213-8.57zm-17.275 25.845a6.667 6.667 0 1 0-8.57 10.213 6.667 6.667 0 0 0 8.57-10.213zM117.62 54.893a6.667 6.667 0 1 0-8.57 10.214 6.667 6.667 0 0 0 8.57-10.214zm26.666-26.666a6.667 6.667 0 1 0-8.57 10.213 6.667 6.667 0 0 0 8.57-10.213zm-6.666 20a6.667 6.667 0 1 0-8.57 10.213 6.667 6.667 0 0 0 8.57-10.213z" fill="#FFF" mask="url(#b)"/><path d="M174.761 94.505c-15.88 15.88-41.628 15.88-57.508 0a40.966 40.966 0 0 1-4.17-4.876c15.902 11.562 38.29 10.173 52.633-4.17 14.341-14.34 15.731-36.73 4.169-52.631a40.966 40.966 0 0 1 4.876 4.169c15.88 15.88 15.88 41.628 0 57.508z" fill="#FFF" mask="url(#b)"/></g></svg>