<svg width="280" height="200" viewBox="0 0 280 200" xmlns="http://www.w3.org/2000/svg" xmlns:xlink="http://www.w3.org/1999/xlink"><title>TN</title><defs><rect id="a" width="280" height="200" rx="2"/></defs><g fill="none" fill-rule="evenodd"><mask id="b" fill="#fff"><use xlink:href="#a"/></mask><use fill="#FFF" xlink:href="#a"/><path fill="#E92434" mask="url(#b)" d="M0 0h280v200H0z"/><path d="M158.111 56.978A46.521 46.521 0 0 0 140 53.333c-25.773 0-46.667 20.894-46.667 46.667 0 25.773 20.894 46.667 46.667 46.667a46.521 46.521 0 0 0 18.111-3.645C136.641 140.443 120 122.165 120 100s16.641-40.443 38.111-43.022zM140 160c-33.137 0-60-26.863-60-60s26.863-60 60-60 60 26.863 60 60-26.863 60-60 60zm23.542-48.299l18.032 6.736-10.338-16.237 11.979-15.068-18.638 4.814-10.629-16.049-1.18 19.213-18.548 5.15 17.908 7.06-.834 19.23 12.248-14.849z" fill="#FFF" mask="url(#b)"/></g></svg>