<svg width="280" height="177" viewBox="0 0 280 177" xmlns="http://www.w3.org/2000/svg" xmlns:xlink="http://www.w3.org/1999/xlink"><title>TO</title><defs><rect id="a" width="280" height="200" rx="2"/><linearGradient x1="50%" y1="0%" x2="50%" y2="100%" id="c"><stop stop-color="#DF101B" offset="0%"/><stop stop-color="#C00711" offset="100%"/></linearGradient></defs><g fill="none" fill-rule="evenodd"><mask id="b" fill="#fff"><use xlink:href="#a"/></mask><use fill="#FFF" xlink:href="#a"/><rect stroke="#F5F5F5" stroke-width=".5" x=".25" y=".25" width="279.5" height="199.5" rx="2"/><path d="M0 0h280v200H0V0zm0 106.667h160V0H0v106.667z" fill="#E20F1B" mask="url(#b)"/><path d="M93.333 40V13.673a.338.338 0 0 0-.337-.34H67.004a.334.334 0 0 0-.337.34V40H40.339a.338.338 0 0 0-.339.337V66.33c0 .193.152.337.34.337h26.327v26.327c0 .187.15.34.337.34h25.992a.334.334 0 0 0 .337-.34V66.667h26.328c.187 0 .339-.151.339-.337V40.337a.334.334 0 0 0-.34-.337H93.334z" fill="url(#c)" mask="url(#b)"/></g></svg>