<svg width="280" height="200" viewBox="0 0 280 200" xmlns="http://www.w3.org/2000/svg" xmlns:xlink="http://www.w3.org/1999/xlink"><title>TR</title><defs><rect id="a" width="280" height="200" rx="2"/></defs><g fill="none" fill-rule="evenodd"><mask id="b" fill="#fff"><use xlink:href="#a"/></mask><use fill="#FFF" xlink:href="#a"/><path fill="#E92434" mask="url(#b)" d="M0 0h280v200H0z"/><path fill="#FFF" mask="url(#b)" d="M186.858 108.125l-15.674 11.173 5.783-18.36-15.47-11.454 19.248-.173 6.113-18.253 6.113 18.253 19.248.173-15.47 11.454 5.783 18.36-15.674-11.173z"/><path d="M174.028 63.159C163.048 49.065 145.916 40 126.667 40c-33.137 0-60 26.863-60 60s26.863 60 60 60c19.25 0 36.382-9.065 47.36-23.159-8.472 6.158-19.124 9.826-30.694 9.826-27.614 0-50-20.894-50-46.667 0-25.773 22.386-46.667 50-46.667 11.57 0 22.222 3.668 30.695 9.826z" fill="#FFF" mask="url(#b)"/></g></svg>