<svg width="280" height="161" viewBox="0 0 280 161" xmlns="http://www.w3.org/2000/svg" xmlns:xlink="http://www.w3.org/1999/xlink"><title>UG</title><defs><rect id="a" width="280" height="200" rx="2"/></defs><g fill="none" fill-rule="evenodd"><mask id="b" fill="#fff"><use xlink:href="#a"/></mask><use fill="#FFF" xlink:href="#a"/><path fill="#262626" mask="url(#b)" d="M0 0h280v26.667H0zM0 106.667h280v26.667H0z"/><path fill="#ED1623" mask="url(#b)" d="M0 66.667h280v40H0z"/><path fill="#FEE044" mask="url(#b)" d="M0 26.667h280v40H0zM0 133.333h280v40H0z"/><circle fill="#FFF" mask="url(#b)" cx="140" cy="100" r="46.667"/><path d="M126.904 73.57a.334.334 0 0 1 0-.474l6.192-6.192c.131-.131.321-.351.435-.501l6.297-3.337c.095.148.263.154.386.016l6.272 3.305c.1.154.115.412.029.583l-6.363 12.726a1.65 1.65 0 0 0-.152.644v5.987c0 .188.132.406.304.491l12.726 6.364c.167.083.403.251.535.383l12.87 12.87a.489.489 0 0 1 .08.535l-6.363 12.726c-.084.168-.257.2-.39.067l-6.191-6.192a.334.334 0 0 0-.475 0l-6.192 6.192a.906.906 0 0 0-.237.577v5.987a.93.93 0 0 0 .237.577l6.192 6.192c.131.131.088.237-.093.237h-19.34c-.182 0-.225-.104-.092-.237l6.192-6.192a.906.906 0 0 0 .237-.577v-5.987c0-.188-.14-.34-.34-.34h-5.987a.93.93 0 0 0-.577.237l-6.192 6.192a.334.334 0 0 1-.475 0l-6.192-6.192a.334.334 0 0 1 0-.474l6.192-6.192a.927.927 0 0 1 .567-.238h12.674c.182 0 .222-.107.091-.238L120.24 93.572a.329.329 0 0 1-.008-.47l12.87-12.87a.33.33 0 0 0-.005-.47l-6.192-6.191z" fill="#262626" mask="url(#b)"/></g></svg>