<svg width="280" height="144" viewBox="0 0 280 144" xmlns="http://www.w3.org/2000/svg" xmlns:xlink="http://www.w3.org/1999/xlink"><title>US</title><defs><rect id="a" width="280" height="200" rx="2"/><linearGradient x1="50%" y1="0%" x2="50%" y2="100%" id="e"><stop stop-color="#FFF" offset="0%"/><stop stop-color="#F0F0F0" offset="100%"/></linearGradient><path d="M20 26.667a6.667 6.667 0 1 1 0-13.334 6.667 6.667 0 0 1 0 13.334zm26.667 0a6.667 6.667 0 1 1 0-13.334 6.667 6.667 0 0 1 0 13.334zm26.666 0a6.667 6.667 0 1 1 0-13.334 6.667 6.667 0 0 1 0 13.334zm26.667 0a6.667 6.667 0 1 1 0-13.334 6.667 6.667 0 0 1 0 13.334zM33.333 40a6.667 6.667 0 1 1 0-13.333 6.667 6.667 0 0 1 0 13.333zM60 40a6.667 6.667 0 1 1 0-13.333A6.667 6.667 0 0 1 60 40zm26.667 0a6.667 6.667 0 1 1 0-13.333 6.667 6.667 0 0 1 0 13.333zM100 53.333A6.667 6.667 0 1 1 100 40a6.667 6.667 0 0 1 0 13.333zm-26.667 0a6.667 6.667 0 1 1 0-13.333 6.667 6.667 0 0 1 0 13.333zm-26.666 0a6.667 6.667 0 1 1 0-13.333 6.667 6.667 0 0 1 0 13.333zm-26.667 0A6.667 6.667 0 1 1 20 40a6.667 6.667 0 0 1 0 13.333zm13.333 13.334a6.667 6.667 0 1 1 0-13.334 6.667 6.667 0 0 1 0 13.334zm26.667 0a6.667 6.667 0 1 1 0-13.334 6.667 6.667 0 0 1 0 13.334zm26.667 0a6.667 6.667 0 1 1 0-13.334 6.667 6.667 0 0 1 0 13.334zM100 80a6.667 6.667 0 1 1 0-13.333A6.667 6.667 0 0 1 100 80zm-26.667 0a6.667 6.667 0 1 1 0-13.333 6.667 6.667 0 0 1 0 13.333zm-26.666 0a6.667 6.667 0 1 1 0-13.333 6.667 6.667 0 0 1 0 13.333zM20 80a6.667 6.667 0 1 1 0-13.333A6.667 6.667 0 0 1 20 80z" id="d"/><filter x="-.5%" y="-.8%" width="101.1%" height="103%" filterUnits="objectBoundingBox" id="c"><feOffset dy="1" in="SourceAlpha" result="shadowOffsetOuter1"/><feColorMatrix values="0 0 0 0 0 0 0 0 0 0 0 0 0 0 0 0 0 0 0.06 0" in="shadowOffsetOuter1"/></filter></defs><g fill="none" fill-rule="evenodd"><mask id="b" fill="#fff"><use xlink:href="#a"/></mask><use fill="#FFF" xlink:href="#a"/><path d="M0 0h280v13.333H0V0zm0 26.667h280V40H0V26.667zm0 26.666h280v13.334H0V53.333zM0 80h280v13.333H0V80zm0 26.667h280V120H0v-13.333zm0 26.666h280v13.334H0v-13.334zM0 160h280v13.333H0V160zm0 26.667h280V200H0v-13.333z" fill="#D02F44" mask="url(#b)"/><path fill="#46467F" mask="url(#b)" d="M0 0h120v93.333H0z"/><g mask="url(#b)"><use fill="#000" filter="url(#c)" xlink:href="#d"/><use fill="url(#e)" xlink:href="#d"/></g></g></svg>