<svg width="280" height="150" viewBox="0 0 280 150" xmlns="http://www.w3.org/2000/svg" xmlns:xlink="http://www.w3.org/1999/xlink"><title>UY</title><defs><rect id="a" width="280" height="200" rx="2"/></defs><g fill="none" fill-rule="evenodd"><mask id="b" fill="#fff"><use xlink:href="#a"/></mask><use fill="#FFF" xlink:href="#a"/><rect stroke="#F5F5F5" stroke-width=".5" x=".25" y=".25" width="279.5" height="199.5" rx="2"/><path d="M0 0h280v200H0V0zm133.333 0v26.667H280V0H133.333zm0 53.333V80H280V53.333H133.333zm0 53.334v26.666H280v-26.666H133.333zM0 160v26.667h280V160H0zM0 0v133.333h133.333V0H0z" fill="#0E4DC5" mask="url(#b)"/><path d="M66.667 93.213L57.766 106.5 55.51 90.667l-13.784 8.109 4.838-15.243-15.937 1.325L41.6 73.224l-14.934-5.722 14.934-5.72-10.973-11.635 15.937 1.325-4.838-15.243 13.784 8.109 2.255-15.833 8.9 13.287 8.902-13.287 2.254 15.833 13.784-8.109-4.838 15.243 15.937-1.325-10.972 11.634 14.934 5.721-14.934 5.722 10.972 11.634-15.937-1.325 4.838 15.243-13.784-8.11-2.254 15.834-8.901-13.287zm0-.256c14.058 0 25.454-11.396 25.454-25.455 0-14.058-11.396-25.454-25.454-25.454S41.212 53.444 41.212 67.502c0 14.059 11.397 25.455 25.455 25.455zm0-6.29c-11.046 0-20-8.955-20-20 0-11.046 8.954-20 20-20 11.045 0 20 8.954 20 20 0 11.045-8.955 20-20 20z" fill="#FED443" mask="url(#b)"/></g></svg>