<svg width="280" height="200" viewBox="0 0 280 200" xmlns="http://www.w3.org/2000/svg" xmlns:xlink="http://www.w3.org/1999/xlink"><title>UZ</title><defs><rect id="a" width="280" height="200" rx="2"/></defs><g fill="none" fill-rule="evenodd"><mask id="b" fill="#fff"><use xlink:href="#a"/></mask><use fill="#FFF" xlink:href="#a"/><rect stroke="#F5F5F5" stroke-width=".5" x=".25" y=".25" width="279.5" height="199.5" rx="2"/><path fill="#04AAC8" mask="url(#b)" d="M0 0h280v66.667H0z"/><path fill="#23C840" mask="url(#b)" d="M0 133.333h280V200H0z"/><path d="M57.78 16.703a19.907 19.907 0 0 0-11.113-3.37c-11.046 0-20 8.955-20 20 0 11.046 8.954 20 20 20 4.112 0 7.935-1.241 11.114-3.37-.368.025-.74.037-1.114.037C47.462 50 40 42.538 40 33.333c0-9.204 7.462-16.666 16.667-16.666.374 0 .746.012 1.114.036zm15.553 36.63a6.667 6.667 0 1 1 0-13.333 6.667 6.667 0 0 1 0 13.333zM100 26.667a6.667 6.667 0 1 1 0-13.334 6.667 6.667 0 0 1 0 13.334zm26.667 0a6.667 6.667 0 1 1 0-13.334 6.667 6.667 0 0 1 0 13.334zm0 26.666a6.667 6.667 0 1 1 0-13.333 6.667 6.667 0 0 1 0 13.333zm-26.667 0A6.667 6.667 0 1 1 100 40a6.667 6.667 0 0 1 0 13.333z" fill="#FFF" mask="url(#b)"/></g></svg>