<svg width="280" height="118" viewBox="0 0 280 118" xmlns="http://www.w3.org/2000/svg" xmlns:xlink="http://www.w3.org/1999/xlink"><title>VE</title><defs><rect id="a" width="280" height="200" rx="2"/></defs><g fill="none" fill-rule="evenodd"><mask id="b" fill="#fff"><use xlink:href="#a"/></mask><use fill="#FFF" xlink:href="#a"/><path fill="#063191" mask="url(#b)" d="M0 66.667h280v66.667H0z"/><path d="M140 93.333A6.667 6.667 0 1 1 140 80a6.667 6.667 0 0 1 0 13.333zM113.333 100a6.667 6.667 0 1 1 0-13.333 6.667 6.667 0 0 1 0 13.333zm53.334 0a6.667 6.667 0 1 1 0-13.333 6.667 6.667 0 0 1 0 13.333zM100 120a6.667 6.667 0 1 1 0-13.333A6.667 6.667 0 0 1 100 120zm80 0a6.667 6.667 0 1 1 0-13.333A6.667 6.667 0 0 1 180 120z" fill="#FFF" mask="url(#b)"/><path fill="#FFD044" mask="url(#b)" d="M0 0h280v66.667H0z"/></g></svg>