<svg width="280" height="200" viewBox="0 0 280 200" xmlns="http://www.w3.org/2000/svg" xmlns:xlink="http://www.w3.org/1999/xlink"><title>VG</title><defs><rect id="a" width="280" height="200" rx="2"/><path d="M0 46.667V1.333C0 .597.597 0 1.332 0h64.003c.735 0 1.332.595 1.332 1.333v45.334c0 33.333-33.334 46.666-33.334 46.666S0 80 0 46.667z" id="c"/><path d="M46.667 40L0 0h6.667l46.666 33.333h13.334L120 0v6.327a.727.727 0 0 1-.274.535L73.333 40v13.333l46.416 39.785c.139.119.112.215-.089.215h-5.987c-.188 0-.457-.084-.614-.195L66.667 60H53.333L0 93.333v-6.666l46.667-33.334V40z" id="e"/></defs><g fill="none" fill-rule="evenodd"><mask id="b" fill="#fff"><use xlink:href="#a"/></mask><use fill="#FFF" xlink:href="#a"/><path fill="#07319C" mask="url(#b)" d="M0 0h280v200H0z"/><g transform="translate(173.333 53.333)" mask="url(#b)"><mask id="d" fill="#fff"><use xlink:href="#c"/></mask><use fill="#008339" xlink:href="#c"/><path d="M20 26.667a6.667 6.667 0 1 1 0-13.334 6.667 6.667 0 0 1 0 13.334zM20 40a6.667 6.667 0 1 1 0-13.333A6.667 6.667 0 0 1 20 40zm0 13.333A6.667 6.667 0 1 1 20 40a6.667 6.667 0 0 1 0 13.333zm0 13.334a6.667 6.667 0 1 1 0-13.334 6.667 6.667 0 0 1 0 13.334zm26.667 0a6.667 6.667 0 1 1 0-13.334 6.667 6.667 0 0 1 0 13.334zm0-13.334a6.667 6.667 0 1 1 0-13.333 6.667 6.667 0 0 1 0 13.333zm0-13.333a6.667 6.667 0 1 1 0-13.333 6.667 6.667 0 0 1 0 13.333zm0-13.333a6.667 6.667 0 1 1 0-13.334 6.667 6.667 0 0 1 0 13.334z" fill="#FFD033" mask="url(#d)"/><ellipse fill="#FFF" mask="url(#d)" cx="33.333" cy="40" rx="6.667" ry="20"/></g><path d="M166.667 133.333c0 12.716 18.212 20 40 20s40-7.284 40-20a6.667 6.667 0 0 0-13.334 0c0 .128-1.616 1.656-5.572 3.239-5.37 2.148-12.937 3.428-21.094 3.428-8.158 0-15.724-1.28-21.095-3.428-3.956-1.583-5.572-3.111-5.572-3.239a6.667 6.667 0 0 0-13.333 0z" fill="#FFD033" fill-rule="nonzero" mask="url(#b)"/><g mask="url(#b)"><use fill="#DB1E36" xlink:href="#e"/><path stroke="#FFF" stroke-width=".667" d="M46.333 40.153L-.9-.333h7.568l.193.062L53.44 33h13.131L120.333-.601v6.928c0 .297-.17.633-.413.807L73.667 40.172V53.18l46.299 39.685c.377.323.2.802-.306.802h-5.987c-.259 0-.596-.107-.807-.258L66.56 60.333H53.429L-.333 93.935v-7.44l46.666-33.333V40.153z"/></g><path d="M0 33.333V60h46.667v39.34c0 .364.3.66.659.66h25.348c.364 0 .66-.299.66-.66V60h52.658a.67.67 0 0 0 .675-.66V33.994c0-.365-.3-.66-.675-.66H73.333V0H46.667v33.333H0z" fill="#FFF" mask="url(#b)"/><path fill="#DB1E36" mask="url(#b)" d="M0 40h53.333V0h13.334v40H120v13.333H66.667v40H53.333v-40H0z"/></g></svg>