<svg width="280" height="200" viewBox="0 0 280 200" xmlns="http://www.w3.org/2000/svg" xmlns:xlink="http://www.w3.org/1999/xlink"><title>WS</title><defs><rect id="a" width="280" height="200" rx="2"/></defs><g fill="none" fill-rule="evenodd"><mask id="b" fill="#fff"><use xlink:href="#a"/></mask><use fill="#FFF" xlink:href="#a"/><path fill="#E31F37" mask="url(#b)" d="M0 0h280v200H0z"/><path fill="#083B9A" mask="url(#b)" d="M-13.333-13.333h160v120h-160z"/><path d="M66.667 93.333l-9.428 2.762L60 86.667l-2.761-9.428L66.667 80l9.428-2.761-2.762 9.428 2.762 9.428-9.428-2.762zm0-66.666l-9.428 2.761L60 20l-2.761-9.428 9.428 2.761 9.428-2.761L73.333 20l2.762 9.428-9.428-2.761zM40 60l-9.428 2.761 2.761-9.428-2.761-9.428L40 46.667l9.428-2.762-2.761 9.428 2.761 9.428L40 60zm60-6.667l-9.428 2.762 2.761-9.428-2.761-9.428L100 40l9.428-2.761-2.761 9.428 2.761 9.428L100 53.333zm-16.667 20a3.333 3.333 0 1 1 0-6.666 3.333 3.333 0 0 1 0 6.666z" fill="#FFF" mask="url(#b)"/></g></svg>