<svg width="280" height="91" viewBox="0 0 280 91" xmlns="http://www.w3.org/2000/svg" xmlns:xlink="http://www.w3.org/1999/xlink"><title>ZM</title><defs><rect id="a" width="280" height="200" rx="2"/></defs><g fill="none" fill-rule="evenodd"><mask id="b" fill="#fff"><use xlink:href="#a"/></mask><use fill="#009F60" xlink:href="#a"/><g mask="url(#b)"><path d="M210.142 34.84c-.92.026-1.595-.292-1.836-.827 1.498-.88 2.511-.683 3.768.437.241-.876 0-1.851-.532-2.436-.531-.585-.967-.585-1.69-.635-.725-.048-1.45-.243-1.934-.243-.708-1.56-2.482-.9-4.186-.26-2.77 1.04-5.26 2.927-6.377 4.81-.511.863-.573 1.202-.887 1.69.26-.032.242-.032.403-.13-.193 2.145-.45 4.127-.065 5.395-.482 1.853-.096 3.023.484 3.608s.82.829.918 1.512c.096.681.386 1.314.87 1.705.483.39.773.975.82 1.318.049.34 1.544 1.81 2.174 2.193.242.145.29.439.582.828-.63 3.706 1.884 7.411 1.302 11.067.436.048 1.015 0 1.596-.146.482 3.12.772 4.631-1.933 5.557-2.705.927-4.185 1.84-3.43 2.877.53.73 1.631.094 2.319-.537.531-.487 1.159-.926 1.642-1.072.484-.146.581 0 .338.633-.242.635-1.545 2-1.594 2.682-.048.683.531 1.17 1.45.633.917-.536 1.724-1.94 1.932-2.778.144-.585.387-.976.338 0-.048.975-.628 2.73.677 3.023 1.304.292 1.692-1.268 1.256-2.682-.435-1.413-.58-2.194-.387-2.68.194-.49.387-.78.869-.636.483.146 1.45-.048 1.402-.827-.05-.78-.725-1.414-1.498-.976-.773.439-1.353.374-1.015-.585.242-.683.677-1.512.725-2.047.532.78 3.527.877 4.735.146.29 1.463 1.063 2.779-.627 4.145-1.692 1.364-3.045 2.68-2.997 3.656.05.975.436 1.558 1.305 1.071.869-.486 1.4-1.17 1.594-1.803.194-.634.581-.634.387.147-.193.779-.531 1.9-.387 2.584.146.681 1.209.731 1.642.096.436-.633.338-1.462.242-2.291-.096-.83.05-1.705.242-2.048.193-.34.58-.83.967.098.387.926.579 1.657 1.352 1.901.773.245 1.353-.098 1.209-1.023-.146-.926-1.16-1.951-2.174-2.73-1.015-.78-.677-1.17-.63-1.902.049-.73-.095-2.047-.145-2.632.919.683 1.934.585 2.416.585.483 0 1.277-.15.483-.877-1.594-1.463-1.063-2.342-2.174-3.414-1.11-1.072-2.125-2.73-2.463-4.143-.34-1.414-1.084-3.998-2.561-5.314-.821-.731-1.063-2.73-.87-5.022.193-2.292.242-4.826-1.835-5.996-2.078-1.17-2.03-2.145-1.353-3.169.675-1.023 1.545-2.025 2.657-2.097.25-.015.828-.064 1.063-.236a.84.84 0 0 0-.58-.203" fill="#EA8B42"/><path d="M210.142 34.84c-.92.026-1.595-.292-1.836-.827 1.498-.88 2.511-.683 3.768.437.241-.876 0-1.851-.532-2.436-.531-.585-.967-.585-1.69-.635-.725-.048-1.45-.243-1.934-.243-.708-1.56-2.482-.9-4.186-.26-2.77 1.04-5.26 2.927-6.377 4.81-.511.863-.573 1.202-.887 1.69.26-.032.242-.032.403-.13-.193 2.145-.45 4.127-.065 5.395-.482 1.853-.096 3.023.484 3.608s.82.829.918 1.512c.096.681.386 1.314.87 1.705.483.39.773.975.82 1.318.049.34 1.544 1.81 2.174 2.193.242.145.29.439.582.828-.63 3.706 1.884 7.411 1.302 11.067.436.048 1.015 0 1.596-.146.482 3.12.772 4.631-1.933 5.557-2.705.927-4.185 1.84-3.43 2.877.53.73 1.631.094 2.319-.537.531-.487 1.159-.926 1.642-1.072.484-.146.581 0 .338.633-.242.635-1.545 2-1.594 2.682-.048.683.531 1.17 1.45.633.917-.536 1.724-1.94 1.932-2.778.144-.585.387-.976.338 0-.048.975-.628 2.73.677 3.023 1.304.292 1.692-1.268 1.256-2.682-.435-1.413-.58-2.194-.387-2.68.194-.49.387-.78.869-.636.483.146 1.45-.048 1.402-.827-.05-.78-.725-1.414-1.498-.976-.773.439-1.353.374-1.015-.585.242-.683.677-1.512.725-2.047.532.78 3.527.877 4.735.146.29 1.463 1.063 2.779-.627 4.145-1.692 1.364-3.045 2.68-2.997 3.656.05.975.436 1.558 1.305 1.071.869-.486 1.4-1.17 1.594-1.803.194-.634.581-.634.387.147-.193.779-.531 1.9-.387 2.584.146.681 1.209.731 1.642.096.436-.633.338-1.462.242-2.291-.096-.83.05-1.705.242-2.048.193-.34.58-.83.967.098.387.926.579 1.657 1.352 1.901.773.245 1.353-.098 1.209-1.023-.146-.926-1.16-1.951-2.174-2.73-1.015-.78-.677-1.17-.63-1.902.049-.73-.095-2.047-.145-2.632.919.683 1.934.585 2.416.585.483 0 1.277-.15.483-.877-1.594-1.463-1.063-2.342-2.174-3.414-1.11-1.072-2.125-2.73-2.463-4.143-.34-1.414-1.084-3.998-2.561-5.314-.821-.731-1.063-2.73-.87-5.022.193-2.292.242-4.826-1.835-5.996-2.078-1.17-2.03-2.145-1.353-3.169.675-1.023 1.545-2.025 2.657-2.097.25-.015.828-.064 1.063-.236a.84.84 0 0 0-.58-.203z"/><path d="M196.63 40.107c-.052.99-.028 1.863.176 2.534-.482 1.853-.096 3.023.484 3.608s.82.829.918 1.512c.096.681.386 1.314.87 1.705.483.39.773.975.82 1.318.049.34 1.544 1.81 2.174 2.193.242.145.29.439.582.828-.263 1.54.013 3.08.39 4.616-3.414 2.859-6.785 1.51-5.367-1.415-2.835 2.275-7.73 2.211-6.634 0-4.445 1.56-5.798.26-5.219-1.17-3.735 1.496-5.669.066-5.153-.975-3.092.845-5.09.325-5.412-.194-.32-.52.451-1.69 1.16-2.275-1.417.52-2.77.52-4.059.325-1.287-.196-.965-.586-.708-1.171.26-.585.597-1.51 1.627-2.42-2.463.486-5.556.828-7.73.096-.41-.138-1.11-.293-.677-.73.436-.439 1.74-1.512 3.335-2.195-3.624.537-10.485.927-12.417-1.266 1.884.388 4.3-.391 5.846-1.024-6.088-.683-14.397-4.876-14.494-8.97 1.74 2.826 4.736 3.802 7.731 4.68-4.06-2.39-5.75-5.267-5.894-7.168 2.318 2.243 5.844 4.777 9.324 5.364-2.465-1.316-5.653-5.168-6.523-7.85 1.788 1.608 6.378 4.192 9.518 5.022-2.174-1.707-5.7-5.753-5.508-7.995.821.83 2.851 2.388 7.005 4.826 4.155 2.438 6.41 2.259 9.84 2.99-.628-.845-1.192-1.967-1.24-2.26 1.015.147 1.98.538 4.88 2.34 2.898 1.805 9.232 2.358 12.851 3.95 2.656 1.17 6.44.44 7.504 1.17" fill="#EA8B42"/><path d="M196.63 40.107c-.052.99-.028 1.863.176 2.534-.482 1.853-.096 3.023.484 3.608s.82.829.918 1.512c.096.681.386 1.314.87 1.705.483.39.773.975.82 1.318.049.34 1.544 1.81 2.174 2.193.242.145.29.439.582.828-.263 1.54.013 3.08.39 4.616-3.414 2.859-6.785 1.51-5.367-1.415-2.835 2.275-7.73 2.211-6.634 0-4.445 1.56-5.798.26-5.219-1.17-3.735 1.496-5.669.066-5.153-.975-3.092.845-5.09.325-5.412-.194-.32-.52.451-1.69 1.16-2.275-1.417.52-2.77.52-4.059.325-1.287-.196-.965-.586-.708-1.171.26-.585.597-1.51 1.627-2.42-2.463.486-5.556.828-7.73.096-.41-.138-1.11-.293-.677-.73.436-.439 1.74-1.512 3.335-2.195-3.624.537-10.485.927-12.417-1.266 1.884.388 4.3-.391 5.846-1.024-6.088-.683-14.397-4.876-14.494-8.97 1.74 2.826 4.736 3.802 7.731 4.68-4.06-2.39-5.75-5.267-5.894-7.168 2.318 2.243 5.844 4.777 9.324 5.364-2.465-1.316-5.653-5.168-6.523-7.85 1.788 1.608 6.378 4.192 9.518 5.022-2.174-1.707-5.7-5.753-5.508-7.995.821.83 2.851 2.388 7.005 4.826 4.155 2.438 6.41 2.259 9.84 2.99-.628-.845-1.192-1.967-1.24-2.26 1.015.147 1.98.538 4.88 2.34 2.898 1.805 9.232 2.358 12.851 3.95 2.656 1.17 6.44.44 7.504 1.17z"/><path d="M218.495 65.144c.16-.127.16-.347-.238-.71-1.594-1.463-1.063-2.342-2.174-3.414-1.11-1.072-2.125-2.73-2.463-4.143-.34-1.414-1.084-3.998-2.561-5.314-.821-.731-1.063-2.73-.87-5.022.165-1.961.225-4.1-1.064-5.409 2.415-.683 4.64-.83 5.412-.052 4.01-1.023 7.49-1.333 10.903-1.558 3.929-.262 11.336-1.951 16.62-5.526-.322 1.3-2.126 3.25-3.737 4.225 5.347-1.3 11.789-3.706 17.264-7.8-.065 2.86-2.383 5.004-3.737 6.176 3.737-2.082 9.211-4.681 11.08-7.931.82 3.33-4.766 7.687-7.795 10.092 3.092-1.495 7.087-2.877 8.633-5.087-.033 2.697-3.544 6.045-6.893 7.994 3.415-1.299 7.215-2.665 9.404-4.68.257 2.716-10.21 8.956-15.396 10.66 4.51-1.104 10.372-2.599 12.948-4.16-.128.553-1.18 1.327-1.944 1.891-3.15 2.33-7.983 3.58-10.939 4.155.388 1.626-.128 2.536-1.932 2.665-1.803.13-6.168-.568-8.357-1.674-.322.195-.71.262-1.145.31 2.126 1.608 2.851 2.778 2.416 3.461-.434.683-1.956.56-3.115.317.917 2.584-2.152 2.414-4.711.95 1.015 1.317 1.16 2.437-.242 2.73-1.4.292-2.513.196-3.866-.683-.096.975-1.03 1.626-2.27 1.3 4.252 2.585 4.01 3.527 3.285 4.501-.723.976-3.26.781-4.613-.096-.58 1.999-2.89 2.006-4.615.414-.015.797-1.66 2.378-3.288 1.418" fill="#EA8B42"/><path d="M218.495 65.144c.16-.127.16-.347-.238-.71-1.594-1.463-1.063-2.342-2.174-3.414-1.11-1.072-2.125-2.73-2.463-4.143-.34-1.414-1.084-3.998-2.561-5.314-.821-.731-1.063-2.73-.87-5.022.165-1.961.225-4.1-1.064-5.409 2.415-.683 4.64-.83 5.412-.052 4.01-1.023 7.49-1.333 10.903-1.558 3.929-.262 11.336-1.951 16.62-5.526-.322 1.3-2.126 3.25-3.737 4.225 5.347-1.3 11.789-3.706 17.264-7.8-.065 2.86-2.383 5.004-3.737 6.176 3.737-2.082 9.211-4.681 11.08-7.931.82 3.33-4.766 7.687-7.795 10.092 3.092-1.495 7.087-2.877 8.633-5.087-.033 2.697-3.544 6.045-6.893 7.994 3.415-1.299 7.215-2.665 9.404-4.68.257 2.716-10.21 8.956-15.396 10.66 4.51-1.104 10.372-2.599 12.948-4.16-.128.553-1.18 1.327-1.944 1.891-3.15 2.33-7.983 3.58-10.939 4.155.388 1.626-.128 2.536-1.932 2.665-1.803.13-6.168-.568-8.357-1.674-.322.195-.71.262-1.145.31 2.126 1.608 2.851 2.778 2.416 3.461-.434.683-1.956.56-3.115.317.917 2.584-2.152 2.414-4.711.95 1.015 1.317 1.16 2.437-.242 2.73-1.4.292-2.513.196-3.866-.683-.096.975-1.03 1.626-2.27 1.3 4.252 2.585 4.01 3.527 3.285 4.501-.723.976-3.26.781-4.613-.096-.58 1.999-2.89 2.006-4.615.414-.015.797-1.66 2.378-3.288 1.418zm-45.908-30.27c.58.844 2.415 2.47 3.64 2.795l-3.64-2.796zm3.607 2.306c-.066 1.268.644 3.154 2.802 3.804 2.159.65 4.026.454 5.186.096l-7.988-3.9zm7.947 3.9c-1.965.448-4.308 1.659-4.887 2.73-.58 1.074-.162 1.461.773 1.723 3.125.879 6.667-.064 9.178-1.884l-5.064-2.569zm-.072-.437c-.065 1.348 2.72 2.908 7.36 2.16l-7.36-2.16zm3.075 2.192c-.997.539-2.319 1.245-4.702 1.547l4.702-1.547zm1.998.131c-.451 1.462 2.833 2.567 7.44 1.43l-7.44-1.43zm1.932 1.722c-1.224.716-3.318 1.788-5.378 2.438l5.378-2.438zm-7.891 1.17c-.419.618-.648 2.636 1.128 2.861 3.607.456 8.599-1.982 10.563-3.998l-11.691 1.137zm4.445 2.536c-.919 1.56-.484 3.265 1.546 3.51 2.028.244 5.556-1.413 8.697-4.972l-10.243 1.462zm9.13-2.975c-2.174 1.366-4.541 3.22-7.004 4.145l7.004-4.145zm-4.395 5.753c-.821 1.17-1.015 1.853-.484 2.536.532.682 1.595.195 3.043-.586 1.45-.78 3.43-2.388 4.541-3.266l-7.1 1.316zm6.135-2.534c-1.015.683-4.058 2.925-4.83 3.704l4.83-3.704zm-.917 2.633c-.63 1.656.046 2.486.965 2.826.917.343 2.368.537 3.72-.78l-4.685-2.046zm-6.57 5.703c2.027-.78 5.361-3.023 6.424-3.9l-6.425 3.9zm7.437-2.925c-.82.83-2.751 2.145-4.589 2.925l4.59-2.925zm-.771 2.975c1.642-.976 3.962-2.634 4.735-3.56l-4.735 3.56zm4.83-1.951c-.435.585-1.545 1.9-2.27 2.682l2.27-2.682zm-8.937-1.316c-1.595.829-3.575 1.754-5.023 2.34l5.023-2.34zm-7.826 2.047c1.255-.439 4.735-2.292 5.846-2.925l-5.846 2.925zm-1.98-1.024c2.753-.585 4.927-2.242 6.135-2.876l-6.135 2.876zm-3.093.048c2.32-.486 5.7-2.68 7.053-3.557l-7.053 3.557zm6.473-5.07c-1.788 1.074-4.734 2.829-7.585 3.56l7.585-3.56zm-10.724 2.634c1.884-.488 5.652-2.145 8.455-3.706l-8.455 3.706zm6.57-4.631c-2.077.925-5.653 2.144-7.97 2.827l7.97-2.827zm-9.71 1.364c2.656-.39 6.087-2.243 7.777-3.363l-7.778 3.363zm-12.03-14.088c1.416 1.17 3.914 1.705 5.604 1.997l-5.604-1.997zm-2.256-4.324c2.224 2.113 5.702 4.55 9.76 5.038l-9.76-5.038zm7.989 4.68c-.451.813-.549 3.055 2.866 2.6l-2.866-2.6zm1.224 2.6c-.547 1.17.355 3.153 4.573 1.854l-4.573-1.855zm3.735.39c.677 2.536 3.833 3.088 5.476 1.756l-5.476-1.756zm-3.881.504c-2.028-.39-4.251-.731-5.025-.39-.771.342-1.032 1.097-.048 1.854 3.237 2.484 15.026 2.534 18.167 1.851l-13.094-3.315zm-4.251 1.95c-1.16.39-1.086 1.639.82 2.389 2.852 1.122 10.823 1.756 14.351 1.414l-15.171-3.802zm-.146 1.854c-.628.633-.35 1.42.291 1.997 2.72 2.46 9.38 2.128 15.026.146l-15.317-2.143zm-2.028 1.325c.483-.202 1.256-.327 1.714-.277l-1.714.277zm-6.763-4.3c2.222 1.414 4.977 2.047 8.261 2.34l-8.261-2.34zm3.43-1.803c1.69.503 2.656.704 4.058 1.259l-4.058-1.259zm80.02.373c-2.19.78-7.343 2.73-9.662 3.12l9.662-3.12zm-28.133 7.312c1.692.958 4.589 1.31 4.928-1.006l-4.928 1.006zm4.734-.373c1.739 1.024 5.267.39 5.169-1.56l-5.169 1.56zm4.927-.781c1.788.683 4.397.733 4.831-1.657l-4.83 1.657z"/><path d="M224.152 43.957c2.318.439 5.023-1.51 4.396-3.167m-13.961.29c-1.063.303-1.692.706-2.32 1.11m15.299.841c1.932.39 5.412 1.43 6.634 2.47 1.224 1.04 1.611 2.08-.58 2.47-2.189.39-3.284.196-5.346-.195m.516-4.452c2.319-1.364 6.183-2 8.744-1.414 2.56.585 2.126 1.999 1.353 2.73-.773.731-2.561 1.218-4.493 1.024m-3.285-1.638c1.449-.252 4.59-.604 6.28-.604m14.494-6.825c-2.03 1.997-8.31 4.483-13.286 5.655m3.624-1.025c1.738.438.559 2.752-.194 3.365-1.74 1.412-3.768 2.582-7.102 2.925m.531-.05c1.69.733 5.025 1.121 6.426.196 1.4-.926 1.208-2.34.097-3.023m-2.465 6.192c-1.304-1.122-7.634-2.438-9.71-2.829m10.855 2.52c.708-.228 1.721-1.642 1.079-2.747m-25.559-2.112c2.176 1.949 6.717 4.387 9.616 4.827 2.899.439 5.168-.1 3.672-1.756-1.499-1.657-5.364-3.218-7.344-3.9m16.692 9.775c-3.14-.731-6.643-2.9-9.108-4.461m.05-1.074c2.607 1.026 7.342 3.267 9.613 3.852m-5.266 2.633c-1.836-.878-5.362-3.12-7.392-4.923m1.836-.05c1.304 1.072 5.218 3.073 7.102 4.095m-16.862-9.359c2.32 1.316 5.654 2.925 8.07 3.802m-4.01-4.437c3.38.294 6.377 1.074 9.758 1.853m-19.18 9.555c.386.781 1.111 1.805 2.272 2.244 1.158.438 1.932-.537 1.98-1.56.048-1.024-.06-1.568-.206-1.957m-6.076-8.769c.34 2.925 2.851 6.971 4.977 8.24 2.126 1.266 3.818.779 4.251.146.436-.635.415-2.464-2.03-3.803-1.813-.994-4.057-3.024-5.07-4.437m-1.065.049c.388 1.17 3.383 5.07 4.929 6.045m-7.296-4.485c1.112 1.462 4.495 6.338 5.072 7.75m-.771-9.651c.771.877 4.01 3.51 5.7 4.193m.048 1.656a5.766 5.766 0 0 0 2.223.585c.628.05 1.015-.292.774-1.071-.242-.78-.774-1.56-1.257-2.05m-1.337 5.284c1.191 1.722 5.283 4.03 7.15 4.387m2.32-1.268c-1.773-.877-5.798-4.323-6.924-5.524m3.308 11.212c-1.546-.878-6.884-5.851-8.816-8.19m4.201 8.604c-1.496-1.17-4.01-4.509-4.78-5.532m3.138-6.339c1.546 1.413 5.17 3.997 6.57 4.973m-10.24 1.56c.58 1.22.965 2.242.917 2.632-.048.39-.146.78-.773.633m38.52-22.912c-4.058 2.081-7.536 4.616-13.012 5.785m.967-2.145c3.864-1.43 9.856-3.64 15.009-7.735m-15.266 11.376c5.733-1.43 11.853-3.77 16.039-7.216m-1.997 2.86c-3.221 1.3-5.733 4.225-14.43 5.46m8.423.487c-2.318 1.11-6.813 1.06-8.938.857m8.986 1.049c-2.512.553-7.342.352-9.178-.101m-44.882-12.164c.917-.487 1.04-.091 1.714-.78 1.884-1.926 4.759-3.875 6.233-4.46 1.473-.585 2.102-.903 3.14-.878m-3.294.972c.435-.203.46 1.003 1.611.57.858-.323.386-1.427.756-1.46m1.29 2.795c-.63.327-1.04.805-1.355 1.36m-8.309 2.979c-.24.827-.29 1.9-.24 2.582m.144 1.366c-.194.828 0 2.632.194 3.412m.338 1.853c.192.554.82 1.209 1.158 1.56m-.096-5.557c-.096 1.218.58 3.558 1.257 4.34.144 1.12.917 3.07 2.367 4.532m-3.961-12.333c-.096.536-.048 1.364.048 2.047m1.836-6.923c-.484 1.22-.63 3.51-.532 4.193.096.683-.483 2.193.29 4.485m1.74-7.604c-.483 1.997-.435 5.655 0 7.117m-.581.633c-.242 1.072-.242 2.39.098 3.412m1.786-10.433c-.048 1.512.629 3.658 1.982 5.168m-2.32.196c-.144 1.803-.048 3.51.29 4.484.338.975.291 2.974 1.112 4.144m.24-5.947c.194.73.484 1.755.146 2.534m1.111-3.948c.386 1.267.58 2.682.531 3.267m.048 3.217c.098 1.072.532 2.291.92 2.973m-2.514-.048c.34 1.023 1.015 2.39 1.692 2.924m2.85-2.436c.82 1.17 1.112 2.047 1.402 2.925M202.654 53.805c.917.098 1.352-.145 1.98 1.22.627 1.364 2.463 3.557 3.334 3.948.869.39 2.511 1.218 2.753 2.632.435-.975.967-2.095.386-3.363 1.208 1.51 2.56 2.876 2.755 3.802.193.927.95 2.097 1.529 2.73m-9.856-.065c.451-.097 1.257-.681 1.643-1.105.548.293 1.642.845 1.836 2.048m.193.065c.386-1.43-.032-4.387-1.417-6.825m-3.544-1.755c.355 1.072.677 2.47.71 3.315m1.707-1.137c.419 1.168.804 2.827.837 3.445m3.735-.424c.323.78.516 1.984.453 2.698m1.673.423c-.257-1.202-.32-4.063-.45-4.974"/><path d="M198.767 73.864c.03-.336.056-.726.278-.974.223-.249.362-.46.557-.213.195.248.07.48-.195.585-.264.106-.445.407-.487.602-.041.195-.18.301-.153 0M202.176 77.002c-.123-.722-.062-1.652.075-1.928.138-.276.313-.46.475-.184.163.276.225.666-.075.896-.265.203-.287.71-.3 1.079-.012.367-.1.573-.175.137M206.737 75.167c-.085.256.022 1.295.31 1.554.203.183.297.14.176-.2a1.268 1.268 0 0 1-.01-.836c.065-.18.054-.498-.09-.657-.143-.16-.32-.06-.386.139M209.512 73.716c-.182-.24-.354.048-.42.251-.133.407-.033.99.177 1.319.21.33.176-.116.11-.31-.066-.194-.077-.582.066-.621.144-.038.244-.407.067-.64M212.82 74.87c-.178-.083-.353.21-.332.559.017.26.034.593.199.767.111.117.188.192.133-.122-.055-.314.033-.576.132-.663.1-.087.055-.454-.132-.541M217.563 72.077c-.13.15-.122.496 0 .624.12.128.298.311.265.622-.034.312.066.422.154.074s.1-.861 0-1.1c-.1-.239-.31-.348-.42-.22" fill="#000"/><g fill="#000" fill-rule="nonzero"><path d="M210.139 34.733c-.87.024-1.512-.268-1.736-.764 1.37-.693 2.336-.565 3.6.561l.174-.051c.246-.89.015-1.91-.556-2.538a2.13 2.13 0 0 0-.407-.356c-.313-.205-.572-.26-1.19-.302l-.165-.011a9.211 9.211 0 0 1-.905-.115c-.685-.112-.803-.128-1.036-.128-.527-1.315-1.587-1.243-4.224-.253-2.782 1.044-5.296 2.943-6.431 4.856-.15.252-.27.473-.38.696-.066.133-.257.542-.238.502-.045.094-.045.094-.092.185-.055.107-.11.204-.175.303l.104.165c.089-.011.089-.011.153-.021a.545.545 0 0 0 .145-.04c.035-.016.066-.035.147-.084l-.162-.102-.054.573c-.277 2.942-.305 3.884-.007 4.863-.441 1.633-.205 2.93.51 3.652.683.689.806.874.888 1.452.105.74.422 1.38.908 1.774.414.334.73.876.783 1.249.052.37 1.537 1.853 2.224 2.27.079.047.136.115.208.238.023.04.115.208.14.25.065.114.128.212.203.312-.288 1.494-.097 2.756.626 5.558.708 2.738.894 3.937.657 5.428.552.175 1.146.122 1.727-.025.471 3.814.296 4.568-1.994 5.351-1.445.496-2.448.954-3.043 1.414-.677.522-.844 1.071-.44 1.628.512.703 1.524.356 2.48-.52.562-.516 1.164-.917 1.6-1.05.388-.116.42-.06.207.492-.085.223-.181.365-.766 1.173l-.128.178c-.46.648-.684 1.049-.707 1.362-.06.854.694 1.27 1.61.734.854-.5 1.735-1.844 1.983-2.845.067-.272.158-.496.197-.522-.05.034-.085-.002-.08.023.017.086.021.242.01.467-.009.171-.021.274-.083.724-.028.207-.044.339-.058.477-.113 1.115.098 1.752.901 1.933 1.314.294 1.886-1.184 1.383-2.82-.452-1.465-.561-2.175-.39-2.608.212-.537.377-.68.738-.572.696.21 1.587-.173 1.54-.937-.059-.922-.86-1.515-1.658-1.062-.37.21-.675.288-.83.225-.144-.058-.174-.274-.03-.68.065-.187.13-.348.28-.708l.002-.003c.311-.744.42-1.05.448-1.363l-.195.05c.57.837 3.63.934 4.878.178l-.16-.07c.04.205.084.384.17.714.318 1.224.36 1.703.07 2.327-.16.345-.429.674-.83.998-2.064 1.665-3.081 2.827-3.036 3.745.059 1.152.576 1.658 1.464 1.16.842-.471 1.428-1.156 1.644-1.865.076-.248.187-.39.217-.384.019.004.039.172-.036.473l-.148.582c-.057.222-.1.403-.137.577-.137.634-.18 1.112-.103 1.473.167.78 1.351.844 1.836.135.382-.556.407-1.09.26-2.357v-.008c-.087-.749.03-1.627.228-1.982.117-.206.238-.345.347-.376.126-.036.27.085.428.463.052.125.228.564.267.657.324.775.606 1.132 1.152 1.305.892.282 1.496-.18 1.347-1.143-.135-.857-.973-1.844-2.215-2.799-.474-.364-.656-.64-.677-.947-.009-.126 0-.205.045-.493.025-.156.037-.255.045-.369.02-.3.01-.708-.025-1.22-.014-.204-.03-.418-.052-.66-.013-.156-.061-.675-.07-.768l-.17.095c.141.105.289.195.442.272.577.287 1.08.351 1.86.337l.178-.003c.328 0 .623-.057.787-.189.248-.2.17-.506-.232-.875-.725-.665-.963-1.075-1.317-2.016a5.177 5.177 0 0 0-.252-.592 2.986 2.986 0 0 0-.603-.803c-1.12-1.082-2.107-2.727-2.433-4.09-.571-2.38-1.364-4.274-2.594-5.37-.744-.663-1.038-2.52-.834-4.933.279-3.32-.091-5.085-1.89-6.098-1.81-1.02-2.077-1.866-1.316-3.016.845-1.28 1.652-1.99 2.575-2.05.507-.03.907-.1 1.12-.256-.202-.33-.37-.403-.646-.397zm.005.215c.218-.005.343.05.512.18-.163-.05-.545.015-1.004.044-1.01.065-1.861.813-2.74 2.145-.834 1.26-.524 2.245 1.39 3.322 1.697.956 2.052 2.651 1.78 5.893-.209 2.477.094 4.389.906 5.111 1.187 1.058 1.966 2.92 2.528 5.26.336 1.404 1.344 3.086 2.493 4.195.246.237.42.474.56.746.082.16.143.305.243.57.364.97.618 1.407 1.373 2.099.318.292.36.454.242.548-.114.092-.37.142-.653.142l-.183.003c-.748.014-1.221-.047-1.76-.315a2.71 2.71 0 0 1-.41-.251l-.17.095.07.77c.02.24.038.452.051.654.034.503.044.904.025 1.192-.007.106-.019.2-.042.35-.048.306-.058.392-.048.54.026.378.242.705.76 1.104 1.201.923 2.01 1.876 2.134 2.661.124.799-.324 1.14-1.07.905-.471-.149-.717-.461-1.019-1.183-.038-.092-.215-.53-.268-.657-.194-.466-.425-.661-.684-.587-.18.052-.33.223-.474.477-.225.4-.347 1.323-.255 2.113v.008c.14 1.213.117 1.714-.224 2.21-.388.568-1.326.517-1.45-.058-.067-.323-.027-.776.103-1.382.037-.172.08-.35.135-.57l.15-.583c.102-.414.067-.698-.133-.736-.182-.034-.357.188-.461.532-.2.653-.75 1.295-1.545 1.74-.716.402-1.093.033-1.145-.983-.04-.815.954-1.952 2.957-3.566.425-.344.716-.699.89-1.075.318-.686.273-1.2-.058-2.472a11.587 11.587 0 0 1-.167-.703l-.16-.07c-1.163.703-4.097.61-4.591-.116l-.195.051c-.026.282-.132.58-.433 1.3l-.001.003c-.152.364-.218.526-.286.718-.177.502-.13.838.152.952.233.096.594.003 1.017-.237.645-.366 1.289.11 1.338.889.036.578-.69.89-1.264.717-.498-.15-.751.071-1 .698-.196.497-.082 1.237.385 2.752.463 1.505-.035 2.791-1.131 2.546-.662-.149-.838-.682-.735-1.702.013-.134.03-.265.058-.468a7.79 7.79 0 0 0 .084-.743 2.36 2.36 0 0 0-.014-.52c-.03-.15-.123-.244-.25-.16-.102.07-.204.32-.285.65-.235.948-1.083 2.243-1.882 2.71-.774.452-1.337.142-1.29-.532.02-.257.234-.641.669-1.253l.127-.176c.605-.837.697-.973.792-1.223.268-.696.124-.953-.469-.774-.472.143-1.099.56-1.683 1.095-.87.8-1.76 1.105-2.161.553-.326-.449-.197-.873.397-1.33.572-.442 1.557-.893 2.981-1.381 2.424-.83 2.622-1.681 2.005-5.675-.69.052-1.259.103-1.69.055.338-1.407.149-2.624-.566-5.392-.716-2.772-.904-4.014-.643-5.55-.09-.175-.148-.266-.209-.373-.022-.04-.115-.21-.14-.252-.089-.152-.168-.245-.283-.313-.634-.386-2.082-1.832-2.122-2.116-.06-.429-.405-1.02-.86-1.387-.44-.356-.733-.946-.83-1.636-.091-.636-.236-.855-.95-1.573-.655-.662-.877-1.882-.455-3.505-.287-.998-.26-1.934.015-4.839l.053-.574-.162-.101c-.082.05-.102.062-.124.072a.346.346 0 0 1-.091.024l-.146.02.103.165c.068-.106.127-.208.185-.32.049-.096.049-.096.095-.192-.018.038.172-.369.237-.499.108-.219.225-.435.372-.682 1.108-1.867 3.583-3.737 6.322-4.765 2.527-.949 3.499-1.014 4.052.204.313.063.43.08 1.099.188.398.065.655.1.925.117l.165.011c.583.04.814.089 1.087.268.122.08.241.184.366.321.52.573.734 1.515.507 2.335l.175-.052c-1.331-1.186-2.397-1.327-3.894-.449.222.724.946 1.055 1.894 1.028h-.001z"/><path d="M196.523 40.101c-.059 1.126-.01 1.941.18 2.571-.44 1.633-.204 2.93.51 3.652.684.689.807.874.89 1.452.104.74.421 1.38.907 1.774.414.334.73.876.783 1.249.052.37 1.537 1.853 2.224 2.27.079.047.136.115.208.238.023.04.115.208.14.25.065.114.128.212.203.312-.252 1.28-.106 2.63.372 4.577-1.53 1.202-3.203 1.7-4.36 1.334-1.093-.346-1.453-1.392-.807-2.727l-.163-.13c-1.303 1.044-3.174 1.666-4.724 1.658-1.497-.008-2.214-.586-1.747-1.527l-.132-.149c-3.83 1.345-5.752.622-5.083-1.028l-.14-.14c-3.14 1.257-5.631.411-5.017-.828l-.124-.152c-2.609.713-4.896.492-5.293-.147-.25-.406.359-1.493 1.138-2.135l-.105-.184c-1.267.464-2.541.541-4.007.32-.547-.083-.792-.2-.84-.345-.037-.11-.016-.17.184-.608l.03-.069c.547-1.235.75-1.59 1.472-2.267l.128-.116-.091-.186c-3.138.62-5.811.728-7.675.1-.045-.016-.232-.075-.276-.09-.223-.073-.36-.137-.427-.208-.062-.065-.055-.131.067-.254.681-.686 1.999-1.615 3.3-2.172l-.057-.206c-5.398.8-10.746.557-12.32-1.23l-.102.176c1.613.333 3.683-.119 5.907-1.03l-.028-.206c-6.69-.75-14.31-5.15-14.4-8.866l-.198.06c1.483 2.408 3.484 3.463 7.793 4.725l.084-.196c-3.598-2.118-5.673-4.866-5.84-7.082l-.182.085c2.85 2.76 6.287 4.872 9.38 5.393l.069-.2c-2.434-1.3-5.609-5.126-6.472-7.79l-.173.114c1.953 1.757 6.604 4.265 9.562 5.046l.093-.189c-2.743-2.154-5.63-6.001-5.467-7.9l-.183.066c1.034 1.044 3.384 2.705 7.027 4.843 2.27 1.331 4.006 1.945 6.285 2.366.32.06.63.112 1.118.192 1.377.226 1.752.291 2.468.444l.109-.17c-.557-.75-1.168-1.894-1.22-2.212l-.121.124c1.09.157 2.146.65 4.838 2.325 1.337.832 2.945 1.314 6.853 2.223l.18.042c3.118.726 4.504 1.107 5.832 1.692.724.32 1.564.517 2.562.632.669.077 1.15.103 2.367.146 1.595.057 2.19.13 2.557.382l-.046-.094zm.167-.083c-.417-.287-1.018-.361-2.67-.42-1.211-.042-1.69-.068-2.351-.144-.978-.113-1.798-.306-2.5-.616-1.345-.592-2.737-.976-5.87-1.705l-.18-.041c-3.88-.903-5.48-1.382-6.788-2.197-2.716-1.689-3.794-2.192-4.92-2.355l-.121.124c.059.36.683 1.53 1.259 2.306l.108-.17c-.72-.153-1.098-.219-2.479-.445-.485-.08-.794-.132-1.113-.191-2.256-.417-3.969-1.023-6.216-2.341-3.628-2.13-5.965-3.78-6.983-4.809l-.183.067c-.17 1.997 2.752 5.892 5.55 8.088l.092-.188c-2.924-.773-7.546-3.264-9.473-4.998l-.174.113c.88 2.717 4.092 6.587 6.575 7.912l.068-.2c-3.044-.514-6.445-2.604-9.267-5.337l-.182.086c.174 2.295 2.293 5.101 5.947 7.252l.084-.196c-4.26-1.248-6.224-2.283-7.67-4.633l-.199.06c.093 3.86 7.806 8.313 14.59 9.074l-.029-.207c-2.187.896-4.223 1.34-5.783 1.018l-.102.177c1.645 1.868 7.034 2.113 12.512 1.301l-.057-.205c-1.329.569-2.67 1.513-3.369 2.218-.198.2-.22.397-.07.555.1.105.258.179.514.264l.276.088c1.908.644 4.613.534 7.784-.092l-.092-.187c-.067.06-.067.06-.132.121a5.464 5.464 0 0 0-1.024 1.293 6.817 6.817 0 0 0-.29.57c-.053.117-.208.476-.208.474-.014.034-.014.034-.03.066-.235.519-.255.576-.192.766.083.249.39.395 1.012.49 1.499.226 2.809.147 4.113-.33l-.105-.185c-.855.705-1.514 1.88-1.184 2.414.464.748 2.84.977 5.531.242l-.124-.152c-.745 1.505 2.005 2.438 5.29 1.123l-.14-.14c-.769 1.897 1.383 2.706 5.353 1.312l-.131-.15c-.56 1.13.308 1.829 1.938 1.838 1.598.009 3.517-.63 4.859-1.706l-.163-.13c-.701 1.445-.29 2.638.935 3.025 1.234.39 2.98-.128 4.597-1.482-.436-2.03-.58-3.354-.354-4.68-.09-.175-.148-.266-.209-.373-.022-.04-.115-.21-.14-.252-.089-.152-.168-.245-.283-.313-.634-.386-2.082-1.832-2.122-2.116-.06-.429-.405-1.02-.86-1.387-.44-.356-.733-.946-.83-1.636-.091-.636-.236-.855-.95-1.573-.655-.662-.877-1.882-.455-3.505-.184-.659-.23-1.453-.173-2.556l-.047-.094z"/><path d="M218.562 65.228c.249-.198.17-.506-.233-.874-.725-.665-.963-1.075-1.317-2.016a5.177 5.177 0 0 0-.252-.592 2.986 2.986 0 0 0-.603-.803c-1.12-1.082-2.107-2.727-2.433-4.09-.571-2.38-1.364-4.274-2.594-5.37-.744-.663-1.038-2.52-.834-4.933.234-2.786.025-4.356-1.095-5.494l-.047.18c2.553-.722 4.617-.776 5.307-.08 3.537-.848 6.464-1.228 10.986-1.527 5.091-.339 12.083-2.439 16.673-5.544l-.164-.115c-.304 1.227-2.04 3.16-3.689 4.159l.08.197c6.344-1.543 12.396-4.149 17.304-7.82l-.17-.088c-.053 2.284-1.345 4.06-3.7 6.098l.121.175c.37-.206 3.159-1.717 4.013-2.2 3.731-2.11 6-3.845 7.107-5.771l-.196-.028c.255 1.038-.12 2.243-1.051 3.599-.835 1.215-2.075 2.502-3.702 3.92-.864.753-1.417 1.202-3.005 2.463l.113.18c.341-.164.708-.335 1.149-.535.318-.145 1.437-.646 1.477-.664 3.423-1.542 5.076-2.533 6.049-3.923l-.195-.063c-.03 2.406-3.048 5.697-6.84 7.903l.092.194.998-.379c.401-.152.71-.27 1.01-.386 3.728-1.439 5.9-2.526 7.43-3.936l-.178-.069c.223 2.356-9.265 8.556-15.323 10.547l.059.207c6.919-1.694 10.825-2.869 12.978-4.172l-.16-.117c-.054.23-.306.539-.731.912-.172.151-.368.31-.598.487-.163.125-.29.22-.574.43-2.624 1.94-6.588 3.298-10.896 4.136.302 1.751-.24 2.543-1.92 2.663-2.007.145-6.31-.657-8.3-1.663-.37.165-.68.24-1.206.299l-.052.193c2.012 1.522 2.796 2.68 2.39 3.317-.338.532-1.517.58-3.003.27l-.123.141c.404 1.14.03 1.75-.962 1.85-.94.094-2.324-.303-3.595-1.03l-.138.16c1.058 1.374 1.035 2.305-.179 2.559-1.48.309-2.536.143-3.785-.668l-.165.08c-.094.949-1.004 1.503-2.136 1.206l-.083.197c3.623 2.201 4.149 3.143 3.254 4.344-.65.876-3.083.777-4.469-.122l-.16.06c-.534 1.84-2.699 1.972-4.44.365l-.18.077c-.02 1.01-1.814 2.102-3.126 1.327l.012.177zm-.133-.168l.012.177c1.457.86 3.427-.338 3.45-1.508l-.18.077c1.844 1.701 4.204 1.557 4.79-.464l-.161.06c1.47.953 4.025 1.057 4.757.07.995-1.335.401-2.398-3.315-4.656l-.082.196c1.253.328 2.296-.307 2.403-1.395l-.165.08c1.299.844 2.412 1.018 3.946.698 1.416-.295 1.444-1.422.305-2.901l-.138.159c1.307.748 2.732 1.156 3.723 1.057 1.132-.114 1.592-.866 1.142-2.136l-.123.141c1.577.33 2.819.279 3.227-.364.497-.78-.342-2.017-2.441-3.605l-.053.193c.554-.062.889-.144 1.188-.325 1.923 1.028 6.265 1.838 8.31 1.69 1.815-.13 2.445-1.05 2.029-2.798 4.253-.713 8.242-2.08 10.898-4.043a34.1 34.1 0 0 0 .577-.432c.234-.18.433-.342.609-.496.457-.402.731-.737.799-1.025l-.16-.116c-2.125 1.286-6.027 2.46-12.918 4.147l.059.207c6.16-2.026 15.707-8.264 15.469-10.772l-.18-.07c-1.504 1.386-3.658 2.465-7.362 3.895l-1.009.385-.998.379.091.193c3.852-2.24 6.917-5.582 6.947-8.086l-.195-.063c-.941 1.345-2.575 2.325-5.961 3.85l-1.478.664c-.441.2-.81.372-1.153.538l.113.181c1.59-1.263 2.145-1.713 3.013-2.469 1.639-1.428 2.89-2.727 3.737-3.96.963-1.402 1.356-2.664 1.083-3.773l-.197-.028c-1.082 1.882-3.329 3.6-7.028 5.692-.851.482-3.64 1.992-4.01 2.199l.121.175c2.399-2.075 3.72-3.891 3.774-6.255l-.17-.089c-4.883 3.652-10.91 6.246-17.227 7.783l.081.196c1.693-1.025 3.466-3 3.786-4.291l-.164-.115c-4.556 3.082-11.511 5.17-16.567 5.507-4.534.3-7.473.682-10.922 1.562-.665-.746-2.788-.69-5.415.053l-.047.179c1.06 1.076 1.262 2.6 1.034 5.324-.21 2.477.093 4.389.905 5.111 1.187 1.058 1.966 2.92 2.528 5.26.336 1.404 1.344 3.086 2.493 4.195.246.237.42.474.56.746.082.16.143.305.243.57.364.97.618 1.407 1.373 2.099.319.291.36.454.244.547zm-45.93-30.126c.702 1.025 2.58 2.541 3.7 2.839l.092-.19-3.64-2.795-.153.146zm.176-.122l-.153.147 3.639 2.795.093-.19c-1.065-.282-2.903-1.766-3.58-2.752zm3.412 2.363c-.085 1.654.95 3.33 2.879 3.912 1.91.576 3.779.55 5.248.096l.015-.2-7.989-3.9-.153.092zm.214.01l-.154.092 7.988 3.9.016-.2c-1.43.441-3.255.467-5.124-.096-1.829-.551-2.807-2.135-2.726-3.695zm7.816 3.79c-2.096.478-4.385 1.726-4.958 2.784-.566 1.05-.275 1.566.839 1.877 3.003.845 6.578.051 9.27-1.9l-.015-.183-5.064-2.569-.072-.008zm-.024.201l5.064 2.569-.015-.183c-2.64 1.914-6.15 2.694-9.086 1.867-.992-.277-1.203-.65-.708-1.567.536-.991 2.775-2.212 4.817-2.677l-.072-.009zm-.131-.538c-.083 1.707 3.298 2.946 7.483 2.27l.013-.209-7.359-2.159-.137.098zm.077.109l7.36 2.159.012-.21c-4.07.657-7.308-.53-7.235-2.047l-.137.098zm3.056 1.993c-1.625.877-2.726 1.289-4.666 1.535l.045.216 4.703-1.547-.082-.204zm.099.197l-.082-.204-4.702 1.546.045.217c1.97-.25 3.093-.67 4.739-1.559zm1.845-.003c-.538 1.746 3.232 2.637 7.568 1.566l-.005-.21-7.44-1.43-.123.074zm.082.139l7.44 1.45-.005-.213c-4.197 1.052-7.77.195-7.312-1.312l-.123.075zm1.899 1.522c-1.603.937-3.591 1.871-5.356 2.428l.076.201 5.378-2.438-.098-.19zm.107.186l-.098-.19-5.377 2.437.076.2c1.782-.562 3.784-1.502 5.4-2.447zm-8.033 1.017c-.693 1.024-.361 2.83 1.203 3.028 3.298.417 8.363-1.679 10.654-4.03l-.087-.182-11.692 1.137-.078.047zm.099.167l11.691-1.137-.087-.182c-2.246 2.305-7.246 4.374-10.473 3.966-1.372-.174-1.669-1.784-1.053-2.693l-.078.046zm4.343 2.374c-1.02 1.733-.376 3.43 1.625 3.671 2.263.273 5.845-1.67 8.79-5.007l-.095-.178-10.243 1.463-.077.051zm.107.161l10.243-1.462-.096-.178c-2.902 3.29-6.423 5.2-8.603 4.937-1.836-.221-2.414-1.74-1.467-3.348l-.077.051zm9.058-3.172c-.339.213-.695.446-1.141.743l-1.171.785c-2.03 1.357-3.304 2.093-4.673 2.607l.092.193 7.005-4.144-.112-.184zm.114.182l-.111-.183-7.005 4.144.092.194c1.389-.522 2.673-1.265 4.716-2.63l1.171-.785c.445-.296.8-.528 1.137-.74zm-4.54 5.6c-.88 1.256-1.029 1.96-.48 2.665.515.66 1.3.454 3.178-.559.513-.276 1.118-.667 1.81-1.164.242-.173.493-.358.754-.555.342-.257.69-.527 1.086-.839l.907-.717-.086-.19-7.1 1.316-.069.044zm.107.168l7.1-1.316-.085-.19-.906.717c-.395.31-.742.58-1.082.836-.26.196-.51.38-.75.552-.686.492-1.283.879-1.787 1.15-1.772.955-2.496 1.144-2.908.615-.475-.61-.347-1.221.486-2.408l-.068.044zm6.056-2.729c-1.361.917-4.178 3.043-4.847 3.718l.141.16 4.831-3.703-.125-.175zm.12.179l-.125-.175-4.83 3.704.14.161c.656-.66 3.464-2.781 4.815-3.69zm-1.077 2.504c-.581 1.53-.129 2.537 1.028 2.966 1.321.493 2.655.342 3.832-.803l-.032-.176-4.685-2.047-.143.06zm.057.137l4.685 2.047-.031-.175c-1.112 1.081-2.359 1.222-3.609.755-1.044-.387-1.44-1.27-.902-2.687l-.143.06zm-6.49 5.705c1.746-.67 5.016-2.729 6.455-3.917l-.123-.175-6.425 3.9.093.192zm-.076-.2l.094.192 6.425-3.9-.124-.175c-1.423 1.174-4.674 3.22-6.395 3.882zm7.4-2.9c-.895.903-2.863 2.183-4.554 2.9l.099.19 4.589-2.924-.134-.167zm.152.15l-.133-.166-4.59 2.925.1.19c1.716-.728 3.708-2.023 4.623-2.948zm-.792 2.992c1.848-1.098 4.041-2.72 4.762-3.583l-.146-.155-4.735 3.56.119.178zm-.11-.185l.12.179 4.734-3.56-.146-.155c-.701.839-2.879 2.45-4.708 3.536zm4.8-1.923c-.442.594-1.555 1.91-2.264 2.674l.16.142 2.271-2.682-.167-.134zm.172.129l-.168-.134-2.271 2.682.16.143c.713-.768 1.832-2.09 2.279-2.691zm-9.074-1.476c-1.613.84-3.587 1.76-5.013 2.336l.085.197 5.023-2.34-.095-.193zm.099.191l-.095-.193-5.022 2.34.085.197c1.433-.579 3.413-1.502 5.032-2.344zm-7.84 2.053c1.048-.366 4.139-1.95 5.863-2.932l-.1-.19-5.846 2.925.083.197zm-.07-.203l.083.198 5.845-2.925-.1-.19c-1.714.977-4.797 2.557-5.828 2.917zm-1.923-.817c1.257-.267 2.457-.759 3.75-1.47.546-.3 2.15-1.278 2.413-1.416l-.095-.193-6.136 2.877.068.202zm-.044-.21l.067.203L189.945 52l-.095-.193c-.271.143-1.878 1.121-2.417 1.418-1.276.702-2.458 1.187-3.691 1.449zm-3.049.259c.752-.158 1.648-.498 2.666-.992a29.29 29.29 0 0 0 1.753-.933c.893-.511 1.59-.948 2.67-1.648l-.106-.187-7.053 3.558.07.202zm-.044-.21l.07.2 7.053-3.557-.106-.187a51.894 51.894 0 0 1-2.66 1.642 29.08 29.08 0 0 1-1.74.926c-1.004.487-1.885.822-2.617.975zm6.44-5.058c-3.177 1.908-5.26 2.958-7.557 3.548l.072.201 7.586-3.56-.1-.189zm.11.185l-.1-.19-7.586 3.56.072.201c2.324-.596 4.42-1.653 7.614-3.571zm-10.752 2.645c1.884-.488 5.654-2.142 8.48-3.716l-.095-.192-8.455 3.706.07.202zm-.054-.208l.07.203 8.455-3.706-.095-.193c-2.811 1.565-6.566 3.213-8.43 3.696zm6.554-4.625c-1.891.842-5.334 2.048-7.958 2.821l.066.205 7.971-2.827-.079-.2zm.087.196l-.079-.2-7.971 2.827.065.205c2.633-.776 6.084-1.985 7.985-2.832zm-9.74 1.373c2.274-.335 5.47-1.822 7.822-3.38l-.101-.189-7.778 3.363.058.206zm-.03-.213l.058.205 7.777-3.364-.101-.188c-2.329 1.543-5.498 3.018-7.734 3.347zm-12.082-13.9c1.196.989 3.065 1.573 5.654 2.02l.054-.206-5.604-1.998-.104.185zm.136-.165l-.104.184 5.604 1.997.054-.207c-2.552-.442-4.396-1.018-5.554-1.974zm-2.398-4.163c2.854 2.711 6.27 4.64 9.82 5.066l.063-.202-9.76-5.038-.123.174zm.148-.156l-.123.174 9.76 5.037.061-.202c-3.499-.42-6.876-2.327-9.698-5.009zm7.821 4.705c-.294.53-.34 1.314-.016 1.882.429.75 1.415 1.087 2.99.877l.058-.187-2.866-2.6-.166.028zm.022.132l2.866 2.6.058-.186c-1.498.2-2.397-.108-2.776-.77-.285-.499-.242-1.203.017-1.671l-.165.027zm1.199 2.475c-.832 1.782 1.076 3.119 4.702 2.003l.009-.203-4.574-1.854-.137.054zm.057.145l4.573 1.855.009-.203c-3.473 1.07-5.182-.128-4.445-1.706l-.137.054zm3.672.319c.656 2.457 3.81 3.3 5.646 1.812l-.035-.186-5.475-1.757-.136.13zm.207-.056l-.137.13 5.476 1.757-.035-.186c-1.72 1.394-4.69.6-5.304-1.701zm-3.965.426c-2.693-.518-4.392-.69-5.088-.383-.936.416-1.04 1.292-.07 2.038 2.772 2.128 13.843 2.83 18.254 1.871l.004-.21-13.094-3.314-.006-.002zm-.046.21l13.093 3.315.004-.209c-4.356.947-15.369.248-18.079-1.831-.84-.647-.76-1.322.027-1.671.635-.28 2.33-.11 4.96.397h-.005zm-4.26 1.745c-1.383.464-1.04 1.86.817 2.59 2.707 1.065 10.6 1.79 14.4 1.421l.015-.211-15.172-3.802-.06.002zm.009.206l15.171 3.802.016-.211c-3.77.366-11.629-.356-14.301-1.407-1.698-.668-1.977-1.8-.827-2.186l-.06.002zm-.196 1.673c-.63.635-.458 1.474.296 2.153 2.605 2.358 9.053 2.302 15.132.168l-.02-.208-15.317-2.144-.091.03zm.061.182l15.317 2.144-.02-.208c-6.014 2.111-12.388 2.166-14.919-.125-.672-.606-.816-1.308-.287-1.841l-.091.03zm-1.973 1.325c.467-.195 1.222-.317 1.663-.27l-.005-.22-1.715.278.057.212zm-.08-.205l.056.213 1.715-.278-.006-.22c-.476-.052-1.267.076-1.765.285zm-6.78-4.11c2.088 1.33 4.703 2.035 8.309 2.356l.038-.21-8.26-2.34-.087.194zm.114-.182l-.086.195 8.261 2.34.039-.211c-3.575-.318-6.16-1.016-8.214-2.324zm3.344-1.602c.535.16 2.124.606 1.989.568.225.064.421.122.609.18.505.156.961.314 1.45.508l.07-.21-4.058-1.259-.06.213zm.059-.213l-.06.213 4.057 1.259.07-.21a19.404 19.404 0 0 0-1.467-.514c-.19-.058-.386-.116-.613-.181.133.038-1.454-.408-1.987-.567zm79.954.375a601.2 601.2 0 0 1-3.991 1.432c-.315.11-.62.216-.915.316-2.128.726-3.73 1.198-4.738 1.367l.05.208 9.662-3.12-.068-.203zm.071.203l-.068-.204-9.662 3.12.05.208c1.024-.172 2.633-.646 4.772-1.375.296-.1.6-.206.916-.317 1.065-.372 4.098-1.47 3.992-1.432zm-28.22 7.272c2.204 1.208 4.775 1 5.086-1.052l-.127-.122-4.928.974-.03.2zm.103-.159l-.03.207 4.928-1.007-.127-.125c-.28 1.91-2.677 2.111-4.771.925zm4.63-.183c1.952 1.15 5.426.273 5.329-1.659l-5.306 1.463-.024.196zm.108-.186l-.024.196 5.169-1.56c-.052 1.618-3.316 2.441-5.145 1.364zm4.834-.588c2.355.9 4.583.418 4.975-1.738l-.14-.12-4.831 1.656-.004.202zm.076-.2l-.003.202 4.83-1.657-.14-.121c-.36 1.985-2.44 2.434-4.687 1.575z"/><path d="M224.133 44.063c2.388.452 5.179-1.56 4.515-3.312l-.2.077c.59 1.561-2.029 3.449-4.276 3.023l-.04.212zm-9.575-3.086c-.898.255-1.401.513-2.347 1.122l.113.189c.93-.598 1.417-.848 2.291-1.097l-.057-.214zm12.986 2.16c2.497.504 5.55 1.564 6.586 2.447.638.541.974 1.023.954 1.39-.022.404-.488.714-1.482.89-1.906.34-2.76.29-5.309-.193l-.04.211c2.572.487 3.45.54 5.386.195 1.08-.192 1.63-.558 1.659-1.09.025-.457-.344-.986-1.029-1.567-1.073-.914-4.152-1.982-6.682-2.494l-.043.21zm1.3.28c2.304-1.356 6.14-1.98 8.666-1.402 1.137.26 1.727.694 1.846 1.228.095.43-.128.926-.543 1.319-.788.745-2.588 1.178-4.409.995l-.021.214c1.877.189 3.738-.26 4.577-1.053.465-.44.719-1.007.605-1.521-.14-.631-.798-1.116-2.007-1.392-2.58-.59-6.472.043-8.823 1.426l.109.186zm2.283.723c1.67-.292 4.74-.603 6.261-.603v-.223c-1.533 0-4.615.313-6.297.606l.036.22zm20.68-7.62c-1.9 1.87-7.925 4.377-13.235 5.627l.05.21c5.345-1.259 11.4-3.778 13.336-5.683l-.15-.154zm-9.612 4.81c.72.183.946.717.759 1.489-.154.638-.6 1.369-.994 1.69-2.083 1.69-4.11 2.6-7.046 2.9l.022.215c2.98-.306 5.045-1.233 7.159-2.949.43-.35.902-1.122 1.067-1.806.212-.876-.066-1.532-.915-1.747l-.052.209zm-6.781 6.235c1.973.856 5.22 1.05 6.526.188 1.387-.917 1.355-2.43.095-3.205l-.112.184c1.126.692 1.155 2.012-.1 2.841-1.234.815-4.41.625-6.324-.205l-.085.197zm4.17 3.185c-1.061-.912-5.381-2.028-9.76-2.852l-.04.211c4.317.812 8.643 1.93 9.66 2.804l.14-.163zm1.108-.125c.949-.305 1.737-1.873 1.138-2.903l-.185.109c.524.9-.191 2.323-1.018 2.589l.065.205zm-24.584-4.881c2.33 2.088 6.898 4.432 9.67 4.853 1.486.225 2.785.193 3.54-.098.869-.336.983-1 .228-1.837-1.254-1.386-4.256-2.849-7.389-3.93l-.07.204c3.098 1.069 6.08 2.52 7.3 3.87.659.73.575 1.213-.147 1.492-.712.276-1.977.307-3.43.087-2.728-.415-7.259-2.74-9.56-4.802l-.142.16zm22.73 8.761c-2.564-.597-5.09-1.925-9.074-4.447l-.114.182c4.005 2.535 6.544 3.87 9.14 4.475l.049-.21zm-9.12-5.33c.5.197 1.097.445 1.895.787.434.185 2.007.864 2.208.95l.432.185c2.473 1.057 4.025 1.66 5.09 1.934l.054-.208c-1.05-.27-2.598-.871-5.06-1.923l-.431-.185c-.2-.086-1.775-.766-2.21-.951a71.92 71.92 0 0 0-1.9-.789l-.079.2zm4.432 6.287c-2.03-.97-5.5-3.247-7.367-4.905l-.142.16c1.882 1.673 5.37 3.961 7.417 4.94l.092-.195zm-5.67-4.791c.577.474 1.667 1.143 3.242 2.017l.627.345c.76.414 3.046 1.633 3.25 1.744l.102-.19c-.205-.11-2.492-1.33-3.25-1.743l-.625-.344c-1.563-.868-2.647-1.533-3.21-1.996l-.136.167zm-9.744-5.254c2.467 1.4 5.783 2.973 8.085 3.81l.073-.203c-2.29-.832-5.596-2.4-8.053-3.795l-.105.188zm4.103-.622c1.55.135 3.086.376 4.866.743.715.148 1.454.312 2.401.53.326.076 1.993.467 2.476.578l.048-.21c-.482-.11-2.15-.501-2.476-.577-.948-.22-1.689-.384-2.406-.532-1.787-.369-3.332-.61-4.89-.746l-.02.214zm-9.509 11.35c.521 1.055 1.304 1.907 2.33 2.295 1.135.43 2.067-.429 2.125-1.656.043-.922-.032-1.515-.213-1.999l-.2.076c.17.454.24 1.019.198 1.913-.05 1.096-.855 1.836-1.835 1.465-.967-.366-1.713-1.18-2.213-2.19l-.192.095zm-2.04-10.078c.338 2.91 2.837 7.012 5.028 8.319 1.87 1.114 3.785 1.004 4.395.114.686-1 .026-2.811-2.067-3.957-1.73-.949-3.986-2.943-5.035-4.405l-.174.125c1.068 1.489 3.347 3.504 5.106 4.469 1.99 1.09 2.6 2.762 1.993 3.647-.536.782-2.325.884-4.108-.178-2.132-1.272-4.595-5.313-4.925-8.16l-.213.026zm1.068.216c.435 1.314 3.519 5.185 4.973 6.102l.114-.182c-1.413-.891-4.465-4.722-4.884-5.988l-.203.068zm-2.351 1.591c1.596 2.099 4.578 6.551 5.058 7.726l.198-.081c-.49-1.2-3.478-5.661-5.086-7.775l-.17.13zm4.306-1.895c.995 1.132 4.255 3.621 5.74 4.221l.08-.2c-1.451-.586-4.685-3.055-5.66-4.163l-.16.142zm5.782 5.876c.806.384 1.428.53 2.261.595.752.06 1.134-.406.884-1.211-.229-.738-.735-1.54-1.283-2.093l-.152.151c.524.53 1.012 1.303 1.23 2.005.205.66-.06.981-.662.933-.81-.062-1.406-.202-2.186-.575l-.092.195zm.36 2.711c1.133 1.637 5.166 4.038 7.219 4.432l.04-.212c-2-.383-5.984-2.755-7.082-4.342l-.176.122zm9.606 2.962c-1.53-.758-5.475-3.99-6.893-5.502l-.156.147c1.434 1.53 5.397 4.777 6.954 5.548l.095-.193zm-3.61 5.69c-1.52-.862-6.846-5.815-8.787-8.164l-.165.137c1.957 2.368 7.3 7.337 8.846 8.214l.106-.187zm-4.602.424c-.501-.392-1.151-1.057-1.916-1.94a43.03 43.03 0 0 1-.64-.757 74.306 74.306 0 0 1-2.205-2.816l-.171.13a74.493 74.493 0 0 0 2.21 2.823c.222.267.436.522.645.762.772.892 1.43 1.565 1.945 1.967l.132-.17zm-1.78-11.707c1.255 1.147 4.037 3.208 6.582 4.98l.122-.176c-2.537-1.767-5.314-3.825-6.56-4.963l-.144.159zm-3.695 6.5c.611 1.286.95 2.234.907 2.572-.06.496-.19.647-.642.542l-.049.21c.608.14.83-.12.904-.726.05-.398-.294-1.359-.927-2.691l-.193.092zm38.712-19.79a81.06 81.06 0 0 0-2.682 1.454l-.285.16c-4.347 2.427-6.594 3.43-10.018 4.162l.045.21c3.45-.737 5.713-1.747 10.077-4.185l.285-.159a80.886 80.886 0 0 1 2.675-1.45l-.097-.192zm-11.959 3.837c4.739-1.753 7.362-2.87 10.521-4.697a37.082 37.082 0 0 0 4.517-3.055l-.133-.168a36.869 36.869 0 0 1-4.49 3.036c-3.146 1.82-5.761 2.933-10.489 4.682l.074.202zm-.268 3.644c6.57-1.639 12.262-4.093 16.08-7.237l-.135-.166c-3.79 3.12-9.455 5.563-15.997 7.194l.052.209zm13.976-4.56c-.32.128-.643.278-.988.453-.474.241-3.124 1.775-4.057 2.243-2.606 1.307-5.465 2.204-9.36 2.758l.03.212c3.918-.556 6.799-1.46 9.426-2.778.94-.471 3.59-2.006 4.057-2.243.34-.173.659-.32.972-.446l-.08-.2zm-6.012 5.95c-1.914.915-5.747 1.145-8.884.846l-.02.222c3.173.302 7.036.07 8.994-.867l-.09-.202zm.07 1.898c-2.295.505-7.095.402-9.13-.101l-.05.216c2.065.51 6.898.615 9.225.102l-.044-.217zm-53.987-12.065c.323-.171.484-.22.847-.29.09-.016.145-.029.204-.046.229-.066.427-.194.69-.463 1.757-1.798 4.616-3.81 6.196-4.436 2.13-.846 1.717-.69 2.191-.79a3.82 3.82 0 0 1 .907-.08l.005-.215a4.033 4.033 0 0 0-.956.084c-.289.061-.585.155-.977.303-.237.09-1.26.502-1.25.498-1.609.639-4.492 2.667-6.27 4.486-.238.243-.405.351-.596.407a1.93 1.93 0 0 1-.184.042c-.382.072-.561.127-.907.31l.1.19zm7.787-5.138c.059-.028.1-.014.171.059.038.038.19.224.197.234.319.37.668.492 1.236.28.357-.135.536-.395.607-.77.02-.106.027-.174.042-.371.018-.246.039-.308.08-.312l-.019-.22c-.204.018-.248.149-.275.515a2.79 2.79 0 0 1-.038.346c-.058.304-.192.498-.47.603-.479.18-.739.089-1.003-.219-.002-.002-.16-.198-.207-.244-.127-.13-.257-.174-.409-.104l.088.203zm3.565 1.706c-.6.312-1.038.768-1.4 1.403l.186.113c.34-.6.75-1.026 1.31-1.318l-.096-.198zm-9.719 4.405c-.22.757-.303 1.81-.244 2.62l.214-.016c-.057-.785.024-1.814.236-2.544l-.206-.06zm-.097 3.954c-.176.75-.046 2.496.194 3.462l.208-.052c-.233-.936-.36-2.65-.194-3.361l-.208-.05zm.535 5.327c.048.14.123.29.223.448.12.192.274.394.458.608.15.175.271.305.502.546l.152-.157a11.962 11.962 0 0 1-.494-.537 4.984 4.984 0 0 1-.439-.581 2.009 2.009 0 0 1-.2-.402l-.202.075zm1.057-4.043c-.099 1.247.586 3.615 1.282 4.418.153 1.328 1.073 3.228 2.372 4.538l.152-.151c-1.265-1.277-2.165-3.134-2.337-4.472-.681-.813-1.35-3.124-1.256-4.316l-.213-.017zm-.337-3.472c-.09.502-.063 1.293.048 2.081l.212-.03c-.108-.768-.134-1.538-.049-2.013l-.21-.038zm1.89-4.897c-.427 1.078-.665 3.358-.538 4.248.024.17.02.214-.054.93-.137 1.305-.083 2.295.348 3.574l.203-.069c-.42-1.245-.472-2.206-.338-3.483.078-.748.081-.785.053-.982-.122-.854.112-3.097.525-4.138l-.199-.08zm1.494 1.088c-.472 1.951-.456 5.638.001 7.174l.206-.062c-.446-1.497-.462-5.146.001-7.061l-.208-.05zm-.582 7.752c-.258 1.146-.23 2.472.1 3.47l.204-.068c-.318-.959-.345-2.245-.095-3.354l-.209-.048zm1.882-7c-.053 1.67.724 3.809 2.009 5.243l.16-.144c-1.248-1.393-2.006-3.478-1.955-5.093l-.214-.006zm-.338 5.359c-.148 1.853-.042 3.555.296 4.527.087.251.148.556.233 1.115.04.266.064.418.084.544.034.214.065.395.098.568.161.843.374 1.464.71 1.944l.176-.124c-.316-.45-.52-1.045-.676-1.861-.033-.17-.063-.349-.096-.56l-.084-.544c-.088-.572-.15-.885-.243-1.153-.326-.938-.43-2.613-.284-4.44l-.214-.016zm1.646 2.716l.08.305c.109.42.173.736.202 1.047.04.435.002.804-.131 1.112l.196.086c.15-.346.192-.75.148-1.219a6.768 6.768 0 0 0-.207-1.08l-.081-.306-.207.055zm1.257-1.41c.357 1.171.579 2.604.528 3.227l.213.017c.054-.654-.172-2.112-.536-3.307l-.205.063zm.576 6.463c.09 1 .49 2.24.932 3.016l.186-.107c-.426-.75-.817-1.96-.905-2.929l-.213.02zm-1.59 2.949c.405 1.22 1.1 2.478 1.728 2.975l.132-.17c-.587-.463-1.264-1.69-1.656-2.873l-.204.068zm4.556.516c.677.966.959 1.597 1.388 2.897l.203-.068c-.435-1.318-.724-1.966-1.416-2.953l-.175.124z"/><path d="M202.642 53.912c.134.014.217.02.447.03.534.027.721.082.962.336.158.168.315.422.485.792.644 1.4 2.498 3.602 3.388 4.001 1.526.686 2.504 1.455 2.691 2.552l.204.026.105-.235c.607-1.369.745-2.203.28-3.217l-.18.112c.125.157.257.32.405.497 2.321 2.796 2.197 2.634 2.328 3.26.178.855.865 2.028 1.555 2.78l.158-.145c-.666-.727-1.334-1.867-1.504-2.68-.142-.681.012-.48-2.373-3.353a35.123 35.123 0 0 1-.403-.494l-.18.113c.431.942.302 1.723-.282 3.04l-.105.234.204.026c-.205-1.194-1.226-1.998-2.815-2.712-.835-.375-2.657-2.539-3.281-3.896-.18-.388-.348-.661-.525-.848-.288-.306-.522-.374-1.106-.403a6.717 6.717 0 0 1-.435-.03l-.023.214zm2.916 10.902c.446-.095 1.264-.66 1.699-1.137.267.234.41.317.634.477.56.404.916.889 1.017 1.515l.211-.035c-.11-.69-.5-1.22-1.103-1.654-.234-.169-.383-.254-.788-.47-.537.469-1.32 1.01-1.715 1.094l.045.21zm3.753.931c.434-1.609-.132-4.625-1.428-6.906l-.187.106c1.27 2.235 1.826 5.195 1.408 6.744l.207.056zm-5.167-8.574c.376 1.135.674 2.497.705 3.286l.214-.009c-.031-.812-.334-2.192-.715-3.345l-.204.068zm2.418 2.18c.398 1.111.797 2.778.83 3.414l.215-.011c-.035-.66-.439-2.347-.843-3.475l-.202.073zm4.574 3.027c.311.752.508 1.939.445 2.646l.214.02c.066-.744-.137-1.965-.46-2.749l-.199.083zm2.33 3.057c-.102-.478-.179-1.224-.255-2.343-.022-.319-.09-1.415-.103-1.616-.033-.48-.06-.796-.09-1.008l-.212.03c.029.205.056.517.088.993.013.2.081 1.296.103 1.616.077 1.13.154 1.882.26 2.373l.209-.045z"/></g></g></g></svg>