<svg width="280" height="96" viewBox="0 0 280 96" xmlns="http://www.w3.org/2000/svg" xmlns:xlink="http://www.w3.org/1999/xlink"><title>ZW</title><defs><rect id="a" width="280" height="200" rx="2"/><path id="c" d="M-13.333 200V0H0l133.333 100L0 200z"/><linearGradient x1="50%" y1="0%" x2="50%" y2="100%" id="d"><stop stop-color="#F12F1F" offset="0%"/><stop stop-color="#DE2010" offset="100%"/></linearGradient></defs><g fill="none" fill-rule="evenodd"><mask id="b" fill="#fff"><use xlink:href="#a"/></mask><use fill="#FFF" xlink:href="#a"/><path fill="#369D0C" mask="url(#b)" d="M0 0h280v26.667H0zM0 53.333h280V80H0z"/><path fill="#262626" mask="url(#b)" d="M0 80h280v40H0z"/><path fill="#FFD40E" mask="url(#b)" d="M0 26.667h280v26.667H0z"/><g mask="url(#b)"><use fill="#FFF" xlink:href="#c"/><path stroke="#262626" stroke-width="1.333" d="M-12.667 199.333H-.222L132.222 100-.222.667h-12.445v198.666z"/></g><path fill="url(#d)" mask="url(#b)" d="M40 113l-19.593 13.967 7.23-22.95L8.297 89.7l24.06-.216L40 66.667l7.641 22.816 24.06.216-19.337 14.318 7.229 22.95z"/></g></svg>